<?xml version="1.0" encoding="UTF-8" standalone="no"?>
<svg xmlns:svg="http://www.w3.org/2000/svg"
xmlns="http://www.w3.org/2000/svg" version="1.1"
width="360.0" height="236.5">
<!-- Created with the Wikimedia westminster parliament diagram creator (http://parliamentdiagram.toolforge.org/westminsterinputform.html) -->
<g id="diagram">
  <g id="headbench">
  <g style="fill:#6495ED" id="CPC">
    <rect x="5.5147" y="113.6029" rx="0.00" ry="0.00" width="9.26" height="9.26"/>
  </g>
  </g>
  <g id="leftbench">
  <g style="fill:#6495ED" id="CPC">
    <rect x="15.8088" y="98.1618" rx="0.00" ry="0.00" width="9.26" height="9.26"/>
    <rect x="15.8088" y="87.8676" rx="0.00" ry="0.00" width="9.26" height="9.26"/>
    <rect x="15.8088" y="77.5735" rx="0.00" ry="0.00" width="9.26" height="9.26"/>
    <rect x="15.8088" y="67.2794" rx="0.00" ry="0.00" width="9.26" height="9.26"/>
    <rect x="15.8088" y="56.9853" rx="0.00" ry="0.00" width="9.26" height="9.26"/>
    <rect x="15.8088" y="46.6912" rx="0.00" ry="0.00" width="9.26" height="9.26"/>
    <rect x="15.8088" y="36.3971" rx="0.00" ry="0.00" width="9.26" height="9.26"/>
    <rect x="15.8088" y="26.1029" rx="0.00" ry="0.00" width="9.26" height="9.26"/>
    <rect x="15.8088" y="15.8088" rx="0.00" ry="0.00" width="9.26" height="9.26"/>
    <rect x="15.8088" y="5.5147" rx="0.00" ry="0.00" width="9.26" height="9.26"/>
    <rect x="26.1029" y="98.1618" rx="0.00" ry="0.00" width="9.26" height="9.26"/>
    <rect x="26.1029" y="87.8676" rx="0.00" ry="0.00" width="9.26" height="9.26"/>
    <rect x="26.1029" y="77.5735" rx="0.00" ry="0.00" width="9.26" height="9.26"/>
    <rect x="26.1029" y="67.2794" rx="0.00" ry="0.00" width="9.26" height="9.26"/>
    <rect x="26.1029" y="56.9853" rx="0.00" ry="0.00" width="9.26" height="9.26"/>
    <rect x="26.1029" y="46.6912" rx="0.00" ry="0.00" width="9.26" height="9.26"/>
    <rect x="26.1029" y="36.3971" rx="0.00" ry="0.00" width="9.26" height="9.26"/>
    <rect x="26.1029" y="26.1029" rx="0.00" ry="0.00" width="9.26" height="9.26"/>
    <rect x="26.1029" y="15.8088" rx="0.00" ry="0.00" width="9.26" height="9.26"/>
    <rect x="26.1029" y="5.5147" rx="0.00" ry="0.00" width="9.26" height="9.26"/>
    <rect x="36.3971" y="98.1618" rx="0.00" ry="0.00" width="9.26" height="9.26"/>
    <rect x="36.3971" y="87.8676" rx="0.00" ry="0.00" width="9.26" height="9.26"/>
    <rect x="36.3971" y="77.5735" rx="0.00" ry="0.00" width="9.26" height="9.26"/>
    <rect x="36.3971" y="67.2794" rx="0.00" ry="0.00" width="9.26" height="9.26"/>
    <rect x="36.3971" y="56.9853" rx="0.00" ry="0.00" width="9.26" height="9.26"/>
    <rect x="36.3971" y="46.6912" rx="0.00" ry="0.00" width="9.26" height="9.26"/>
    <rect x="36.3971" y="36.3971" rx="0.00" ry="0.00" width="9.26" height="9.26"/>
    <rect x="36.3971" y="26.1029" rx="0.00" ry="0.00" width="9.26" height="9.26"/>
    <rect x="36.3971" y="15.8088" rx="0.00" ry="0.00" width="9.26" height="9.26"/>
    <rect x="36.3971" y="5.5147" rx="0.00" ry="0.00" width="9.26" height="9.26"/>
    <rect x="46.6912" y="98.1618" rx="0.00" ry="0.00" width="9.26" height="9.26"/>
    <rect x="46.6912" y="87.8676" rx="0.00" ry="0.00" width="9.26" height="9.26"/>
    <rect x="46.6912" y="77.5735" rx="0.00" ry="0.00" width="9.26" height="9.26"/>
    <rect x="46.6912" y="67.2794" rx="0.00" ry="0.00" width="9.26" height="9.26"/>
    <rect x="46.6912" y="56.9853" rx="0.00" ry="0.00" width="9.26" height="9.26"/>
    <rect x="46.6912" y="46.6912" rx="0.00" ry="0.00" width="9.26" height="9.26"/>
    <rect x="46.6912" y="36.3971" rx="0.00" ry="0.00" width="9.26" height="9.26"/>
    <rect x="46.6912" y="26.1029" rx="0.00" ry="0.00" width="9.26" height="9.26"/>
    <rect x="46.6912" y="15.8088" rx="0.00" ry="0.00" width="9.26" height="9.26"/>
    <rect x="46.6912" y="5.5147" rx="0.00" ry="0.00" width="9.26" height="9.26"/>
    <rect x="56.9853" y="98.1618" rx="0.00" ry="0.00" width="9.26" height="9.26"/>
    <rect x="56.9853" y="87.8676" rx="0.00" ry="0.00" width="9.26" height="9.26"/>
    <rect x="56.9853" y="77.5735" rx="0.00" ry="0.00" width="9.26" height="9.26"/>
    <rect x="56.9853" y="67.2794" rx="0.00" ry="0.00" width="9.26" height="9.26"/>
    <rect x="56.9853" y="56.9853" rx="0.00" ry="0.00" width="9.26" height="9.26"/>
    <rect x="56.9853" y="46.6912" rx="0.00" ry="0.00" width="9.26" height="9.26"/>
    <rect x="56.9853" y="36.3971" rx="0.00" ry="0.00" width="9.26" height="9.26"/>
    <rect x="56.9853" y="26.1029" rx="0.00" ry="0.00" width="9.26" height="9.26"/>
    <rect x="56.9853" y="15.8088" rx="0.00" ry="0.00" width="9.26" height="9.26"/>
    <rect x="56.9853" y="5.5147" rx="0.00" ry="0.00" width="9.26" height="9.26"/>
    <rect x="67.2794" y="98.1618" rx="0.00" ry="0.00" width="9.26" height="9.26"/>
    <rect x="67.2794" y="87.8676" rx="0.00" ry="0.00" width="9.26" height="9.26"/>
    <rect x="67.2794" y="77.5735" rx="0.00" ry="0.00" width="9.26" height="9.26"/>
    <rect x="67.2794" y="67.2794" rx="0.00" ry="0.00" width="9.26" height="9.26"/>
    <rect x="67.2794" y="56.9853" rx="0.00" ry="0.00" width="9.26" height="9.26"/>
    <rect x="67.2794" y="46.6912" rx="0.00" ry="0.00" width="9.26" height="9.26"/>
    <rect x="67.2794" y="36.3971" rx="0.00" ry="0.00" width="9.26" height="9.26"/>
    <rect x="67.2794" y="26.1029" rx="0.00" ry="0.00" width="9.26" height="9.26"/>
    <rect x="67.2794" y="15.8088" rx="0.00" ry="0.00" width="9.26" height="9.26"/>
    <rect x="67.2794" y="5.5147" rx="0.00" ry="0.00" width="9.26" height="9.26"/>
    <rect x="77.5735" y="98.1618" rx="0.00" ry="0.00" width="9.26" height="9.26"/>
    <rect x="77.5735" y="87.8676" rx="0.00" ry="0.00" width="9.26" height="9.26"/>
    <rect x="77.5735" y="77.5735" rx="0.00" ry="0.00" width="9.26" height="9.26"/>
    <rect x="77.5735" y="67.2794" rx="0.00" ry="0.00" width="9.26" height="9.26"/>
    <rect x="77.5735" y="56.9853" rx="0.00" ry="0.00" width="9.26" height="9.26"/>
    <rect x="77.5735" y="46.6912" rx="0.00" ry="0.00" width="9.26" height="9.26"/>
    <rect x="77.5735" y="36.3971" rx="0.00" ry="0.00" width="9.26" height="9.26"/>
    <rect x="77.5735" y="26.1029" rx="0.00" ry="0.00" width="9.26" height="9.26"/>
    <rect x="77.5735" y="15.8088" rx="0.00" ry="0.00" width="9.26" height="9.26"/>
    <rect x="77.5735" y="5.5147" rx="0.00" ry="0.00" width="9.26" height="9.26"/>
    <rect x="87.8676" y="98.1618" rx="0.00" ry="0.00" width="9.26" height="9.26"/>
    <rect x="87.8676" y="87.8676" rx="0.00" ry="0.00" width="9.26" height="9.26"/>
    <rect x="87.8676" y="77.5735" rx="0.00" ry="0.00" width="9.26" height="9.26"/>
    <rect x="87.8676" y="67.2794" rx="0.00" ry="0.00" width="9.26" height="9.26"/>
    <rect x="87.8676" y="56.9853" rx="0.00" ry="0.00" width="9.26" height="9.26"/>
    <rect x="87.8676" y="46.6912" rx="0.00" ry="0.00" width="9.26" height="9.26"/>
    <rect x="87.8676" y="36.3971" rx="0.00" ry="0.00" width="9.26" height="9.26"/>
    <rect x="87.8676" y="26.1029" rx="0.00" ry="0.00" width="9.26" height="9.26"/>
    <rect x="87.8676" y="15.8088" rx="0.00" ry="0.00" width="9.26" height="9.26"/>
    <rect x="87.8676" y="5.5147" rx="0.00" ry="0.00" width="9.26" height="9.26"/>
    <rect x="98.1618" y="98.1618" rx="0.00" ry="0.00" width="9.26" height="9.26"/>
    <rect x="98.1618" y="87.8676" rx="0.00" ry="0.00" width="9.26" height="9.26"/>
    <rect x="98.1618" y="77.5735" rx="0.00" ry="0.00" width="9.26" height="9.26"/>
    <rect x="98.1618" y="67.2794" rx="0.00" ry="0.00" width="9.26" height="9.26"/>
    <rect x="98.1618" y="56.9853" rx="0.00" ry="0.00" width="9.26" height="9.26"/>
    <rect x="98.1618" y="46.6912" rx="0.00" ry="0.00" width="9.26" height="9.26"/>
    <rect x="98.1618" y="36.3971" rx="0.00" ry="0.00" width="9.26" height="9.26"/>
    <rect x="98.1618" y="26.1029" rx="0.00" ry="0.00" width="9.26" height="9.26"/>
    <rect x="98.1618" y="15.8088" rx="0.00" ry="0.00" width="9.26" height="9.26"/>
    <rect x="98.1618" y="5.5147" rx="0.00" ry="0.00" width="9.26" height="9.26"/>
    <rect x="108.4559" y="98.1618" rx="0.00" ry="0.00" width="9.26" height="9.26"/>
    <rect x="108.4559" y="87.8676" rx="0.00" ry="0.00" width="9.26" height="9.26"/>
    <rect x="108.4559" y="77.5735" rx="0.00" ry="0.00" width="9.26" height="9.26"/>
    <rect x="108.4559" y="67.2794" rx="0.00" ry="0.00" width="9.26" height="9.26"/>
    <rect x="108.4559" y="56.9853" rx="0.00" ry="0.00" width="9.26" height="9.26"/>
    <rect x="108.4559" y="46.6912" rx="0.00" ry="0.00" width="9.26" height="9.26"/>
    <rect x="108.4559" y="36.3971" rx="0.00" ry="0.00" width="9.26" height="9.26"/>
    <rect x="108.4559" y="26.1029" rx="0.00" ry="0.00" width="9.26" height="9.26"/>
    <rect x="108.4559" y="15.8088" rx="0.00" ry="0.00" width="9.26" height="9.26"/>
    <rect x="108.4559" y="5.5147" rx="0.00" ry="0.00" width="9.26" height="9.26"/>
    <rect x="118.7500" y="98.1618" rx="0.00" ry="0.00" width="9.26" height="9.26"/>
    <rect x="118.7500" y="87.8676" rx="0.00" ry="0.00" width="9.26" height="9.26"/>
    <rect x="118.7500" y="77.5735" rx="0.00" ry="0.00" width="9.26" height="9.26"/>
    <rect x="118.7500" y="67.2794" rx="0.00" ry="0.00" width="9.26" height="9.26"/>
    <rect x="118.7500" y="56.9853" rx="0.00" ry="0.00" width="9.26" height="9.26"/>
    <rect x="118.7500" y="46.6912" rx="0.00" ry="0.00" width="9.26" height="9.26"/>
    <rect x="118.7500" y="36.3971" rx="0.00" ry="0.00" width="9.26" height="9.26"/>
    <rect x="118.7500" y="26.1029" rx="0.00" ry="0.00" width="9.26" height="9.26"/>
    <rect x="118.7500" y="15.8088" rx="0.00" ry="0.00" width="9.26" height="9.26"/>
    <rect x="118.7500" y="5.5147" rx="0.00" ry="0.00" width="9.26" height="9.26"/>
    <rect x="129.0441" y="98.1618" rx="0.00" ry="0.00" width="9.26" height="9.26"/>
    <rect x="129.0441" y="87.8676" rx="0.00" ry="0.00" width="9.26" height="9.26"/>
    <rect x="129.0441" y="77.5735" rx="0.00" ry="0.00" width="9.26" height="9.26"/>
    <rect x="129.0441" y="67.2794" rx="0.00" ry="0.00" width="9.26" height="9.26"/>
    <rect x="129.0441" y="56.9853" rx="0.00" ry="0.00" width="9.26" height="9.26"/>
    <rect x="129.0441" y="46.6912" rx="0.00" ry="0.00" width="9.26" height="9.26"/>
    <rect x="129.0441" y="36.3971" rx="0.00" ry="0.00" width="9.26" height="9.26"/>
    <rect x="129.0441" y="26.1029" rx="0.00" ry="0.00" width="9.26" height="9.26"/>
    <rect x="129.0441" y="15.8088" rx="0.00" ry="0.00" width="9.26" height="9.26"/>
    <rect x="129.0441" y="5.5147" rx="0.00" ry="0.00" width="9.26" height="9.26"/>
    <rect x="139.3382" y="98.1618" rx="0.00" ry="0.00" width="9.26" height="9.26"/>
    <rect x="139.3382" y="87.8676" rx="0.00" ry="0.00" width="9.26" height="9.26"/>
    <rect x="139.3382" y="77.5735" rx="0.00" ry="0.00" width="9.26" height="9.26"/>
    <rect x="139.3382" y="67.2794" rx="0.00" ry="0.00" width="9.26" height="9.26"/>
    <rect x="139.3382" y="56.9853" rx="0.00" ry="0.00" width="9.26" height="9.26"/>
    <rect x="139.3382" y="46.6912" rx="0.00" ry="0.00" width="9.26" height="9.26"/>
    <rect x="139.3382" y="36.3971" rx="0.00" ry="0.00" width="9.26" height="9.26"/>
    <rect x="139.3382" y="26.1029" rx="0.00" ry="0.00" width="9.26" height="9.26"/>
    <rect x="139.3382" y="15.8088" rx="0.00" ry="0.00" width="9.26" height="9.26"/>
    <rect x="139.3382" y="5.5147" rx="0.00" ry="0.00" width="9.26" height="9.26"/>
    <rect x="149.6324" y="98.1618" rx="0.00" ry="0.00" width="9.26" height="9.26"/>
    <rect x="149.6324" y="87.8676" rx="0.00" ry="0.00" width="9.26" height="9.26"/>
    <rect x="149.6324" y="77.5735" rx="0.00" ry="0.00" width="9.26" height="9.26"/>
    <rect x="149.6324" y="67.2794" rx="0.00" ry="0.00" width="9.26" height="9.26"/>
    <rect x="149.6324" y="56.9853" rx="0.00" ry="0.00" width="9.26" height="9.26"/>
    <rect x="149.6324" y="46.6912" rx="0.00" ry="0.00" width="9.26" height="9.26"/>
    <rect x="149.6324" y="36.3971" rx="0.00" ry="0.00" width="9.26" height="9.26"/>
    <rect x="149.6324" y="26.1029" rx="0.00" ry="0.00" width="9.26" height="9.26"/>
    <rect x="149.6324" y="15.8088" rx="0.00" ry="0.00" width="9.26" height="9.26"/>
    <rect x="149.6324" y="5.5147" rx="0.00" ry="0.00" width="9.26" height="9.26"/>
    <rect x="159.9265" y="98.1618" rx="0.00" ry="0.00" width="9.26" height="9.26"/>
    <rect x="159.9265" y="87.8676" rx="0.00" ry="0.00" width="9.26" height="9.26"/>
    <rect x="159.9265" y="77.5735" rx="0.00" ry="0.00" width="9.26" height="9.26"/>
    <rect x="159.9265" y="67.2794" rx="0.00" ry="0.00" width="9.26" height="9.26"/>
    <rect x="159.9265" y="56.9853" rx="0.00" ry="0.00" width="9.26" height="9.26"/>
    <rect x="159.9265" y="46.6912" rx="0.00" ry="0.00" width="9.26" height="9.26"/>
    <rect x="159.9265" y="36.3971" rx="0.00" ry="0.00" width="9.26" height="9.26"/>
    <rect x="159.9265" y="26.1029" rx="0.00" ry="0.00" width="9.26" height="9.26"/>
    <rect x="159.9265" y="15.8088" rx="0.00" ry="0.00" width="9.26" height="9.26"/>
    <rect x="159.9265" y="5.5147" rx="0.00" ry="0.00" width="9.26" height="9.26"/>
    <rect x="170.2206" y="98.1618" rx="0.00" ry="0.00" width="9.26" height="9.26"/>
    <rect x="170.2206" y="87.8676" rx="0.00" ry="0.00" width="9.26" height="9.26"/>
    <rect x="170.2206" y="77.5735" rx="0.00" ry="0.00" width="9.26" height="9.26"/>
    <rect x="170.2206" y="67.2794" rx="0.00" ry="0.00" width="9.26" height="9.26"/>
    <rect x="170.2206" y="56.9853" rx="0.00" ry="0.00" width="9.26" height="9.26"/>
    <rect x="170.2206" y="46.6912" rx="0.00" ry="0.00" width="9.26" height="9.26"/>
    <rect x="170.2206" y="36.3971" rx="0.00" ry="0.00" width="9.26" height="9.26"/>
    <rect x="170.2206" y="26.1029" rx="0.00" ry="0.00" width="9.26" height="9.26"/>
    <rect x="170.2206" y="15.8088" rx="0.00" ry="0.00" width="9.26" height="9.26"/>
    <rect x="170.2206" y="5.5147" rx="0.00" ry="0.00" width="9.26" height="9.26"/>
    <rect x="180.5147" y="98.1618" rx="0.00" ry="0.00" width="9.26" height="9.26"/>
    <rect x="180.5147" y="87.8676" rx="0.00" ry="0.00" width="9.26" height="9.26"/>
    <rect x="180.5147" y="77.5735" rx="0.00" ry="0.00" width="9.26" height="9.26"/>
    <rect x="180.5147" y="67.2794" rx="0.00" ry="0.00" width="9.26" height="9.26"/>
    <rect x="180.5147" y="56.9853" rx="0.00" ry="0.00" width="9.26" height="9.26"/>
    <rect x="180.5147" y="46.6912" rx="0.00" ry="0.00" width="9.26" height="9.26"/>
    <rect x="180.5147" y="36.3971" rx="0.00" ry="0.00" width="9.26" height="9.26"/>
    <rect x="180.5147" y="26.1029" rx="0.00" ry="0.00" width="9.26" height="9.26"/>
    <rect x="180.5147" y="15.8088" rx="0.00" ry="0.00" width="9.26" height="9.26"/>
    <rect x="180.5147" y="5.5147" rx="0.00" ry="0.00" width="9.26" height="9.26"/>
    <rect x="190.8088" y="98.1618" rx="0.00" ry="0.00" width="9.26" height="9.26"/>
    <rect x="190.8088" y="87.8676" rx="0.00" ry="0.00" width="9.26" height="9.26"/>
    <rect x="190.8088" y="77.5735" rx="0.00" ry="0.00" width="9.26" height="9.26"/>
    <rect x="190.8088" y="67.2794" rx="0.00" ry="0.00" width="9.26" height="9.26"/>
    <rect x="190.8088" y="56.9853" rx="0.00" ry="0.00" width="9.26" height="9.26"/>
    <rect x="190.8088" y="46.6912" rx="0.00" ry="0.00" width="9.26" height="9.26"/>
    <rect x="190.8088" y="36.3971" rx="0.00" ry="0.00" width="9.26" height="9.26"/>
    <rect x="190.8088" y="26.1029" rx="0.00" ry="0.00" width="9.26" height="9.26"/>
    <rect x="190.8088" y="15.8088" rx="0.00" ry="0.00" width="9.26" height="9.26"/>
    <rect x="190.8088" y="5.5147" rx="0.00" ry="0.00" width="9.26" height="9.26"/>
    <rect x="201.1029" y="98.1618" rx="0.00" ry="0.00" width="9.26" height="9.26"/>
    <rect x="201.1029" y="87.8676" rx="0.00" ry="0.00" width="9.26" height="9.26"/>
    <rect x="201.1029" y="77.5735" rx="0.00" ry="0.00" width="9.26" height="9.26"/>
    <rect x="201.1029" y="67.2794" rx="0.00" ry="0.00" width="9.26" height="9.26"/>
    <rect x="201.1029" y="56.9853" rx="0.00" ry="0.00" width="9.26" height="9.26"/>
    <rect x="201.1029" y="46.6912" rx="0.00" ry="0.00" width="9.26" height="9.26"/>
    <rect x="201.1029" y="36.3971" rx="0.00" ry="0.00" width="9.26" height="9.26"/>
    <rect x="201.1029" y="26.1029" rx="0.00" ry="0.00" width="9.26" height="9.26"/>
    <rect x="201.1029" y="15.8088" rx="0.00" ry="0.00" width="9.26" height="9.26"/>
    <rect x="201.1029" y="5.5147" rx="0.00" ry="0.00" width="9.26" height="9.26"/>
    <rect x="211.3971" y="98.1618" rx="0.00" ry="0.00" width="9.26" height="9.26"/>
    <rect x="211.3971" y="87.8676" rx="0.00" ry="0.00" width="9.26" height="9.26"/>
    <rect x="211.3971" y="77.5735" rx="0.00" ry="0.00" width="9.26" height="9.26"/>
    <rect x="211.3971" y="67.2794" rx="0.00" ry="0.00" width="9.26" height="9.26"/>
    <rect x="211.3971" y="56.9853" rx="0.00" ry="0.00" width="9.26" height="9.26"/>
    <rect x="211.3971" y="46.6912" rx="0.00" ry="0.00" width="9.26" height="9.26"/>
    <rect x="211.3971" y="36.3971" rx="0.00" ry="0.00" width="9.26" height="9.26"/>
  </g>
  <g style="fill:#87CEFA" id="BQ">
    <rect x="211.3971" y="26.1029" rx="0.00" ry="0.00" width="9.26" height="9.26"/>
    <rect x="211.3971" y="15.8088" rx="0.00" ry="0.00" width="9.26" height="9.26"/>
    <rect x="211.3971" y="5.5147" rx="0.00" ry="0.00" width="9.26" height="9.26"/>
    <rect x="221.6912" y="98.1618" rx="0.00" ry="0.00" width="9.26" height="9.26"/>
    <rect x="221.6912" y="87.8676" rx="0.00" ry="0.00" width="9.26" height="9.26"/>
    <rect x="221.6912" y="77.5735" rx="0.00" ry="0.00" width="9.26" height="9.26"/>
    <rect x="221.6912" y="67.2794" rx="0.00" ry="0.00" width="9.26" height="9.26"/>
    <rect x="221.6912" y="56.9853" rx="0.00" ry="0.00" width="9.26" height="9.26"/>
    <rect x="221.6912" y="46.6912" rx="0.00" ry="0.00" width="9.26" height="9.26"/>
    <rect x="221.6912" y="36.3971" rx="0.00" ry="0.00" width="9.26" height="9.26"/>
    <rect x="221.6912" y="26.1029" rx="0.00" ry="0.00" width="9.26" height="9.26"/>
    <rect x="221.6912" y="15.8088" rx="0.00" ry="0.00" width="9.26" height="9.26"/>
    <rect x="221.6912" y="5.5147" rx="0.00" ry="0.00" width="9.26" height="9.26"/>
    <rect x="231.9853" y="98.1618" rx="0.00" ry="0.00" width="9.26" height="9.26"/>
    <rect x="231.9853" y="87.8676" rx="0.00" ry="0.00" width="9.26" height="9.26"/>
    <rect x="231.9853" y="77.5735" rx="0.00" ry="0.00" width="9.26" height="9.26"/>
    <rect x="231.9853" y="67.2794" rx="0.00" ry="0.00" width="9.26" height="9.26"/>
    <rect x="231.9853" y="56.9853" rx="0.00" ry="0.00" width="9.26" height="9.26"/>
    <rect x="231.9853" y="46.6912" rx="0.00" ry="0.00" width="9.26" height="9.26"/>
    <rect x="231.9853" y="36.3971" rx="0.00" ry="0.00" width="9.26" height="9.26"/>
    <rect x="231.9853" y="26.1029" rx="0.00" ry="0.00" width="9.26" height="9.26"/>
    <rect x="231.9853" y="15.8088" rx="0.00" ry="0.00" width="9.26" height="9.26"/>
    <rect x="231.9853" y="5.5147" rx="0.00" ry="0.00" width="9.26" height="9.26"/>
    <rect x="242.2794" y="98.1618" rx="0.00" ry="0.00" width="9.26" height="9.26"/>
    <rect x="242.2794" y="87.8676" rx="0.00" ry="0.00" width="9.26" height="9.26"/>
    <rect x="242.2794" y="77.5735" rx="0.00" ry="0.00" width="9.26" height="9.26"/>
    <rect x="242.2794" y="67.2794" rx="0.00" ry="0.00" width="9.26" height="9.26"/>
    <rect x="242.2794" y="56.9853" rx="0.00" ry="0.00" width="9.26" height="9.26"/>
    <rect x="242.2794" y="46.6912" rx="0.00" ry="0.00" width="9.26" height="9.26"/>
    <rect x="242.2794" y="36.3971" rx="0.00" ry="0.00" width="9.26" height="9.26"/>
    <rect x="242.2794" y="26.1029" rx="0.00" ry="0.00" width="9.26" height="9.26"/>
    <rect x="242.2794" y="15.8088" rx="0.00" ry="0.00" width="9.26" height="9.26"/>
    <rect x="242.2794" y="5.5147" rx="0.00" ry="0.00" width="9.26" height="9.26"/>
    <rect x="252.5735" y="98.1618" rx="0.00" ry="0.00" width="9.26" height="9.26"/>
    <rect x="252.5735" y="87.8676" rx="0.00" ry="0.00" width="9.26" height="9.26"/>
    <rect x="252.5735" y="77.5735" rx="0.00" ry="0.00" width="9.26" height="9.26"/>
    <rect x="252.5735" y="67.2794" rx="0.00" ry="0.00" width="9.26" height="9.26"/>
    <rect x="252.5735" y="56.9853" rx="0.00" ry="0.00" width="9.26" height="9.26"/>
    <rect x="252.5735" y="46.6912" rx="0.00" ry="0.00" width="9.26" height="9.26"/>
    <rect x="252.5735" y="36.3971" rx="0.00" ry="0.00" width="9.26" height="9.26"/>
    <rect x="252.5735" y="26.1029" rx="0.00" ry="0.00" width="9.26" height="9.26"/>
    <rect x="252.5735" y="15.8088" rx="0.00" ry="0.00" width="9.26" height="9.26"/>
    <rect x="252.5735" y="5.5147" rx="0.00" ry="0.00" width="9.26" height="9.26"/>
    <rect x="262.8676" y="98.1618" rx="0.00" ry="0.00" width="9.26" height="9.26"/>
  </g>
  <g style="fill:#DCDCDC" id="IND">
    <rect x="262.8676" y="87.8676" rx="0.00" ry="0.00" width="9.26" height="9.26"/>
  </g>
  </g>
  <g id="rightbench">
  <g style="fill:#EA6D6A" id="LPC">
    <rect x="15.8088" y="129.0441" rx="0.00" ry="0.00" width="9.26" height="9.26"/>
    <rect x="15.8088" y="139.3382" rx="0.00" ry="0.00" width="9.26" height="9.26"/>
    <rect x="15.8088" y="149.6324" rx="0.00" ry="0.00" width="9.26" height="9.26"/>
    <rect x="15.8088" y="159.9265" rx="0.00" ry="0.00" width="9.26" height="9.26"/>
    <rect x="15.8088" y="170.2206" rx="0.00" ry="0.00" width="9.26" height="9.26"/>
    <rect x="15.8088" y="180.5147" rx="0.00" ry="0.00" width="9.26" height="9.26"/>
    <rect x="15.8088" y="190.8088" rx="0.00" ry="0.00" width="9.26" height="9.26"/>
    <rect x="15.8088" y="201.1029" rx="0.00" ry="0.00" width="9.26" height="9.26"/>
    <rect x="15.8088" y="211.3971" rx="0.00" ry="0.00" width="9.26" height="9.26"/>
    <rect x="15.8088" y="221.6912" rx="0.00" ry="0.00" width="9.26" height="9.26"/>
    <rect x="26.1029" y="129.0441" rx="0.00" ry="0.00" width="9.26" height="9.26"/>
    <rect x="26.1029" y="139.3382" rx="0.00" ry="0.00" width="9.26" height="9.26"/>
    <rect x="26.1029" y="149.6324" rx="0.00" ry="0.00" width="9.26" height="9.26"/>
    <rect x="26.1029" y="159.9265" rx="0.00" ry="0.00" width="9.26" height="9.26"/>
    <rect x="26.1029" y="170.2206" rx="0.00" ry="0.00" width="9.26" height="9.26"/>
    <rect x="26.1029" y="180.5147" rx="0.00" ry="0.00" width="9.26" height="9.26"/>
    <rect x="26.1029" y="190.8088" rx="0.00" ry="0.00" width="9.26" height="9.26"/>
    <rect x="26.1029" y="201.1029" rx="0.00" ry="0.00" width="9.26" height="9.26"/>
    <rect x="26.1029" y="211.3971" rx="0.00" ry="0.00" width="9.26" height="9.26"/>
    <rect x="26.1029" y="221.6912" rx="0.00" ry="0.00" width="9.26" height="9.26"/>
    <rect x="36.3971" y="129.0441" rx="0.00" ry="0.00" width="9.26" height="9.26"/>
    <rect x="36.3971" y="139.3382" rx="0.00" ry="0.00" width="9.26" height="9.26"/>
    <rect x="36.3971" y="149.6324" rx="0.00" ry="0.00" width="9.26" height="9.26"/>
    <rect x="36.3971" y="159.9265" rx="0.00" ry="0.00" width="9.26" height="9.26"/>
    <rect x="36.3971" y="170.2206" rx="0.00" ry="0.00" width="9.26" height="9.26"/>
    <rect x="36.3971" y="180.5147" rx="0.00" ry="0.00" width="9.26" height="9.26"/>
    <rect x="36.3971" y="190.8088" rx="0.00" ry="0.00" width="9.26" height="9.26"/>
    <rect x="36.3971" y="201.1029" rx="0.00" ry="0.00" width="9.26" height="9.26"/>
    <rect x="36.3971" y="211.3971" rx="0.00" ry="0.00" width="9.26" height="9.26"/>
    <rect x="36.3971" y="221.6912" rx="0.00" ry="0.00" width="9.26" height="9.26"/>
    <rect x="46.6912" y="129.0441" rx="0.00" ry="0.00" width="9.26" height="9.26"/>
    <rect x="46.6912" y="139.3382" rx="0.00" ry="0.00" width="9.26" height="9.26"/>
    <rect x="46.6912" y="149.6324" rx="0.00" ry="0.00" width="9.26" height="9.26"/>
    <rect x="46.6912" y="159.9265" rx="0.00" ry="0.00" width="9.26" height="9.26"/>
    <rect x="46.6912" y="170.2206" rx="0.00" ry="0.00" width="9.26" height="9.26"/>
    <rect x="46.6912" y="180.5147" rx="0.00" ry="0.00" width="9.26" height="9.26"/>
    <rect x="46.6912" y="190.8088" rx="0.00" ry="0.00" width="9.26" height="9.26"/>
    <rect x="46.6912" y="201.1029" rx="0.00" ry="0.00" width="9.26" height="9.26"/>
    <rect x="46.6912" y="211.3971" rx="0.00" ry="0.00" width="9.26" height="9.26"/>
    <rect x="46.6912" y="221.6912" rx="0.00" ry="0.00" width="9.26" height="9.26"/>
    <rect x="56.9853" y="129.0441" rx="0.00" ry="0.00" width="9.26" height="9.26"/>
    <rect x="56.9853" y="139.3382" rx="0.00" ry="0.00" width="9.26" height="9.26"/>
    <rect x="56.9853" y="149.6324" rx="0.00" ry="0.00" width="9.26" height="9.26"/>
    <rect x="56.9853" y="159.9265" rx="0.00" ry="0.00" width="9.26" height="9.26"/>
    <rect x="56.9853" y="170.2206" rx="0.00" ry="0.00" width="9.26" height="9.26"/>
    <rect x="56.9853" y="180.5147" rx="0.00" ry="0.00" width="9.26" height="9.26"/>
    <rect x="56.9853" y="190.8088" rx="0.00" ry="0.00" width="9.26" height="9.26"/>
    <rect x="56.9853" y="201.1029" rx="0.00" ry="0.00" width="9.26" height="9.26"/>
    <rect x="56.9853" y="211.3971" rx="0.00" ry="0.00" width="9.26" height="9.26"/>
    <rect x="56.9853" y="221.6912" rx="0.00" ry="0.00" width="9.26" height="9.26"/>
    <rect x="67.2794" y="129.0441" rx="0.00" ry="0.00" width="9.26" height="9.26"/>
    <rect x="67.2794" y="139.3382" rx="0.00" ry="0.00" width="9.26" height="9.26"/>
    <rect x="67.2794" y="149.6324" rx="0.00" ry="0.00" width="9.26" height="9.26"/>
    <rect x="67.2794" y="159.9265" rx="0.00" ry="0.00" width="9.26" height="9.26"/>
    <rect x="67.2794" y="170.2206" rx="0.00" ry="0.00" width="9.26" height="9.26"/>
    <rect x="67.2794" y="180.5147" rx="0.00" ry="0.00" width="9.26" height="9.26"/>
    <rect x="67.2794" y="190.8088" rx="0.00" ry="0.00" width="9.26" height="9.26"/>
    <rect x="67.2794" y="201.1029" rx="0.00" ry="0.00" width="9.26" height="9.26"/>
    <rect x="67.2794" y="211.3971" rx="0.00" ry="0.00" width="9.26" height="9.26"/>
    <rect x="67.2794" y="221.6912" rx="0.00" ry="0.00" width="9.26" height="9.26"/>
    <rect x="77.5735" y="129.0441" rx="0.00" ry="0.00" width="9.26" height="9.26"/>
    <rect x="77.5735" y="139.3382" rx="0.00" ry="0.00" width="9.26" height="9.26"/>
    <rect x="77.5735" y="149.6324" rx="0.00" ry="0.00" width="9.26" height="9.26"/>
    <rect x="77.5735" y="159.9265" rx="0.00" ry="0.00" width="9.26" height="9.26"/>
    <rect x="77.5735" y="170.2206" rx="0.00" ry="0.00" width="9.26" height="9.26"/>
    <rect x="77.5735" y="180.5147" rx="0.00" ry="0.00" width="9.26" height="9.26"/>
    <rect x="77.5735" y="190.8088" rx="0.00" ry="0.00" width="9.26" height="9.26"/>
    <rect x="77.5735" y="201.1029" rx="0.00" ry="0.00" width="9.26" height="9.26"/>
    <rect x="77.5735" y="211.3971" rx="0.00" ry="0.00" width="9.26" height="9.26"/>
    <rect x="77.5735" y="221.6912" rx="0.00" ry="0.00" width="9.26" height="9.26"/>
    <rect x="87.8676" y="129.0441" rx="0.00" ry="0.00" width="9.26" height="9.26"/>
    <rect x="87.8676" y="139.3382" rx="0.00" ry="0.00" width="9.26" height="9.26"/>
    <rect x="87.8676" y="149.6324" rx="0.00" ry="0.00" width="9.26" height="9.26"/>
    <rect x="87.8676" y="159.9265" rx="0.00" ry="0.00" width="9.26" height="9.26"/>
    <rect x="87.8676" y="170.2206" rx="0.00" ry="0.00" width="9.26" height="9.26"/>
    <rect x="87.8676" y="180.5147" rx="0.00" ry="0.00" width="9.26" height="9.26"/>
    <rect x="87.8676" y="190.8088" rx="0.00" ry="0.00" width="9.26" height="9.26"/>
    <rect x="87.8676" y="201.1029" rx="0.00" ry="0.00" width="9.26" height="9.26"/>
    <rect x="87.8676" y="211.3971" rx="0.00" ry="0.00" width="9.26" height="9.26"/>
    <rect x="87.8676" y="221.6912" rx="0.00" ry="0.00" width="9.26" height="9.26"/>
    <rect x="98.1618" y="129.0441" rx="0.00" ry="0.00" width="9.26" height="9.26"/>
    <rect x="98.1618" y="139.3382" rx="0.00" ry="0.00" width="9.26" height="9.26"/>
    <rect x="98.1618" y="149.6324" rx="0.00" ry="0.00" width="9.26" height="9.26"/>
    <rect x="98.1618" y="159.9265" rx="0.00" ry="0.00" width="9.26" height="9.26"/>
    <rect x="98.1618" y="170.2206" rx="0.00" ry="0.00" width="9.26" height="9.26"/>
    <rect x="98.1618" y="180.5147" rx="0.00" ry="0.00" width="9.26" height="9.26"/>
    <rect x="98.1618" y="190.8088" rx="0.00" ry="0.00" width="9.26" height="9.26"/>
    <rect x="98.1618" y="201.1029" rx="0.00" ry="0.00" width="9.26" height="9.26"/>
    <rect x="98.1618" y="211.3971" rx="0.00" ry="0.00" width="9.26" height="9.26"/>
    <rect x="98.1618" y="221.6912" rx="0.00" ry="0.00" width="9.26" height="9.26"/>
    <rect x="108.4559" y="129.0441" rx="0.00" ry="0.00" width="9.26" height="9.26"/>
    <rect x="108.4559" y="139.3382" rx="0.00" ry="0.00" width="9.26" height="9.26"/>
    <rect x="108.4559" y="149.6324" rx="0.00" ry="0.00" width="9.26" height="9.26"/>
    <rect x="108.4559" y="159.9265" rx="0.00" ry="0.00" width="9.26" height="9.26"/>
    <rect x="108.4559" y="170.2206" rx="0.00" ry="0.00" width="9.26" height="9.26"/>
    <rect x="108.4559" y="180.5147" rx="0.00" ry="0.00" width="9.26" height="9.26"/>
    <rect x="108.4559" y="190.8088" rx="0.00" ry="0.00" width="9.26" height="9.26"/>
    <rect x="108.4559" y="201.1029" rx="0.00" ry="0.00" width="9.26" height="9.26"/>
    <rect x="108.4559" y="211.3971" rx="0.00" ry="0.00" width="9.26" height="9.26"/>
    <rect x="108.4559" y="221.6912" rx="0.00" ry="0.00" width="9.26" height="9.26"/>
    <rect x="118.7500" y="129.0441" rx="0.00" ry="0.00" width="9.26" height="9.26"/>
    <rect x="118.7500" y="139.3382" rx="0.00" ry="0.00" width="9.26" height="9.26"/>
    <rect x="118.7500" y="149.6324" rx="0.00" ry="0.00" width="9.26" height="9.26"/>
    <rect x="118.7500" y="159.9265" rx="0.00" ry="0.00" width="9.26" height="9.26"/>
    <rect x="118.7500" y="170.2206" rx="0.00" ry="0.00" width="9.26" height="9.26"/>
    <rect x="118.7500" y="180.5147" rx="0.00" ry="0.00" width="9.26" height="9.26"/>
    <rect x="118.7500" y="190.8088" rx="0.00" ry="0.00" width="9.26" height="9.26"/>
    <rect x="118.7500" y="201.1029" rx="0.00" ry="0.00" width="9.26" height="9.26"/>
    <rect x="118.7500" y="211.3971" rx="0.00" ry="0.00" width="9.26" height="9.26"/>
    <rect x="118.7500" y="221.6912" rx="0.00" ry="0.00" width="9.26" height="9.26"/>
    <rect x="129.0441" y="129.0441" rx="0.00" ry="0.00" width="9.26" height="9.26"/>
    <rect x="129.0441" y="139.3382" rx="0.00" ry="0.00" width="9.26" height="9.26"/>
    <rect x="129.0441" y="149.6324" rx="0.00" ry="0.00" width="9.26" height="9.26"/>
    <rect x="129.0441" y="159.9265" rx="0.00" ry="0.00" width="9.26" height="9.26"/>
    <rect x="129.0441" y="170.2206" rx="0.00" ry="0.00" width="9.26" height="9.26"/>
    <rect x="129.0441" y="180.5147" rx="0.00" ry="0.00" width="9.26" height="9.26"/>
    <rect x="129.0441" y="190.8088" rx="0.00" ry="0.00" width="9.26" height="9.26"/>
    <rect x="129.0441" y="201.1029" rx="0.00" ry="0.00" width="9.26" height="9.26"/>
    <rect x="129.0441" y="211.3971" rx="0.00" ry="0.00" width="9.26" height="9.26"/>
    <rect x="129.0441" y="221.6912" rx="0.00" ry="0.00" width="9.26" height="9.26"/>
    <rect x="139.3382" y="129.0441" rx="0.00" ry="0.00" width="9.26" height="9.26"/>
    <rect x="139.3382" y="139.3382" rx="0.00" ry="0.00" width="9.26" height="9.26"/>
    <rect x="139.3382" y="149.6324" rx="0.00" ry="0.00" width="9.26" height="9.26"/>
    <rect x="139.3382" y="159.9265" rx="0.00" ry="0.00" width="9.26" height="9.26"/>
    <rect x="139.3382" y="170.2206" rx="0.00" ry="0.00" width="9.26" height="9.26"/>
    <rect x="139.3382" y="180.5147" rx="0.00" ry="0.00" width="9.26" height="9.26"/>
    <rect x="139.3382" y="190.8088" rx="0.00" ry="0.00" width="9.26" height="9.26"/>
    <rect x="139.3382" y="201.1029" rx="0.00" ry="0.00" width="9.26" height="9.26"/>
    <rect x="139.3382" y="211.3971" rx="0.00" ry="0.00" width="9.26" height="9.26"/>
    <rect x="139.3382" y="221.6912" rx="0.00" ry="0.00" width="9.26" height="9.26"/>
    <rect x="149.6324" y="129.0441" rx="0.00" ry="0.00" width="9.26" height="9.26"/>
    <rect x="149.6324" y="139.3382" rx="0.00" ry="0.00" width="9.26" height="9.26"/>
    <rect x="149.6324" y="149.6324" rx="0.00" ry="0.00" width="9.26" height="9.26"/>
    <rect x="149.6324" y="159.9265" rx="0.00" ry="0.00" width="9.26" height="9.26"/>
    <rect x="149.6324" y="170.2206" rx="0.00" ry="0.00" width="9.26" height="9.26"/>
    <rect x="149.6324" y="180.5147" rx="0.00" ry="0.00" width="9.26" height="9.26"/>
    <rect x="149.6324" y="190.8088" rx="0.00" ry="0.00" width="9.26" height="9.26"/>
    <rect x="149.6324" y="201.1029" rx="0.00" ry="0.00" width="9.26" height="9.26"/>
    <rect x="149.6324" y="211.3971" rx="0.00" ry="0.00" width="9.26" height="9.26"/>
    <rect x="149.6324" y="221.6912" rx="0.00" ry="0.00" width="9.26" height="9.26"/>
    <rect x="159.9265" y="129.0441" rx="0.00" ry="0.00" width="9.26" height="9.26"/>
    <rect x="159.9265" y="139.3382" rx="0.00" ry="0.00" width="9.26" height="9.26"/>
    <rect x="159.9265" y="149.6324" rx="0.00" ry="0.00" width="9.26" height="9.26"/>
    <rect x="159.9265" y="159.9265" rx="0.00" ry="0.00" width="9.26" height="9.26"/>
    <rect x="159.9265" y="170.2206" rx="0.00" ry="0.00" width="9.26" height="9.26"/>
    <rect x="159.9265" y="180.5147" rx="0.00" ry="0.00" width="9.26" height="9.26"/>
    <rect x="159.9265" y="190.8088" rx="0.00" ry="0.00" width="9.26" height="9.26"/>
    <rect x="159.9265" y="201.1029" rx="0.00" ry="0.00" width="9.26" height="9.26"/>
    <rect x="159.9265" y="211.3971" rx="0.00" ry="0.00" width="9.26" height="9.26"/>
    <rect x="159.9265" y="221.6912" rx="0.00" ry="0.00" width="9.26" height="9.26"/>
    <rect x="170.2206" y="129.0441" rx="0.00" ry="0.00" width="9.26" height="9.26"/>
    <rect x="170.2206" y="139.3382" rx="0.00" ry="0.00" width="9.26" height="9.26"/>
    <rect x="170.2206" y="149.6324" rx="0.00" ry="0.00" width="9.26" height="9.26"/>
    <rect x="170.2206" y="159.9265" rx="0.00" ry="0.00" width="9.26" height="9.26"/>
    <rect x="170.2206" y="170.2206" rx="0.00" ry="0.00" width="9.26" height="9.26"/>
    <rect x="170.2206" y="180.5147" rx="0.00" ry="0.00" width="9.26" height="9.26"/>
    <rect x="170.2206" y="190.8088" rx="0.00" ry="0.00" width="9.26" height="9.26"/>
    <rect x="170.2206" y="201.1029" rx="0.00" ry="0.00" width="9.26" height="9.26"/>
    <rect x="170.2206" y="211.3971" rx="0.00" ry="0.00" width="9.26" height="9.26"/>
    <rect x="170.2206" y="221.6912" rx="0.00" ry="0.00" width="9.26" height="9.26"/>
    <rect x="180.5147" y="129.0441" rx="0.00" ry="0.00" width="9.26" height="9.26"/>
    <rect x="180.5147" y="139.3382" rx="0.00" ry="0.00" width="9.26" height="9.26"/>
    <rect x="180.5147" y="149.6324" rx="0.00" ry="0.00" width="9.26" height="9.26"/>
    <rect x="180.5147" y="159.9265" rx="0.00" ry="0.00" width="9.26" height="9.26"/>
    <rect x="180.5147" y="170.2206" rx="0.00" ry="0.00" width="9.26" height="9.26"/>
    <rect x="180.5147" y="180.5147" rx="0.00" ry="0.00" width="9.26" height="9.26"/>
    <rect x="180.5147" y="190.8088" rx="0.00" ry="0.00" width="9.26" height="9.26"/>
    <rect x="180.5147" y="201.1029" rx="0.00" ry="0.00" width="9.26" height="9.26"/>
    <rect x="180.5147" y="211.3971" rx="0.00" ry="0.00" width="9.26" height="9.26"/>
    <rect x="180.5147" y="221.6912" rx="0.00" ry="0.00" width="9.26" height="9.26"/>
    <rect x="190.8088" y="129.0441" rx="0.00" ry="0.00" width="9.26" height="9.26"/>
    <rect x="190.8088" y="139.3382" rx="0.00" ry="0.00" width="9.26" height="9.26"/>
    <rect x="190.8088" y="149.6324" rx="0.00" ry="0.00" width="9.26" height="9.26"/>
    <rect x="190.8088" y="159.9265" rx="0.00" ry="0.00" width="9.26" height="9.26"/>
    <rect x="190.8088" y="170.2206" rx="0.00" ry="0.00" width="9.26" height="9.26"/>
    <rect x="190.8088" y="180.5147" rx="0.00" ry="0.00" width="9.26" height="9.26"/>
    <rect x="190.8088" y="190.8088" rx="0.00" ry="0.00" width="9.26" height="9.26"/>
    <rect x="190.8088" y="201.1029" rx="0.00" ry="0.00" width="9.26" height="9.26"/>
    <rect x="190.8088" y="211.3971" rx="0.00" ry="0.00" width="9.26" height="9.26"/>
    <rect x="190.8088" y="221.6912" rx="0.00" ry="0.00" width="9.26" height="9.26"/>
    <rect x="201.1029" y="129.0441" rx="0.00" ry="0.00" width="9.26" height="9.26"/>
    <rect x="201.1029" y="139.3382" rx="0.00" ry="0.00" width="9.26" height="9.26"/>
    <rect x="201.1029" y="149.6324" rx="0.00" ry="0.00" width="9.26" height="9.26"/>
    <rect x="201.1029" y="159.9265" rx="0.00" ry="0.00" width="9.26" height="9.26"/>
    <rect x="201.1029" y="170.2206" rx="0.00" ry="0.00" width="9.26" height="9.26"/>
    <rect x="201.1029" y="180.5147" rx="0.00" ry="0.00" width="9.26" height="9.26"/>
    <rect x="201.1029" y="190.8088" rx="0.00" ry="0.00" width="9.26" height="9.26"/>
    <rect x="201.1029" y="201.1029" rx="0.00" ry="0.00" width="9.26" height="9.26"/>
    <rect x="201.1029" y="211.3971" rx="0.00" ry="0.00" width="9.26" height="9.26"/>
    <rect x="201.1029" y="221.6912" rx="0.00" ry="0.00" width="9.26" height="9.26"/>
    <rect x="211.3971" y="129.0441" rx="0.00" ry="0.00" width="9.26" height="9.26"/>
  </g>
  <g style="fill:#F4A460" id="NDP">
    <rect x="211.3971" y="139.3382" rx="0.00" ry="0.00" width="9.26" height="9.26"/>
    <rect x="211.3971" y="149.6324" rx="0.00" ry="0.00" width="9.26" height="9.26"/>
    <rect x="211.3971" y="159.9265" rx="0.00" ry="0.00" width="9.26" height="9.26"/>
    <rect x="211.3971" y="170.2206" rx="0.00" ry="0.00" width="9.26" height="9.26"/>
    <rect x="211.3971" y="180.5147" rx="0.00" ry="0.00" width="9.26" height="9.26"/>
    <rect x="211.3971" y="190.8088" rx="0.00" ry="0.00" width="9.26" height="9.26"/>
    <rect x="211.3971" y="201.1029" rx="0.00" ry="0.00" width="9.26" height="9.26"/>
    <rect x="211.3971" y="211.3971" rx="0.00" ry="0.00" width="9.26" height="9.26"/>
    <rect x="211.3971" y="221.6912" rx="0.00" ry="0.00" width="9.26" height="9.26"/>
    <rect x="221.6912" y="129.0441" rx="0.00" ry="0.00" width="9.26" height="9.26"/>
    <rect x="221.6912" y="139.3382" rx="0.00" ry="0.00" width="9.26" height="9.26"/>
    <rect x="221.6912" y="149.6324" rx="0.00" ry="0.00" width="9.26" height="9.26"/>
    <rect x="221.6912" y="159.9265" rx="0.00" ry="0.00" width="9.26" height="9.26"/>
    <rect x="221.6912" y="170.2206" rx="0.00" ry="0.00" width="9.26" height="9.26"/>
    <rect x="221.6912" y="180.5147" rx="0.00" ry="0.00" width="9.26" height="9.26"/>
    <rect x="221.6912" y="190.8088" rx="0.00" ry="0.00" width="9.26" height="9.26"/>
    <rect x="221.6912" y="201.1029" rx="0.00" ry="0.00" width="9.26" height="9.26"/>
    <rect x="221.6912" y="211.3971" rx="0.00" ry="0.00" width="9.26" height="9.26"/>
    <rect x="221.6912" y="221.6912" rx="0.00" ry="0.00" width="9.26" height="9.26"/>
    <rect x="231.9853" y="129.0441" rx="0.00" ry="0.00" width="9.26" height="9.26"/>
    <rect x="231.9853" y="139.3382" rx="0.00" ry="0.00" width="9.26" height="9.26"/>
    <rect x="231.9853" y="149.6324" rx="0.00" ry="0.00" width="9.26" height="9.26"/>
    <rect x="231.9853" y="159.9265" rx="0.00" ry="0.00" width="9.26" height="9.26"/>
    <rect x="231.9853" y="170.2206" rx="0.00" ry="0.00" width="9.26" height="9.26"/>
    <rect x="231.9853" y="180.5147" rx="0.00" ry="0.00" width="9.26" height="9.26"/>
    <rect x="231.9853" y="190.8088" rx="0.00" ry="0.00" width="9.26" height="9.26"/>
    <rect x="231.9853" y="201.1029" rx="0.00" ry="0.00" width="9.26" height="9.26"/>
    <rect x="231.9853" y="211.3971" rx="0.00" ry="0.00" width="9.26" height="9.26"/>
    <rect x="231.9853" y="221.6912" rx="0.00" ry="0.00" width="9.26" height="9.26"/>
    <rect x="242.2794" y="129.0441" rx="0.00" ry="0.00" width="9.26" height="9.26"/>
    <rect x="242.2794" y="139.3382" rx="0.00" ry="0.00" width="9.26" height="9.26"/>
    <rect x="242.2794" y="149.6324" rx="0.00" ry="0.00" width="9.26" height="9.26"/>
    <rect x="242.2794" y="159.9265" rx="0.00" ry="0.00" width="9.26" height="9.26"/>
    <rect x="242.2794" y="170.2206" rx="0.00" ry="0.00" width="9.26" height="9.26"/>
    <rect x="242.2794" y="180.5147" rx="0.00" ry="0.00" width="9.26" height="9.26"/>
    <rect x="242.2794" y="190.8088" rx="0.00" ry="0.00" width="9.26" height="9.26"/>
    <rect x="242.2794" y="201.1029" rx="0.00" ry="0.00" width="9.26" height="9.26"/>
    <rect x="242.2794" y="211.3971" rx="0.00" ry="0.00" width="9.26" height="9.26"/>
    <rect x="242.2794" y="221.6912" rx="0.00" ry="0.00" width="9.26" height="9.26"/>
    <rect x="252.5735" y="129.0441" rx="0.00" ry="0.00" width="9.26" height="9.26"/>
    <rect x="252.5735" y="139.3382" rx="0.00" ry="0.00" width="9.26" height="9.26"/>
    <rect x="252.5735" y="149.6324" rx="0.00" ry="0.00" width="9.26" height="9.26"/>
    <rect x="252.5735" y="159.9265" rx="0.00" ry="0.00" width="9.26" height="9.26"/>
    <rect x="252.5735" y="170.2206" rx="0.00" ry="0.00" width="9.26" height="9.26"/>
    <rect x="252.5735" y="180.5147" rx="0.00" ry="0.00" width="9.26" height="9.26"/>
    <rect x="252.5735" y="190.8088" rx="0.00" ry="0.00" width="9.26" height="9.26"/>
    <rect x="252.5735" y="201.1029" rx="0.00" ry="0.00" width="9.26" height="9.26"/>
    <rect x="252.5735" y="211.3971" rx="0.00" ry="0.00" width="9.26" height="9.26"/>
    <rect x="252.5735" y="221.6912" rx="0.00" ry="0.00" width="9.26" height="9.26"/>
    <rect x="262.8676" y="129.0441" rx="0.00" ry="0.00" width="9.26" height="9.26"/>
    <rect x="262.8676" y="139.3382" rx="0.00" ry="0.00" width="9.26" height="9.26"/>
    <rect x="262.8676" y="149.6324" rx="0.00" ry="0.00" width="9.26" height="9.26"/>
    <rect x="262.8676" y="159.9265" rx="0.00" ry="0.00" width="9.26" height="9.26"/>
    <rect x="262.8676" y="170.2206" rx="0.00" ry="0.00" width="9.26" height="9.26"/>
    <rect x="262.8676" y="180.5147" rx="0.00" ry="0.00" width="9.26" height="9.26"/>
    <rect x="262.8676" y="190.8088" rx="0.00" ry="0.00" width="9.26" height="9.26"/>
    <rect x="262.8676" y="201.1029" rx="0.00" ry="0.00" width="9.26" height="9.26"/>
    <rect x="262.8676" y="211.3971" rx="0.00" ry="0.00" width="9.26" height="9.26"/>
    <rect x="262.8676" y="221.6912" rx="0.00" ry="0.00" width="9.26" height="9.26"/>
    <rect x="273.1618" y="129.0441" rx="0.00" ry="0.00" width="9.26" height="9.26"/>
    <rect x="273.1618" y="139.3382" rx="0.00" ry="0.00" width="9.26" height="9.26"/>
    <rect x="273.1618" y="149.6324" rx="0.00" ry="0.00" width="9.26" height="9.26"/>
    <rect x="273.1618" y="159.9265" rx="0.00" ry="0.00" width="9.26" height="9.26"/>
    <rect x="273.1618" y="170.2206" rx="0.00" ry="0.00" width="9.26" height="9.26"/>
    <rect x="273.1618" y="180.5147" rx="0.00" ry="0.00" width="9.26" height="9.26"/>
    <rect x="273.1618" y="190.8088" rx="0.00" ry="0.00" width="9.26" height="9.26"/>
    <rect x="273.1618" y="201.1029" rx="0.00" ry="0.00" width="9.26" height="9.26"/>
    <rect x="273.1618" y="211.3971" rx="0.00" ry="0.00" width="9.26" height="9.26"/>
    <rect x="273.1618" y="221.6912" rx="0.00" ry="0.00" width="9.26" height="9.26"/>
    <rect x="283.4559" y="129.0441" rx="0.00" ry="0.00" width="9.26" height="9.26"/>
    <rect x="283.4559" y="139.3382" rx="0.00" ry="0.00" width="9.26" height="9.26"/>
    <rect x="283.4559" y="149.6324" rx="0.00" ry="0.00" width="9.26" height="9.26"/>
    <rect x="283.4559" y="159.9265" rx="0.00" ry="0.00" width="9.26" height="9.26"/>
    <rect x="283.4559" y="170.2206" rx="0.00" ry="0.00" width="9.26" height="9.26"/>
    <rect x="283.4559" y="180.5147" rx="0.00" ry="0.00" width="9.26" height="9.26"/>
    <rect x="283.4559" y="190.8088" rx="0.00" ry="0.00" width="9.26" height="9.26"/>
    <rect x="283.4559" y="201.1029" rx="0.00" ry="0.00" width="9.26" height="9.26"/>
    <rect x="283.4559" y="211.3971" rx="0.00" ry="0.00" width="9.26" height="9.26"/>
    <rect x="283.4559" y="221.6912" rx="0.00" ry="0.00" width="9.26" height="9.26"/>
    <rect x="293.7500" y="129.0441" rx="0.00" ry="0.00" width="9.26" height="9.26"/>
    <rect x="293.7500" y="139.3382" rx="0.00" ry="0.00" width="9.26" height="9.26"/>
    <rect x="293.7500" y="149.6324" rx="0.00" ry="0.00" width="9.26" height="9.26"/>
    <rect x="293.7500" y="159.9265" rx="0.00" ry="0.00" width="9.26" height="9.26"/>
    <rect x="293.7500" y="170.2206" rx="0.00" ry="0.00" width="9.26" height="9.26"/>
    <rect x="293.7500" y="180.5147" rx="0.00" ry="0.00" width="9.26" height="9.26"/>
    <rect x="293.7500" y="190.8088" rx="0.00" ry="0.00" width="9.26" height="9.26"/>
    <rect x="293.7500" y="201.1029" rx="0.00" ry="0.00" width="9.26" height="9.26"/>
    <rect x="293.7500" y="211.3971" rx="0.00" ry="0.00" width="9.26" height="9.26"/>
    <rect x="293.7500" y="221.6912" rx="0.00" ry="0.00" width="9.26" height="9.26"/>
    <rect x="304.0441" y="129.0441" rx="0.00" ry="0.00" width="9.26" height="9.26"/>
    <rect x="304.0441" y="139.3382" rx="0.00" ry="0.00" width="9.26" height="9.26"/>
    <rect x="304.0441" y="149.6324" rx="0.00" ry="0.00" width="9.26" height="9.26"/>
  </g>
  <g style="fill:#99C955" id="GRE">
    <rect x="304.0441" y="159.9265" rx="0.00" ry="0.00" width="9.26" height="9.26"/>
    <rect x="304.0441" y="170.2206" rx="0.00" ry="0.00" width="9.26" height="9.26"/>
    <rect x="304.0441" y="180.5147" rx="0.00" ry="0.00" width="9.26" height="9.26"/>
    <rect x="304.0441" y="190.8088" rx="0.00" ry="0.00" width="9.26" height="9.26"/>
    <rect x="304.0441" y="201.1029" rx="0.00" ry="0.00" width="9.26" height="9.26"/>
    <rect x="304.0441" y="211.3971" rx="0.00" ry="0.00" width="9.26" height="9.26"/>
    <rect x="304.0441" y="221.6912" rx="0.00" ry="0.00" width="9.26" height="9.26"/>
    <rect x="314.3382" y="129.0441" rx="0.00" ry="0.00" width="9.26" height="9.26"/>
    <rect x="314.3382" y="139.3382" rx="0.00" ry="0.00" width="9.26" height="9.26"/>
    <rect x="314.3382" y="149.6324" rx="0.00" ry="0.00" width="9.26" height="9.26"/>
    <rect x="314.3382" y="159.9265" rx="0.00" ry="0.00" width="9.26" height="9.26"/>
    <rect x="314.3382" y="170.2206" rx="0.00" ry="0.00" width="9.26" height="9.26"/>
    <rect x="314.3382" y="180.5147" rx="0.00" ry="0.00" width="9.26" height="9.26"/>
    <rect x="314.3382" y="190.8088" rx="0.00" ry="0.00" width="9.26" height="9.26"/>
    <rect x="314.3382" y="201.1029" rx="0.00" ry="0.00" width="9.26" height="9.26"/>
    <rect x="314.3382" y="211.3971" rx="0.00" ry="0.00" width="9.26" height="9.26"/>
    <rect x="314.3382" y="221.6912" rx="0.00" ry="0.00" width="9.26" height="9.26"/>
    <rect x="324.6324" y="129.0441" rx="0.00" ry="0.00" width="9.26" height="9.26"/>
    <rect x="324.6324" y="139.3382" rx="0.00" ry="0.00" width="9.26" height="9.26"/>
    <rect x="324.6324" y="149.6324" rx="0.00" ry="0.00" width="9.26" height="9.26"/>
    <rect x="324.6324" y="159.9265" rx="0.00" ry="0.00" width="9.26" height="9.26"/>
    <rect x="324.6324" y="170.2206" rx="0.00" ry="0.00" width="9.26" height="9.26"/>
    <rect x="324.6324" y="180.5147" rx="0.00" ry="0.00" width="9.26" height="9.26"/>
    <rect x="324.6324" y="190.8088" rx="0.00" ry="0.00" width="9.26" height="9.26"/>
    <rect x="324.6324" y="201.1029" rx="0.00" ry="0.00" width="9.26" height="9.26"/>
    <rect x="324.6324" y="211.3971" rx="0.00" ry="0.00" width="9.26" height="9.26"/>
    <rect x="324.6324" y="221.6912" rx="0.00" ry="0.00" width="9.26" height="9.26"/>
    <rect x="334.9265" y="129.0441" rx="0.00" ry="0.00" width="9.26" height="9.26"/>
    <rect x="334.9265" y="139.3382" rx="0.00" ry="0.00" width="9.26" height="9.26"/>
    <rect x="334.9265" y="149.6324" rx="0.00" ry="0.00" width="9.26" height="9.26"/>
    <rect x="334.9265" y="159.9265" rx="0.00" ry="0.00" width="9.26" height="9.26"/>
    <rect x="334.9265" y="170.2206" rx="0.00" ry="0.00" width="9.26" height="9.26"/>
    <rect x="334.9265" y="180.5147" rx="0.00" ry="0.00" width="9.26" height="9.26"/>
    <rect x="334.9265" y="190.8088" rx="0.00" ry="0.00" width="9.26" height="9.26"/>
    <rect x="334.9265" y="201.1029" rx="0.00" ry="0.00" width="9.26" height="9.26"/>
    <rect x="334.9265" y="211.3971" rx="0.00" ry="0.00" width="9.26" height="9.26"/>
    <rect x="334.9265" y="221.6912" rx="0.00" ry="0.00" width="9.26" height="9.26"/>
    <rect x="345.2206" y="129.0441" rx="0.00" ry="0.00" width="9.26" height="9.26"/>
  </g>
  </g>
  <g id="centerbench">
  </g>
</g>
</svg>
