<?xml version="1.0" encoding="UTF-8" standalone="no"?>
<svg xmlns:svg="http://www.w3.org/2000/svg"
xmlns="http://www.w3.org/2000/svg" version="1.1"
width="360.0" height="272.5">
<!-- Created with the Wikimedia westminster parliament diagram creator (http://parliamentdiagram.toolforge.org/westminsterinputform.html) -->
<g id="diagram">
  <g id="headbench">
  <g style="fill:#EA6D6A" id="LPC">
    <rect x="5.7292" y="129.6875" rx="0.00" ry="0.00" width="13.12" height="13.12"/>
  </g>
  </g>
  <g id="leftbench">
  <g style="fill:#6495ED" id="CPC">
    <rect x="20.3125" y="107.8125" rx="0.00" ry="0.00" width="13.12" height="13.12"/>
    <rect x="20.3125" y="93.2292" rx="0.00" ry="0.00" width="13.12" height="13.12"/>
    <rect x="20.3125" y="78.6458" rx="0.00" ry="0.00" width="13.12" height="13.12"/>
    <rect x="20.3125" y="64.0625" rx="0.00" ry="0.00" width="13.12" height="13.12"/>
    <rect x="20.3125" y="49.4792" rx="0.00" ry="0.00" width="13.12" height="13.12"/>
    <rect x="20.3125" y="34.8958" rx="0.00" ry="0.00" width="13.12" height="13.12"/>
    <rect x="20.3125" y="20.3125" rx="0.00" ry="0.00" width="13.12" height="13.12"/>
    <rect x="20.3125" y="5.7292" rx="0.00" ry="0.00" width="13.12" height="13.12"/>
    <rect x="34.8958" y="107.8125" rx="0.00" ry="0.00" width="13.12" height="13.12"/>
    <rect x="34.8958" y="93.2292" rx="0.00" ry="0.00" width="13.12" height="13.12"/>
    <rect x="34.8958" y="78.6458" rx="0.00" ry="0.00" width="13.12" height="13.12"/>
    <rect x="34.8958" y="64.0625" rx="0.00" ry="0.00" width="13.12" height="13.12"/>
    <rect x="34.8958" y="49.4792" rx="0.00" ry="0.00" width="13.12" height="13.12"/>
    <rect x="34.8958" y="34.8958" rx="0.00" ry="0.00" width="13.12" height="13.12"/>
    <rect x="34.8958" y="20.3125" rx="0.00" ry="0.00" width="13.12" height="13.12"/>
    <rect x="34.8958" y="5.7292" rx="0.00" ry="0.00" width="13.12" height="13.12"/>
    <rect x="49.4792" y="107.8125" rx="0.00" ry="0.00" width="13.12" height="13.12"/>
    <rect x="49.4792" y="93.2292" rx="0.00" ry="0.00" width="13.12" height="13.12"/>
    <rect x="49.4792" y="78.6458" rx="0.00" ry="0.00" width="13.12" height="13.12"/>
    <rect x="49.4792" y="64.0625" rx="0.00" ry="0.00" width="13.12" height="13.12"/>
    <rect x="49.4792" y="49.4792" rx="0.00" ry="0.00" width="13.12" height="13.12"/>
    <rect x="49.4792" y="34.8958" rx="0.00" ry="0.00" width="13.12" height="13.12"/>
    <rect x="49.4792" y="20.3125" rx="0.00" ry="0.00" width="13.12" height="13.12"/>
    <rect x="49.4792" y="5.7292" rx="0.00" ry="0.00" width="13.12" height="13.12"/>
    <rect x="64.0625" y="107.8125" rx="0.00" ry="0.00" width="13.12" height="13.12"/>
    <rect x="64.0625" y="93.2292" rx="0.00" ry="0.00" width="13.12" height="13.12"/>
    <rect x="64.0625" y="78.6458" rx="0.00" ry="0.00" width="13.12" height="13.12"/>
    <rect x="64.0625" y="64.0625" rx="0.00" ry="0.00" width="13.12" height="13.12"/>
    <rect x="64.0625" y="49.4792" rx="0.00" ry="0.00" width="13.12" height="13.12"/>
    <rect x="64.0625" y="34.8958" rx="0.00" ry="0.00" width="13.12" height="13.12"/>
    <rect x="64.0625" y="20.3125" rx="0.00" ry="0.00" width="13.12" height="13.12"/>
    <rect x="64.0625" y="5.7292" rx="0.00" ry="0.00" width="13.12" height="13.12"/>
    <rect x="78.6458" y="107.8125" rx="0.00" ry="0.00" width="13.12" height="13.12"/>
    <rect x="78.6458" y="93.2292" rx="0.00" ry="0.00" width="13.12" height="13.12"/>
    <rect x="78.6458" y="78.6458" rx="0.00" ry="0.00" width="13.12" height="13.12"/>
    <rect x="78.6458" y="64.0625" rx="0.00" ry="0.00" width="13.12" height="13.12"/>
    <rect x="78.6458" y="49.4792" rx="0.00" ry="0.00" width="13.12" height="13.12"/>
    <rect x="78.6458" y="34.8958" rx="0.00" ry="0.00" width="13.12" height="13.12"/>
    <rect x="78.6458" y="20.3125" rx="0.00" ry="0.00" width="13.12" height="13.12"/>
    <rect x="78.6458" y="5.7292" rx="0.00" ry="0.00" width="13.12" height="13.12"/>
    <rect x="93.2292" y="107.8125" rx="0.00" ry="0.00" width="13.12" height="13.12"/>
    <rect x="93.2292" y="93.2292" rx="0.00" ry="0.00" width="13.12" height="13.12"/>
    <rect x="93.2292" y="78.6458" rx="0.00" ry="0.00" width="13.12" height="13.12"/>
    <rect x="93.2292" y="64.0625" rx="0.00" ry="0.00" width="13.12" height="13.12"/>
    <rect x="93.2292" y="49.4792" rx="0.00" ry="0.00" width="13.12" height="13.12"/>
    <rect x="93.2292" y="34.8958" rx="0.00" ry="0.00" width="13.12" height="13.12"/>
    <rect x="93.2292" y="20.3125" rx="0.00" ry="0.00" width="13.12" height="13.12"/>
    <rect x="93.2292" y="5.7292" rx="0.00" ry="0.00" width="13.12" height="13.12"/>
    <rect x="107.8125" y="107.8125" rx="0.00" ry="0.00" width="13.12" height="13.12"/>
    <rect x="107.8125" y="93.2292" rx="0.00" ry="0.00" width="13.12" height="13.12"/>
    <rect x="107.8125" y="78.6458" rx="0.00" ry="0.00" width="13.12" height="13.12"/>
    <rect x="107.8125" y="64.0625" rx="0.00" ry="0.00" width="13.12" height="13.12"/>
    <rect x="107.8125" y="49.4792" rx="0.00" ry="0.00" width="13.12" height="13.12"/>
    <rect x="107.8125" y="34.8958" rx="0.00" ry="0.00" width="13.12" height="13.12"/>
    <rect x="107.8125" y="20.3125" rx="0.00" ry="0.00" width="13.12" height="13.12"/>
    <rect x="107.8125" y="5.7292" rx="0.00" ry="0.00" width="13.12" height="13.12"/>
    <rect x="122.3958" y="107.8125" rx="0.00" ry="0.00" width="13.12" height="13.12"/>
    <rect x="122.3958" y="93.2292" rx="0.00" ry="0.00" width="13.12" height="13.12"/>
    <rect x="122.3958" y="78.6458" rx="0.00" ry="0.00" width="13.12" height="13.12"/>
    <rect x="122.3958" y="64.0625" rx="0.00" ry="0.00" width="13.12" height="13.12"/>
    <rect x="122.3958" y="49.4792" rx="0.00" ry="0.00" width="13.12" height="13.12"/>
    <rect x="122.3958" y="34.8958" rx="0.00" ry="0.00" width="13.12" height="13.12"/>
    <rect x="122.3958" y="20.3125" rx="0.00" ry="0.00" width="13.12" height="13.12"/>
    <rect x="122.3958" y="5.7292" rx="0.00" ry="0.00" width="13.12" height="13.12"/>
    <rect x="136.9792" y="107.8125" rx="0.00" ry="0.00" width="13.12" height="13.12"/>
    <rect x="136.9792" y="93.2292" rx="0.00" ry="0.00" width="13.12" height="13.12"/>
    <rect x="136.9792" y="78.6458" rx="0.00" ry="0.00" width="13.12" height="13.12"/>
    <rect x="136.9792" y="64.0625" rx="0.00" ry="0.00" width="13.12" height="13.12"/>
    <rect x="136.9792" y="49.4792" rx="0.00" ry="0.00" width="13.12" height="13.12"/>
    <rect x="136.9792" y="34.8958" rx="0.00" ry="0.00" width="13.12" height="13.12"/>
    <rect x="136.9792" y="20.3125" rx="0.00" ry="0.00" width="13.12" height="13.12"/>
    <rect x="136.9792" y="5.7292" rx="0.00" ry="0.00" width="13.12" height="13.12"/>
    <rect x="151.5625" y="107.8125" rx="0.00" ry="0.00" width="13.12" height="13.12"/>
    <rect x="151.5625" y="93.2292" rx="0.00" ry="0.00" width="13.12" height="13.12"/>
    <rect x="151.5625" y="78.6458" rx="0.00" ry="0.00" width="13.12" height="13.12"/>
    <rect x="151.5625" y="64.0625" rx="0.00" ry="0.00" width="13.12" height="13.12"/>
    <rect x="151.5625" y="49.4792" rx="0.00" ry="0.00" width="13.12" height="13.12"/>
    <rect x="151.5625" y="34.8958" rx="0.00" ry="0.00" width="13.12" height="13.12"/>
    <rect x="151.5625" y="20.3125" rx="0.00" ry="0.00" width="13.12" height="13.12"/>
    <rect x="151.5625" y="5.7292" rx="0.00" ry="0.00" width="13.12" height="13.12"/>
    <rect x="166.1458" y="107.8125" rx="0.00" ry="0.00" width="13.12" height="13.12"/>
    <rect x="166.1458" y="93.2292" rx="0.00" ry="0.00" width="13.12" height="13.12"/>
    <rect x="166.1458" y="78.6458" rx="0.00" ry="0.00" width="13.12" height="13.12"/>
    <rect x="166.1458" y="64.0625" rx="0.00" ry="0.00" width="13.12" height="13.12"/>
    <rect x="166.1458" y="49.4792" rx="0.00" ry="0.00" width="13.12" height="13.12"/>
    <rect x="166.1458" y="34.8958" rx="0.00" ry="0.00" width="13.12" height="13.12"/>
    <rect x="166.1458" y="20.3125" rx="0.00" ry="0.00" width="13.12" height="13.12"/>
    <rect x="166.1458" y="5.7292" rx="0.00" ry="0.00" width="13.12" height="13.12"/>
    <rect x="180.7292" y="107.8125" rx="0.00" ry="0.00" width="13.12" height="13.12"/>
    <rect x="180.7292" y="93.2292" rx="0.00" ry="0.00" width="13.12" height="13.12"/>
    <rect x="180.7292" y="78.6458" rx="0.00" ry="0.00" width="13.12" height="13.12"/>
    <rect x="180.7292" y="64.0625" rx="0.00" ry="0.00" width="13.12" height="13.12"/>
    <rect x="180.7292" y="49.4792" rx="0.00" ry="0.00" width="13.12" height="13.12"/>
    <rect x="180.7292" y="34.8958" rx="0.00" ry="0.00" width="13.12" height="13.12"/>
    <rect x="180.7292" y="20.3125" rx="0.00" ry="0.00" width="13.12" height="13.12"/>
    <rect x="180.7292" y="5.7292" rx="0.00" ry="0.00" width="13.12" height="13.12"/>
    <rect x="195.3125" y="107.8125" rx="0.00" ry="0.00" width="13.12" height="13.12"/>
    <rect x="195.3125" y="93.2292" rx="0.00" ry="0.00" width="13.12" height="13.12"/>
    <rect x="195.3125" y="78.6458" rx="0.00" ry="0.00" width="13.12" height="13.12"/>
    <rect x="195.3125" y="64.0625" rx="0.00" ry="0.00" width="13.12" height="13.12"/>
    <rect x="195.3125" y="49.4792" rx="0.00" ry="0.00" width="13.12" height="13.12"/>
    <rect x="195.3125" y="34.8958" rx="0.00" ry="0.00" width="13.12" height="13.12"/>
    <rect x="195.3125" y="20.3125" rx="0.00" ry="0.00" width="13.12" height="13.12"/>
    <rect x="195.3125" y="5.7292" rx="0.00" ry="0.00" width="13.12" height="13.12"/>
    <rect x="209.8958" y="107.8125" rx="0.00" ry="0.00" width="13.12" height="13.12"/>
    <rect x="209.8958" y="93.2292" rx="0.00" ry="0.00" width="13.12" height="13.12"/>
    <rect x="209.8958" y="78.6458" rx="0.00" ry="0.00" width="13.12" height="13.12"/>
    <rect x="209.8958" y="64.0625" rx="0.00" ry="0.00" width="13.12" height="13.12"/>
    <rect x="209.8958" y="49.4792" rx="0.00" ry="0.00" width="13.12" height="13.12"/>
    <rect x="209.8958" y="34.8958" rx="0.00" ry="0.00" width="13.12" height="13.12"/>
    <rect x="209.8958" y="20.3125" rx="0.00" ry="0.00" width="13.12" height="13.12"/>
    <rect x="209.8958" y="5.7292" rx="0.00" ry="0.00" width="13.12" height="13.12"/>
    <rect x="224.4792" y="107.8125" rx="0.00" ry="0.00" width="13.12" height="13.12"/>
    <rect x="224.4792" y="93.2292" rx="0.00" ry="0.00" width="13.12" height="13.12"/>
    <rect x="224.4792" y="78.6458" rx="0.00" ry="0.00" width="13.12" height="13.12"/>
    <rect x="224.4792" y="64.0625" rx="0.00" ry="0.00" width="13.12" height="13.12"/>
    <rect x="224.4792" y="49.4792" rx="0.00" ry="0.00" width="13.12" height="13.12"/>
    <rect x="224.4792" y="34.8958" rx="0.00" ry="0.00" width="13.12" height="13.12"/>
    <rect x="224.4792" y="20.3125" rx="0.00" ry="0.00" width="13.12" height="13.12"/>
    <rect x="224.4792" y="5.7292" rx="0.00" ry="0.00" width="13.12" height="13.12"/>
    <rect x="239.0625" y="107.8125" rx="0.00" ry="0.00" width="13.12" height="13.12"/>
  </g>
  <g style="fill:#87CEFA" id="BQ">
    <rect x="239.0625" y="93.2292" rx="0.00" ry="0.00" width="13.12" height="13.12"/>
    <rect x="239.0625" y="78.6458" rx="0.00" ry="0.00" width="13.12" height="13.12"/>
    <rect x="239.0625" y="64.0625" rx="0.00" ry="0.00" width="13.12" height="13.12"/>
    <rect x="239.0625" y="49.4792" rx="0.00" ry="0.00" width="13.12" height="13.12"/>
    <rect x="239.0625" y="34.8958" rx="0.00" ry="0.00" width="13.12" height="13.12"/>
    <rect x="239.0625" y="20.3125" rx="0.00" ry="0.00" width="13.12" height="13.12"/>
    <rect x="239.0625" y="5.7292" rx="0.00" ry="0.00" width="13.12" height="13.12"/>
    <rect x="253.6458" y="107.8125" rx="0.00" ry="0.00" width="13.12" height="13.12"/>
    <rect x="253.6458" y="93.2292" rx="0.00" ry="0.00" width="13.12" height="13.12"/>
    <rect x="253.6458" y="78.6458" rx="0.00" ry="0.00" width="13.12" height="13.12"/>
    <rect x="253.6458" y="64.0625" rx="0.00" ry="0.00" width="13.12" height="13.12"/>
    <rect x="253.6458" y="49.4792" rx="0.00" ry="0.00" width="13.12" height="13.12"/>
    <rect x="253.6458" y="34.8958" rx="0.00" ry="0.00" width="13.12" height="13.12"/>
    <rect x="253.6458" y="20.3125" rx="0.00" ry="0.00" width="13.12" height="13.12"/>
    <rect x="253.6458" y="5.7292" rx="0.00" ry="0.00" width="13.12" height="13.12"/>
    <rect x="268.2292" y="107.8125" rx="0.00" ry="0.00" width="13.12" height="13.12"/>
    <rect x="268.2292" y="93.2292" rx="0.00" ry="0.00" width="13.12" height="13.12"/>
    <rect x="268.2292" y="78.6458" rx="0.00" ry="0.00" width="13.12" height="13.12"/>
    <rect x="268.2292" y="64.0625" rx="0.00" ry="0.00" width="13.12" height="13.12"/>
    <rect x="268.2292" y="49.4792" rx="0.00" ry="0.00" width="13.12" height="13.12"/>
    <rect x="268.2292" y="34.8958" rx="0.00" ry="0.00" width="13.12" height="13.12"/>
    <rect x="268.2292" y="20.3125" rx="0.00" ry="0.00" width="13.12" height="13.12"/>
    <rect x="268.2292" y="5.7292" rx="0.00" ry="0.00" width="13.12" height="13.12"/>
    <rect x="282.8125" y="107.8125" rx="0.00" ry="0.00" width="13.12" height="13.12"/>
    <rect x="282.8125" y="93.2292" rx="0.00" ry="0.00" width="13.12" height="13.12"/>
    <rect x="282.8125" y="78.6458" rx="0.00" ry="0.00" width="13.12" height="13.12"/>
    <rect x="282.8125" y="64.0625" rx="0.00" ry="0.00" width="13.12" height="13.12"/>
    <rect x="282.8125" y="49.4792" rx="0.00" ry="0.00" width="13.12" height="13.12"/>
    <rect x="282.8125" y="34.8958" rx="0.00" ry="0.00" width="13.12" height="13.12"/>
    <rect x="282.8125" y="20.3125" rx="0.00" ry="0.00" width="13.12" height="13.12"/>
    <rect x="282.8125" y="5.7292" rx="0.00" ry="0.00" width="13.12" height="13.12"/>
    <rect x="297.3958" y="107.8125" rx="0.00" ry="0.00" width="13.12" height="13.12"/>
  </g>
  <g style="fill:#DCDCDC" id="IND">
    <rect x="297.3958" y="93.2292" rx="0.00" ry="0.00" width="13.12" height="13.12"/>
  </g>
  </g>
  <g id="rightbench">
  <g style="fill:#EA6D6A" id="LPC">
    <rect x="20.3125" y="151.5625" rx="0.00" ry="0.00" width="13.12" height="13.12"/>
    <rect x="20.3125" y="166.1458" rx="0.00" ry="0.00" width="13.12" height="13.12"/>
    <rect x="20.3125" y="180.7292" rx="0.00" ry="0.00" width="13.12" height="13.12"/>
    <rect x="20.3125" y="195.3125" rx="0.00" ry="0.00" width="13.12" height="13.12"/>
    <rect x="20.3125" y="209.8958" rx="0.00" ry="0.00" width="13.12" height="13.12"/>
    <rect x="20.3125" y="224.4792" rx="0.00" ry="0.00" width="13.12" height="13.12"/>
    <rect x="20.3125" y="239.0625" rx="0.00" ry="0.00" width="13.12" height="13.12"/>
    <rect x="20.3125" y="253.6458" rx="0.00" ry="0.00" width="13.12" height="13.12"/>
    <rect x="34.8958" y="151.5625" rx="0.00" ry="0.00" width="13.12" height="13.12"/>
    <rect x="34.8958" y="166.1458" rx="0.00" ry="0.00" width="13.12" height="13.12"/>
    <rect x="34.8958" y="180.7292" rx="0.00" ry="0.00" width="13.12" height="13.12"/>
    <rect x="34.8958" y="195.3125" rx="0.00" ry="0.00" width="13.12" height="13.12"/>
    <rect x="34.8958" y="209.8958" rx="0.00" ry="0.00" width="13.12" height="13.12"/>
    <rect x="34.8958" y="224.4792" rx="0.00" ry="0.00" width="13.12" height="13.12"/>
    <rect x="34.8958" y="239.0625" rx="0.00" ry="0.00" width="13.12" height="13.12"/>
    <rect x="34.8958" y="253.6458" rx="0.00" ry="0.00" width="13.12" height="13.12"/>
    <rect x="49.4792" y="151.5625" rx="0.00" ry="0.00" width="13.12" height="13.12"/>
    <rect x="49.4792" y="166.1458" rx="0.00" ry="0.00" width="13.12" height="13.12"/>
    <rect x="49.4792" y="180.7292" rx="0.00" ry="0.00" width="13.12" height="13.12"/>
    <rect x="49.4792" y="195.3125" rx="0.00" ry="0.00" width="13.12" height="13.12"/>
    <rect x="49.4792" y="209.8958" rx="0.00" ry="0.00" width="13.12" height="13.12"/>
    <rect x="49.4792" y="224.4792" rx="0.00" ry="0.00" width="13.12" height="13.12"/>
    <rect x="49.4792" y="239.0625" rx="0.00" ry="0.00" width="13.12" height="13.12"/>
    <rect x="49.4792" y="253.6458" rx="0.00" ry="0.00" width="13.12" height="13.12"/>
    <rect x="64.0625" y="151.5625" rx="0.00" ry="0.00" width="13.12" height="13.12"/>
    <rect x="64.0625" y="166.1458" rx="0.00" ry="0.00" width="13.12" height="13.12"/>
    <rect x="64.0625" y="180.7292" rx="0.00" ry="0.00" width="13.12" height="13.12"/>
    <rect x="64.0625" y="195.3125" rx="0.00" ry="0.00" width="13.12" height="13.12"/>
    <rect x="64.0625" y="209.8958" rx="0.00" ry="0.00" width="13.12" height="13.12"/>
    <rect x="64.0625" y="224.4792" rx="0.00" ry="0.00" width="13.12" height="13.12"/>
    <rect x="64.0625" y="239.0625" rx="0.00" ry="0.00" width="13.12" height="13.12"/>
    <rect x="64.0625" y="253.6458" rx="0.00" ry="0.00" width="13.12" height="13.12"/>
    <rect x="78.6458" y="151.5625" rx="0.00" ry="0.00" width="13.12" height="13.12"/>
    <rect x="78.6458" y="166.1458" rx="0.00" ry="0.00" width="13.12" height="13.12"/>
    <rect x="78.6458" y="180.7292" rx="0.00" ry="0.00" width="13.12" height="13.12"/>
    <rect x="78.6458" y="195.3125" rx="0.00" ry="0.00" width="13.12" height="13.12"/>
    <rect x="78.6458" y="209.8958" rx="0.00" ry="0.00" width="13.12" height="13.12"/>
    <rect x="78.6458" y="224.4792" rx="0.00" ry="0.00" width="13.12" height="13.12"/>
    <rect x="78.6458" y="239.0625" rx="0.00" ry="0.00" width="13.12" height="13.12"/>
    <rect x="78.6458" y="253.6458" rx="0.00" ry="0.00" width="13.12" height="13.12"/>
    <rect x="93.2292" y="151.5625" rx="0.00" ry="0.00" width="13.12" height="13.12"/>
    <rect x="93.2292" y="166.1458" rx="0.00" ry="0.00" width="13.12" height="13.12"/>
    <rect x="93.2292" y="180.7292" rx="0.00" ry="0.00" width="13.12" height="13.12"/>
    <rect x="93.2292" y="195.3125" rx="0.00" ry="0.00" width="13.12" height="13.12"/>
    <rect x="93.2292" y="209.8958" rx="0.00" ry="0.00" width="13.12" height="13.12"/>
    <rect x="93.2292" y="224.4792" rx="0.00" ry="0.00" width="13.12" height="13.12"/>
    <rect x="93.2292" y="239.0625" rx="0.00" ry="0.00" width="13.12" height="13.12"/>
    <rect x="93.2292" y="253.6458" rx="0.00" ry="0.00" width="13.12" height="13.12"/>
    <rect x="107.8125" y="151.5625" rx="0.00" ry="0.00" width="13.12" height="13.12"/>
    <rect x="107.8125" y="166.1458" rx="0.00" ry="0.00" width="13.12" height="13.12"/>
    <rect x="107.8125" y="180.7292" rx="0.00" ry="0.00" width="13.12" height="13.12"/>
    <rect x="107.8125" y="195.3125" rx="0.00" ry="0.00" width="13.12" height="13.12"/>
    <rect x="107.8125" y="209.8958" rx="0.00" ry="0.00" width="13.12" height="13.12"/>
    <rect x="107.8125" y="224.4792" rx="0.00" ry="0.00" width="13.12" height="13.12"/>
    <rect x="107.8125" y="239.0625" rx="0.00" ry="0.00" width="13.12" height="13.12"/>
    <rect x="107.8125" y="253.6458" rx="0.00" ry="0.00" width="13.12" height="13.12"/>
    <rect x="122.3958" y="151.5625" rx="0.00" ry="0.00" width="13.12" height="13.12"/>
    <rect x="122.3958" y="166.1458" rx="0.00" ry="0.00" width="13.12" height="13.12"/>
    <rect x="122.3958" y="180.7292" rx="0.00" ry="0.00" width="13.12" height="13.12"/>
    <rect x="122.3958" y="195.3125" rx="0.00" ry="0.00" width="13.12" height="13.12"/>
    <rect x="122.3958" y="209.8958" rx="0.00" ry="0.00" width="13.12" height="13.12"/>
    <rect x="122.3958" y="224.4792" rx="0.00" ry="0.00" width="13.12" height="13.12"/>
    <rect x="122.3958" y="239.0625" rx="0.00" ry="0.00" width="13.12" height="13.12"/>
    <rect x="122.3958" y="253.6458" rx="0.00" ry="0.00" width="13.12" height="13.12"/>
    <rect x="136.9792" y="151.5625" rx="0.00" ry="0.00" width="13.12" height="13.12"/>
    <rect x="136.9792" y="166.1458" rx="0.00" ry="0.00" width="13.12" height="13.12"/>
    <rect x="136.9792" y="180.7292" rx="0.00" ry="0.00" width="13.12" height="13.12"/>
    <rect x="136.9792" y="195.3125" rx="0.00" ry="0.00" width="13.12" height="13.12"/>
    <rect x="136.9792" y="209.8958" rx="0.00" ry="0.00" width="13.12" height="13.12"/>
    <rect x="136.9792" y="224.4792" rx="0.00" ry="0.00" width="13.12" height="13.12"/>
    <rect x="136.9792" y="239.0625" rx="0.00" ry="0.00" width="13.12" height="13.12"/>
    <rect x="136.9792" y="253.6458" rx="0.00" ry="0.00" width="13.12" height="13.12"/>
    <rect x="151.5625" y="151.5625" rx="0.00" ry="0.00" width="13.12" height="13.12"/>
    <rect x="151.5625" y="166.1458" rx="0.00" ry="0.00" width="13.12" height="13.12"/>
    <rect x="151.5625" y="180.7292" rx="0.00" ry="0.00" width="13.12" height="13.12"/>
    <rect x="151.5625" y="195.3125" rx="0.00" ry="0.00" width="13.12" height="13.12"/>
    <rect x="151.5625" y="209.8958" rx="0.00" ry="0.00" width="13.12" height="13.12"/>
    <rect x="151.5625" y="224.4792" rx="0.00" ry="0.00" width="13.12" height="13.12"/>
    <rect x="151.5625" y="239.0625" rx="0.00" ry="0.00" width="13.12" height="13.12"/>
    <rect x="151.5625" y="253.6458" rx="0.00" ry="0.00" width="13.12" height="13.12"/>
    <rect x="166.1458" y="151.5625" rx="0.00" ry="0.00" width="13.12" height="13.12"/>
    <rect x="166.1458" y="166.1458" rx="0.00" ry="0.00" width="13.12" height="13.12"/>
    <rect x="166.1458" y="180.7292" rx="0.00" ry="0.00" width="13.12" height="13.12"/>
    <rect x="166.1458" y="195.3125" rx="0.00" ry="0.00" width="13.12" height="13.12"/>
    <rect x="166.1458" y="209.8958" rx="0.00" ry="0.00" width="13.12" height="13.12"/>
    <rect x="166.1458" y="224.4792" rx="0.00" ry="0.00" width="13.12" height="13.12"/>
    <rect x="166.1458" y="239.0625" rx="0.00" ry="0.00" width="13.12" height="13.12"/>
    <rect x="166.1458" y="253.6458" rx="0.00" ry="0.00" width="13.12" height="13.12"/>
    <rect x="180.7292" y="151.5625" rx="0.00" ry="0.00" width="13.12" height="13.12"/>
    <rect x="180.7292" y="166.1458" rx="0.00" ry="0.00" width="13.12" height="13.12"/>
    <rect x="180.7292" y="180.7292" rx="0.00" ry="0.00" width="13.12" height="13.12"/>
    <rect x="180.7292" y="195.3125" rx="0.00" ry="0.00" width="13.12" height="13.12"/>
    <rect x="180.7292" y="209.8958" rx="0.00" ry="0.00" width="13.12" height="13.12"/>
    <rect x="180.7292" y="224.4792" rx="0.00" ry="0.00" width="13.12" height="13.12"/>
    <rect x="180.7292" y="239.0625" rx="0.00" ry="0.00" width="13.12" height="13.12"/>
    <rect x="180.7292" y="253.6458" rx="0.00" ry="0.00" width="13.12" height="13.12"/>
    <rect x="195.3125" y="151.5625" rx="0.00" ry="0.00" width="13.12" height="13.12"/>
    <rect x="195.3125" y="166.1458" rx="0.00" ry="0.00" width="13.12" height="13.12"/>
    <rect x="195.3125" y="180.7292" rx="0.00" ry="0.00" width="13.12" height="13.12"/>
    <rect x="195.3125" y="195.3125" rx="0.00" ry="0.00" width="13.12" height="13.12"/>
    <rect x="195.3125" y="209.8958" rx="0.00" ry="0.00" width="13.12" height="13.12"/>
    <rect x="195.3125" y="224.4792" rx="0.00" ry="0.00" width="13.12" height="13.12"/>
    <rect x="195.3125" y="239.0625" rx="0.00" ry="0.00" width="13.12" height="13.12"/>
    <rect x="195.3125" y="253.6458" rx="0.00" ry="0.00" width="13.12" height="13.12"/>
    <rect x="209.8958" y="151.5625" rx="0.00" ry="0.00" width="13.12" height="13.12"/>
    <rect x="209.8958" y="166.1458" rx="0.00" ry="0.00" width="13.12" height="13.12"/>
    <rect x="209.8958" y="180.7292" rx="0.00" ry="0.00" width="13.12" height="13.12"/>
    <rect x="209.8958" y="195.3125" rx="0.00" ry="0.00" width="13.12" height="13.12"/>
    <rect x="209.8958" y="209.8958" rx="0.00" ry="0.00" width="13.12" height="13.12"/>
    <rect x="209.8958" y="224.4792" rx="0.00" ry="0.00" width="13.12" height="13.12"/>
    <rect x="209.8958" y="239.0625" rx="0.00" ry="0.00" width="13.12" height="13.12"/>
    <rect x="209.8958" y="253.6458" rx="0.00" ry="0.00" width="13.12" height="13.12"/>
    <rect x="224.4792" y="151.5625" rx="0.00" ry="0.00" width="13.12" height="13.12"/>
    <rect x="224.4792" y="166.1458" rx="0.00" ry="0.00" width="13.12" height="13.12"/>
    <rect x="224.4792" y="180.7292" rx="0.00" ry="0.00" width="13.12" height="13.12"/>
    <rect x="224.4792" y="195.3125" rx="0.00" ry="0.00" width="13.12" height="13.12"/>
    <rect x="224.4792" y="209.8958" rx="0.00" ry="0.00" width="13.12" height="13.12"/>
    <rect x="224.4792" y="224.4792" rx="0.00" ry="0.00" width="13.12" height="13.12"/>
    <rect x="224.4792" y="239.0625" rx="0.00" ry="0.00" width="13.12" height="13.12"/>
    <rect x="224.4792" y="253.6458" rx="0.00" ry="0.00" width="13.12" height="13.12"/>
    <rect x="239.0625" y="151.5625" rx="0.00" ry="0.00" width="13.12" height="13.12"/>
    <rect x="239.0625" y="166.1458" rx="0.00" ry="0.00" width="13.12" height="13.12"/>
    <rect x="239.0625" y="180.7292" rx="0.00" ry="0.00" width="13.12" height="13.12"/>
    <rect x="239.0625" y="195.3125" rx="0.00" ry="0.00" width="13.12" height="13.12"/>
    <rect x="239.0625" y="209.8958" rx="0.00" ry="0.00" width="13.12" height="13.12"/>
    <rect x="239.0625" y="224.4792" rx="0.00" ry="0.00" width="13.12" height="13.12"/>
    <rect x="239.0625" y="239.0625" rx="0.00" ry="0.00" width="13.12" height="13.12"/>
    <rect x="239.0625" y="253.6458" rx="0.00" ry="0.00" width="13.12" height="13.12"/>
    <rect x="253.6458" y="151.5625" rx="0.00" ry="0.00" width="13.12" height="13.12"/>
    <rect x="253.6458" y="166.1458" rx="0.00" ry="0.00" width="13.12" height="13.12"/>
    <rect x="253.6458" y="180.7292" rx="0.00" ry="0.00" width="13.12" height="13.12"/>
    <rect x="253.6458" y="195.3125" rx="0.00" ry="0.00" width="13.12" height="13.12"/>
    <rect x="253.6458" y="209.8958" rx="0.00" ry="0.00" width="13.12" height="13.12"/>
    <rect x="253.6458" y="224.4792" rx="0.00" ry="0.00" width="13.12" height="13.12"/>
    <rect x="253.6458" y="239.0625" rx="0.00" ry="0.00" width="13.12" height="13.12"/>
    <rect x="253.6458" y="253.6458" rx="0.00" ry="0.00" width="13.12" height="13.12"/>
    <rect x="268.2292" y="151.5625" rx="0.00" ry="0.00" width="13.12" height="13.12"/>
    <rect x="268.2292" y="166.1458" rx="0.00" ry="0.00" width="13.12" height="13.12"/>
    <rect x="268.2292" y="180.7292" rx="0.00" ry="0.00" width="13.12" height="13.12"/>
    <rect x="268.2292" y="195.3125" rx="0.00" ry="0.00" width="13.12" height="13.12"/>
    <rect x="268.2292" y="209.8958" rx="0.00" ry="0.00" width="13.12" height="13.12"/>
    <rect x="268.2292" y="224.4792" rx="0.00" ry="0.00" width="13.12" height="13.12"/>
    <rect x="268.2292" y="239.0625" rx="0.00" ry="0.00" width="13.12" height="13.12"/>
    <rect x="268.2292" y="253.6458" rx="0.00" ry="0.00" width="13.12" height="13.12"/>
    <rect x="282.8125" y="151.5625" rx="0.00" ry="0.00" width="13.12" height="13.12"/>
    <rect x="282.8125" y="166.1458" rx="0.00" ry="0.00" width="13.12" height="13.12"/>
    <rect x="282.8125" y="180.7292" rx="0.00" ry="0.00" width="13.12" height="13.12"/>
    <rect x="282.8125" y="195.3125" rx="0.00" ry="0.00" width="13.12" height="13.12"/>
    <rect x="282.8125" y="209.8958" rx="0.00" ry="0.00" width="13.12" height="13.12"/>
    <rect x="282.8125" y="224.4792" rx="0.00" ry="0.00" width="13.12" height="13.12"/>
    <rect x="282.8125" y="239.0625" rx="0.00" ry="0.00" width="13.12" height="13.12"/>
    <rect x="282.8125" y="253.6458" rx="0.00" ry="0.00" width="13.12" height="13.12"/>
    <rect x="297.3958" y="151.5625" rx="0.00" ry="0.00" width="13.12" height="13.12"/>
    <rect x="297.3958" y="166.1458" rx="0.00" ry="0.00" width="13.12" height="13.12"/>
    <rect x="297.3958" y="180.7292" rx="0.00" ry="0.00" width="13.12" height="13.12"/>
    <rect x="297.3958" y="195.3125" rx="0.00" ry="0.00" width="13.12" height="13.12"/>
    <rect x="297.3958" y="209.8958" rx="0.00" ry="0.00" width="13.12" height="13.12"/>
  </g>
  <g style="fill:#F4A460" id="NDP">
    <rect x="297.3958" y="224.4792" rx="0.00" ry="0.00" width="13.12" height="13.12"/>
    <rect x="297.3958" y="239.0625" rx="0.00" ry="0.00" width="13.12" height="13.12"/>
    <rect x="297.3958" y="253.6458" rx="0.00" ry="0.00" width="13.12" height="13.12"/>
    <rect x="311.9792" y="151.5625" rx="0.00" ry="0.00" width="13.12" height="13.12"/>
    <rect x="311.9792" y="166.1458" rx="0.00" ry="0.00" width="13.12" height="13.12"/>
    <rect x="311.9792" y="180.7292" rx="0.00" ry="0.00" width="13.12" height="13.12"/>
    <rect x="311.9792" y="195.3125" rx="0.00" ry="0.00" width="13.12" height="13.12"/>
    <rect x="311.9792" y="209.8958" rx="0.00" ry="0.00" width="13.12" height="13.12"/>
    <rect x="311.9792" y="224.4792" rx="0.00" ry="0.00" width="13.12" height="13.12"/>
    <rect x="311.9792" y="239.0625" rx="0.00" ry="0.00" width="13.12" height="13.12"/>
    <rect x="311.9792" y="253.6458" rx="0.00" ry="0.00" width="13.12" height="13.12"/>
    <rect x="326.5625" y="151.5625" rx="0.00" ry="0.00" width="13.12" height="13.12"/>
    <rect x="326.5625" y="166.1458" rx="0.00" ry="0.00" width="13.12" height="13.12"/>
    <rect x="326.5625" y="180.7292" rx="0.00" ry="0.00" width="13.12" height="13.12"/>
    <rect x="326.5625" y="195.3125" rx="0.00" ry="0.00" width="13.12" height="13.12"/>
    <rect x="326.5625" y="209.8958" rx="0.00" ry="0.00" width="13.12" height="13.12"/>
    <rect x="326.5625" y="224.4792" rx="0.00" ry="0.00" width="13.12" height="13.12"/>
    <rect x="326.5625" y="239.0625" rx="0.00" ry="0.00" width="13.12" height="13.12"/>
    <rect x="326.5625" y="253.6458" rx="0.00" ry="0.00" width="13.12" height="13.12"/>
    <rect x="341.1458" y="151.5625" rx="0.00" ry="0.00" width="13.12" height="13.12"/>
    <rect x="341.1458" y="166.1458" rx="0.00" ry="0.00" width="13.12" height="13.12"/>
    <rect x="341.1458" y="180.7292" rx="0.00" ry="0.00" width="13.12" height="13.12"/>
    <rect x="341.1458" y="195.3125" rx="0.00" ry="0.00" width="13.12" height="13.12"/>
    <rect x="341.1458" y="209.8958" rx="0.00" ry="0.00" width="13.12" height="13.12"/>
  </g>
  <g style="fill:#99C955" id="GRE">
    <rect x="341.1458" y="224.4792" rx="0.00" ry="0.00" width="13.12" height="13.12"/>
    <rect x="341.1458" y="239.0625" rx="0.00" ry="0.00" width="13.12" height="13.12"/>
    <rect x="341.1458" y="253.6458" rx="0.00" ry="0.00" width="13.12" height="13.12"/>
  </g>
  </g>
  <g id="centerbench">
  </g>
</g>
</svg>
