<?xml version="1.0" encoding="UTF-8" standalone="no"?>
<svg xmlns:svg="http://www.w3.org/2000/svg"
xmlns="http://www.w3.org/2000/svg" version="1.1"
width="360.0" height="262.0">
<!-- Created with the Wikimedia westminster parliament diagram creator (http://parliamentdiagram.toolforge.org/westminsterinputform.html) -->
<g id="diagram">
  <g id="headbench">
  <g style="fill:#EA6D6A" id="LPC">
    <rect x="5.7000" y="124.7000" rx="0.00" ry="0.00" width="12.60" height="12.60"/>
  </g>
  </g>
  <g id="leftbench">
  <g style="fill:#6495ED" id="CPC">
    <rect x="19.7000" y="103.7000" rx="0.00" ry="0.00" width="12.60" height="12.60"/>
    <rect x="19.7000" y="89.7000" rx="0.00" ry="0.00" width="12.60" height="12.60"/>
    <rect x="19.7000" y="75.7000" rx="0.00" ry="0.00" width="12.60" height="12.60"/>
    <rect x="19.7000" y="61.7000" rx="0.00" ry="0.00" width="12.60" height="12.60"/>
    <rect x="19.7000" y="47.7000" rx="0.00" ry="0.00" width="12.60" height="12.60"/>
    <rect x="19.7000" y="33.7000" rx="0.00" ry="0.00" width="12.60" height="12.60"/>
    <rect x="19.7000" y="19.7000" rx="0.00" ry="0.00" width="12.60" height="12.60"/>
    <rect x="19.7000" y="5.7000" rx="0.00" ry="0.00" width="12.60" height="12.60"/>
    <rect x="33.7000" y="103.7000" rx="0.00" ry="0.00" width="12.60" height="12.60"/>
    <rect x="33.7000" y="89.7000" rx="0.00" ry="0.00" width="12.60" height="12.60"/>
    <rect x="33.7000" y="75.7000" rx="0.00" ry="0.00" width="12.60" height="12.60"/>
    <rect x="33.7000" y="61.7000" rx="0.00" ry="0.00" width="12.60" height="12.60"/>
    <rect x="33.7000" y="47.7000" rx="0.00" ry="0.00" width="12.60" height="12.60"/>
    <rect x="33.7000" y="33.7000" rx="0.00" ry="0.00" width="12.60" height="12.60"/>
    <rect x="33.7000" y="19.7000" rx="0.00" ry="0.00" width="12.60" height="12.60"/>
    <rect x="33.7000" y="5.7000" rx="0.00" ry="0.00" width="12.60" height="12.60"/>
    <rect x="47.7000" y="103.7000" rx="0.00" ry="0.00" width="12.60" height="12.60"/>
    <rect x="47.7000" y="89.7000" rx="0.00" ry="0.00" width="12.60" height="12.60"/>
    <rect x="47.7000" y="75.7000" rx="0.00" ry="0.00" width="12.60" height="12.60"/>
    <rect x="47.7000" y="61.7000" rx="0.00" ry="0.00" width="12.60" height="12.60"/>
    <rect x="47.7000" y="47.7000" rx="0.00" ry="0.00" width="12.60" height="12.60"/>
    <rect x="47.7000" y="33.7000" rx="0.00" ry="0.00" width="12.60" height="12.60"/>
    <rect x="47.7000" y="19.7000" rx="0.00" ry="0.00" width="12.60" height="12.60"/>
    <rect x="47.7000" y="5.7000" rx="0.00" ry="0.00" width="12.60" height="12.60"/>
    <rect x="61.7000" y="103.7000" rx="0.00" ry="0.00" width="12.60" height="12.60"/>
    <rect x="61.7000" y="89.7000" rx="0.00" ry="0.00" width="12.60" height="12.60"/>
    <rect x="61.7000" y="75.7000" rx="0.00" ry="0.00" width="12.60" height="12.60"/>
    <rect x="61.7000" y="61.7000" rx="0.00" ry="0.00" width="12.60" height="12.60"/>
    <rect x="61.7000" y="47.7000" rx="0.00" ry="0.00" width="12.60" height="12.60"/>
    <rect x="61.7000" y="33.7000" rx="0.00" ry="0.00" width="12.60" height="12.60"/>
    <rect x="61.7000" y="19.7000" rx="0.00" ry="0.00" width="12.60" height="12.60"/>
    <rect x="61.7000" y="5.7000" rx="0.00" ry="0.00" width="12.60" height="12.60"/>
    <rect x="75.7000" y="103.7000" rx="0.00" ry="0.00" width="12.60" height="12.60"/>
    <rect x="75.7000" y="89.7000" rx="0.00" ry="0.00" width="12.60" height="12.60"/>
    <rect x="75.7000" y="75.7000" rx="0.00" ry="0.00" width="12.60" height="12.60"/>
    <rect x="75.7000" y="61.7000" rx="0.00" ry="0.00" width="12.60" height="12.60"/>
    <rect x="75.7000" y="47.7000" rx="0.00" ry="0.00" width="12.60" height="12.60"/>
    <rect x="75.7000" y="33.7000" rx="0.00" ry="0.00" width="12.60" height="12.60"/>
    <rect x="75.7000" y="19.7000" rx="0.00" ry="0.00" width="12.60" height="12.60"/>
    <rect x="75.7000" y="5.7000" rx="0.00" ry="0.00" width="12.60" height="12.60"/>
    <rect x="89.7000" y="103.7000" rx="0.00" ry="0.00" width="12.60" height="12.60"/>
    <rect x="89.7000" y="89.7000" rx="0.00" ry="0.00" width="12.60" height="12.60"/>
    <rect x="89.7000" y="75.7000" rx="0.00" ry="0.00" width="12.60" height="12.60"/>
    <rect x="89.7000" y="61.7000" rx="0.00" ry="0.00" width="12.60" height="12.60"/>
    <rect x="89.7000" y="47.7000" rx="0.00" ry="0.00" width="12.60" height="12.60"/>
    <rect x="89.7000" y="33.7000" rx="0.00" ry="0.00" width="12.60" height="12.60"/>
    <rect x="89.7000" y="19.7000" rx="0.00" ry="0.00" width="12.60" height="12.60"/>
    <rect x="89.7000" y="5.7000" rx="0.00" ry="0.00" width="12.60" height="12.60"/>
    <rect x="103.7000" y="103.7000" rx="0.00" ry="0.00" width="12.60" height="12.60"/>
    <rect x="103.7000" y="89.7000" rx="0.00" ry="0.00" width="12.60" height="12.60"/>
    <rect x="103.7000" y="75.7000" rx="0.00" ry="0.00" width="12.60" height="12.60"/>
    <rect x="103.7000" y="61.7000" rx="0.00" ry="0.00" width="12.60" height="12.60"/>
    <rect x="103.7000" y="47.7000" rx="0.00" ry="0.00" width="12.60" height="12.60"/>
    <rect x="103.7000" y="33.7000" rx="0.00" ry="0.00" width="12.60" height="12.60"/>
    <rect x="103.7000" y="19.7000" rx="0.00" ry="0.00" width="12.60" height="12.60"/>
    <rect x="103.7000" y="5.7000" rx="0.00" ry="0.00" width="12.60" height="12.60"/>
    <rect x="117.7000" y="103.7000" rx="0.00" ry="0.00" width="12.60" height="12.60"/>
    <rect x="117.7000" y="89.7000" rx="0.00" ry="0.00" width="12.60" height="12.60"/>
    <rect x="117.7000" y="75.7000" rx="0.00" ry="0.00" width="12.60" height="12.60"/>
    <rect x="117.7000" y="61.7000" rx="0.00" ry="0.00" width="12.60" height="12.60"/>
    <rect x="117.7000" y="47.7000" rx="0.00" ry="0.00" width="12.60" height="12.60"/>
    <rect x="117.7000" y="33.7000" rx="0.00" ry="0.00" width="12.60" height="12.60"/>
    <rect x="117.7000" y="19.7000" rx="0.00" ry="0.00" width="12.60" height="12.60"/>
    <rect x="117.7000" y="5.7000" rx="0.00" ry="0.00" width="12.60" height="12.60"/>
    <rect x="131.7000" y="103.7000" rx="0.00" ry="0.00" width="12.60" height="12.60"/>
    <rect x="131.7000" y="89.7000" rx="0.00" ry="0.00" width="12.60" height="12.60"/>
    <rect x="131.7000" y="75.7000" rx="0.00" ry="0.00" width="12.60" height="12.60"/>
    <rect x="131.7000" y="61.7000" rx="0.00" ry="0.00" width="12.60" height="12.60"/>
    <rect x="131.7000" y="47.7000" rx="0.00" ry="0.00" width="12.60" height="12.60"/>
    <rect x="131.7000" y="33.7000" rx="0.00" ry="0.00" width="12.60" height="12.60"/>
    <rect x="131.7000" y="19.7000" rx="0.00" ry="0.00" width="12.60" height="12.60"/>
    <rect x="131.7000" y="5.7000" rx="0.00" ry="0.00" width="12.60" height="12.60"/>
    <rect x="145.7000" y="103.7000" rx="0.00" ry="0.00" width="12.60" height="12.60"/>
    <rect x="145.7000" y="89.7000" rx="0.00" ry="0.00" width="12.60" height="12.60"/>
    <rect x="145.7000" y="75.7000" rx="0.00" ry="0.00" width="12.60" height="12.60"/>
    <rect x="145.7000" y="61.7000" rx="0.00" ry="0.00" width="12.60" height="12.60"/>
    <rect x="145.7000" y="47.7000" rx="0.00" ry="0.00" width="12.60" height="12.60"/>
    <rect x="145.7000" y="33.7000" rx="0.00" ry="0.00" width="12.60" height="12.60"/>
    <rect x="145.7000" y="19.7000" rx="0.00" ry="0.00" width="12.60" height="12.60"/>
    <rect x="145.7000" y="5.7000" rx="0.00" ry="0.00" width="12.60" height="12.60"/>
    <rect x="159.7000" y="103.7000" rx="0.00" ry="0.00" width="12.60" height="12.60"/>
    <rect x="159.7000" y="89.7000" rx="0.00" ry="0.00" width="12.60" height="12.60"/>
    <rect x="159.7000" y="75.7000" rx="0.00" ry="0.00" width="12.60" height="12.60"/>
    <rect x="159.7000" y="61.7000" rx="0.00" ry="0.00" width="12.60" height="12.60"/>
    <rect x="159.7000" y="47.7000" rx="0.00" ry="0.00" width="12.60" height="12.60"/>
    <rect x="159.7000" y="33.7000" rx="0.00" ry="0.00" width="12.60" height="12.60"/>
    <rect x="159.7000" y="19.7000" rx="0.00" ry="0.00" width="12.60" height="12.60"/>
    <rect x="159.7000" y="5.7000" rx="0.00" ry="0.00" width="12.60" height="12.60"/>
    <rect x="173.7000" y="103.7000" rx="0.00" ry="0.00" width="12.60" height="12.60"/>
    <rect x="173.7000" y="89.7000" rx="0.00" ry="0.00" width="12.60" height="12.60"/>
    <rect x="173.7000" y="75.7000" rx="0.00" ry="0.00" width="12.60" height="12.60"/>
    <rect x="173.7000" y="61.7000" rx="0.00" ry="0.00" width="12.60" height="12.60"/>
    <rect x="173.7000" y="47.7000" rx="0.00" ry="0.00" width="12.60" height="12.60"/>
    <rect x="173.7000" y="33.7000" rx="0.00" ry="0.00" width="12.60" height="12.60"/>
    <rect x="173.7000" y="19.7000" rx="0.00" ry="0.00" width="12.60" height="12.60"/>
    <rect x="173.7000" y="5.7000" rx="0.00" ry="0.00" width="12.60" height="12.60"/>
    <rect x="187.7000" y="103.7000" rx="0.00" ry="0.00" width="12.60" height="12.60"/>
    <rect x="187.7000" y="89.7000" rx="0.00" ry="0.00" width="12.60" height="12.60"/>
    <rect x="187.7000" y="75.7000" rx="0.00" ry="0.00" width="12.60" height="12.60"/>
    <rect x="187.7000" y="61.7000" rx="0.00" ry="0.00" width="12.60" height="12.60"/>
    <rect x="187.7000" y="47.7000" rx="0.00" ry="0.00" width="12.60" height="12.60"/>
    <rect x="187.7000" y="33.7000" rx="0.00" ry="0.00" width="12.60" height="12.60"/>
    <rect x="187.7000" y="19.7000" rx="0.00" ry="0.00" width="12.60" height="12.60"/>
    <rect x="187.7000" y="5.7000" rx="0.00" ry="0.00" width="12.60" height="12.60"/>
    <rect x="201.7000" y="103.7000" rx="0.00" ry="0.00" width="12.60" height="12.60"/>
    <rect x="201.7000" y="89.7000" rx="0.00" ry="0.00" width="12.60" height="12.60"/>
    <rect x="201.7000" y="75.7000" rx="0.00" ry="0.00" width="12.60" height="12.60"/>
    <rect x="201.7000" y="61.7000" rx="0.00" ry="0.00" width="12.60" height="12.60"/>
    <rect x="201.7000" y="47.7000" rx="0.00" ry="0.00" width="12.60" height="12.60"/>
    <rect x="201.7000" y="33.7000" rx="0.00" ry="0.00" width="12.60" height="12.60"/>
    <rect x="201.7000" y="19.7000" rx="0.00" ry="0.00" width="12.60" height="12.60"/>
    <rect x="201.7000" y="5.7000" rx="0.00" ry="0.00" width="12.60" height="12.60"/>
    <rect x="215.7000" y="103.7000" rx="0.00" ry="0.00" width="12.60" height="12.60"/>
    <rect x="215.7000" y="89.7000" rx="0.00" ry="0.00" width="12.60" height="12.60"/>
    <rect x="215.7000" y="75.7000" rx="0.00" ry="0.00" width="12.60" height="12.60"/>
    <rect x="215.7000" y="61.7000" rx="0.00" ry="0.00" width="12.60" height="12.60"/>
    <rect x="215.7000" y="47.7000" rx="0.00" ry="0.00" width="12.60" height="12.60"/>
    <rect x="215.7000" y="33.7000" rx="0.00" ry="0.00" width="12.60" height="12.60"/>
    <rect x="215.7000" y="19.7000" rx="0.00" ry="0.00" width="12.60" height="12.60"/>
  </g>
  <g style="fill:#87CEFA" id="BQ">
    <rect x="215.7000" y="5.7000" rx="0.00" ry="0.00" width="12.60" height="12.60"/>
    <rect x="229.7000" y="103.7000" rx="0.00" ry="0.00" width="12.60" height="12.60"/>
    <rect x="229.7000" y="89.7000" rx="0.00" ry="0.00" width="12.60" height="12.60"/>
    <rect x="229.7000" y="75.7000" rx="0.00" ry="0.00" width="12.60" height="12.60"/>
    <rect x="229.7000" y="61.7000" rx="0.00" ry="0.00" width="12.60" height="12.60"/>
    <rect x="229.7000" y="47.7000" rx="0.00" ry="0.00" width="12.60" height="12.60"/>
    <rect x="229.7000" y="33.7000" rx="0.00" ry="0.00" width="12.60" height="12.60"/>
    <rect x="229.7000" y="19.7000" rx="0.00" ry="0.00" width="12.60" height="12.60"/>
    <rect x="229.7000" y="5.7000" rx="0.00" ry="0.00" width="12.60" height="12.60"/>
    <rect x="243.7000" y="103.7000" rx="0.00" ry="0.00" width="12.60" height="12.60"/>
    <rect x="243.7000" y="89.7000" rx="0.00" ry="0.00" width="12.60" height="12.60"/>
    <rect x="243.7000" y="75.7000" rx="0.00" ry="0.00" width="12.60" height="12.60"/>
    <rect x="243.7000" y="61.7000" rx="0.00" ry="0.00" width="12.60" height="12.60"/>
    <rect x="243.7000" y="47.7000" rx="0.00" ry="0.00" width="12.60" height="12.60"/>
    <rect x="243.7000" y="33.7000" rx="0.00" ry="0.00" width="12.60" height="12.60"/>
    <rect x="243.7000" y="19.7000" rx="0.00" ry="0.00" width="12.60" height="12.60"/>
    <rect x="243.7000" y="5.7000" rx="0.00" ry="0.00" width="12.60" height="12.60"/>
    <rect x="257.7000" y="103.7000" rx="0.00" ry="0.00" width="12.60" height="12.60"/>
    <rect x="257.7000" y="89.7000" rx="0.00" ry="0.00" width="12.60" height="12.60"/>
    <rect x="257.7000" y="75.7000" rx="0.00" ry="0.00" width="12.60" height="12.60"/>
    <rect x="257.7000" y="61.7000" rx="0.00" ry="0.00" width="12.60" height="12.60"/>
    <rect x="257.7000" y="47.7000" rx="0.00" ry="0.00" width="12.60" height="12.60"/>
    <rect x="257.7000" y="33.7000" rx="0.00" ry="0.00" width="12.60" height="12.60"/>
    <rect x="257.7000" y="19.7000" rx="0.00" ry="0.00" width="12.60" height="12.60"/>
    <rect x="257.7000" y="5.7000" rx="0.00" ry="0.00" width="12.60" height="12.60"/>
    <rect x="271.7000" y="103.7000" rx="0.00" ry="0.00" width="12.60" height="12.60"/>
    <rect x="271.7000" y="89.7000" rx="0.00" ry="0.00" width="12.60" height="12.60"/>
    <rect x="271.7000" y="75.7000" rx="0.00" ry="0.00" width="12.60" height="12.60"/>
    <rect x="271.7000" y="61.7000" rx="0.00" ry="0.00" width="12.60" height="12.60"/>
    <rect x="271.7000" y="47.7000" rx="0.00" ry="0.00" width="12.60" height="12.60"/>
    <rect x="271.7000" y="33.7000" rx="0.00" ry="0.00" width="12.60" height="12.60"/>
    <rect x="271.7000" y="19.7000" rx="0.00" ry="0.00" width="12.60" height="12.60"/>
    <rect x="271.7000" y="5.7000" rx="0.00" ry="0.00" width="12.60" height="12.60"/>
  </g>
  </g>
  <g id="rightbench">
  <g style="fill:#EA6D6A" id="LPC">
    <rect x="19.7000" y="145.7000" rx="0.00" ry="0.00" width="12.60" height="12.60"/>
    <rect x="19.7000" y="159.7000" rx="0.00" ry="0.00" width="12.60" height="12.60"/>
    <rect x="19.7000" y="173.7000" rx="0.00" ry="0.00" width="12.60" height="12.60"/>
    <rect x="19.7000" y="187.7000" rx="0.00" ry="0.00" width="12.60" height="12.60"/>
    <rect x="19.7000" y="201.7000" rx="0.00" ry="0.00" width="12.60" height="12.60"/>
    <rect x="19.7000" y="215.7000" rx="0.00" ry="0.00" width="12.60" height="12.60"/>
    <rect x="19.7000" y="229.7000" rx="0.00" ry="0.00" width="12.60" height="12.60"/>
    <rect x="19.7000" y="243.7000" rx="0.00" ry="0.00" width="12.60" height="12.60"/>
    <rect x="33.7000" y="145.7000" rx="0.00" ry="0.00" width="12.60" height="12.60"/>
    <rect x="33.7000" y="159.7000" rx="0.00" ry="0.00" width="12.60" height="12.60"/>
    <rect x="33.7000" y="173.7000" rx="0.00" ry="0.00" width="12.60" height="12.60"/>
    <rect x="33.7000" y="187.7000" rx="0.00" ry="0.00" width="12.60" height="12.60"/>
    <rect x="33.7000" y="201.7000" rx="0.00" ry="0.00" width="12.60" height="12.60"/>
    <rect x="33.7000" y="215.7000" rx="0.00" ry="0.00" width="12.60" height="12.60"/>
    <rect x="33.7000" y="229.7000" rx="0.00" ry="0.00" width="12.60" height="12.60"/>
    <rect x="33.7000" y="243.7000" rx="0.00" ry="0.00" width="12.60" height="12.60"/>
    <rect x="47.7000" y="145.7000" rx="0.00" ry="0.00" width="12.60" height="12.60"/>
    <rect x="47.7000" y="159.7000" rx="0.00" ry="0.00" width="12.60" height="12.60"/>
    <rect x="47.7000" y="173.7000" rx="0.00" ry="0.00" width="12.60" height="12.60"/>
    <rect x="47.7000" y="187.7000" rx="0.00" ry="0.00" width="12.60" height="12.60"/>
    <rect x="47.7000" y="201.7000" rx="0.00" ry="0.00" width="12.60" height="12.60"/>
    <rect x="47.7000" y="215.7000" rx="0.00" ry="0.00" width="12.60" height="12.60"/>
    <rect x="47.7000" y="229.7000" rx="0.00" ry="0.00" width="12.60" height="12.60"/>
    <rect x="47.7000" y="243.7000" rx="0.00" ry="0.00" width="12.60" height="12.60"/>
    <rect x="61.7000" y="145.7000" rx="0.00" ry="0.00" width="12.60" height="12.60"/>
    <rect x="61.7000" y="159.7000" rx="0.00" ry="0.00" width="12.60" height="12.60"/>
    <rect x="61.7000" y="173.7000" rx="0.00" ry="0.00" width="12.60" height="12.60"/>
    <rect x="61.7000" y="187.7000" rx="0.00" ry="0.00" width="12.60" height="12.60"/>
    <rect x="61.7000" y="201.7000" rx="0.00" ry="0.00" width="12.60" height="12.60"/>
    <rect x="61.7000" y="215.7000" rx="0.00" ry="0.00" width="12.60" height="12.60"/>
    <rect x="61.7000" y="229.7000" rx="0.00" ry="0.00" width="12.60" height="12.60"/>
    <rect x="61.7000" y="243.7000" rx="0.00" ry="0.00" width="12.60" height="12.60"/>
    <rect x="75.7000" y="145.7000" rx="0.00" ry="0.00" width="12.60" height="12.60"/>
    <rect x="75.7000" y="159.7000" rx="0.00" ry="0.00" width="12.60" height="12.60"/>
    <rect x="75.7000" y="173.7000" rx="0.00" ry="0.00" width="12.60" height="12.60"/>
    <rect x="75.7000" y="187.7000" rx="0.00" ry="0.00" width="12.60" height="12.60"/>
    <rect x="75.7000" y="201.7000" rx="0.00" ry="0.00" width="12.60" height="12.60"/>
    <rect x="75.7000" y="215.7000" rx="0.00" ry="0.00" width="12.60" height="12.60"/>
    <rect x="75.7000" y="229.7000" rx="0.00" ry="0.00" width="12.60" height="12.60"/>
    <rect x="75.7000" y="243.7000" rx="0.00" ry="0.00" width="12.60" height="12.60"/>
    <rect x="89.7000" y="145.7000" rx="0.00" ry="0.00" width="12.60" height="12.60"/>
    <rect x="89.7000" y="159.7000" rx="0.00" ry="0.00" width="12.60" height="12.60"/>
    <rect x="89.7000" y="173.7000" rx="0.00" ry="0.00" width="12.60" height="12.60"/>
    <rect x="89.7000" y="187.7000" rx="0.00" ry="0.00" width="12.60" height="12.60"/>
    <rect x="89.7000" y="201.7000" rx="0.00" ry="0.00" width="12.60" height="12.60"/>
    <rect x="89.7000" y="215.7000" rx="0.00" ry="0.00" width="12.60" height="12.60"/>
    <rect x="89.7000" y="229.7000" rx="0.00" ry="0.00" width="12.60" height="12.60"/>
    <rect x="89.7000" y="243.7000" rx="0.00" ry="0.00" width="12.60" height="12.60"/>
    <rect x="103.7000" y="145.7000" rx="0.00" ry="0.00" width="12.60" height="12.60"/>
    <rect x="103.7000" y="159.7000" rx="0.00" ry="0.00" width="12.60" height="12.60"/>
    <rect x="103.7000" y="173.7000" rx="0.00" ry="0.00" width="12.60" height="12.60"/>
    <rect x="103.7000" y="187.7000" rx="0.00" ry="0.00" width="12.60" height="12.60"/>
    <rect x="103.7000" y="201.7000" rx="0.00" ry="0.00" width="12.60" height="12.60"/>
    <rect x="103.7000" y="215.7000" rx="0.00" ry="0.00" width="12.60" height="12.60"/>
    <rect x="103.7000" y="229.7000" rx="0.00" ry="0.00" width="12.60" height="12.60"/>
    <rect x="103.7000" y="243.7000" rx="0.00" ry="0.00" width="12.60" height="12.60"/>
    <rect x="117.7000" y="145.7000" rx="0.00" ry="0.00" width="12.60" height="12.60"/>
    <rect x="117.7000" y="159.7000" rx="0.00" ry="0.00" width="12.60" height="12.60"/>
    <rect x="117.7000" y="173.7000" rx="0.00" ry="0.00" width="12.60" height="12.60"/>
    <rect x="117.7000" y="187.7000" rx="0.00" ry="0.00" width="12.60" height="12.60"/>
    <rect x="117.7000" y="201.7000" rx="0.00" ry="0.00" width="12.60" height="12.60"/>
    <rect x="117.7000" y="215.7000" rx="0.00" ry="0.00" width="12.60" height="12.60"/>
    <rect x="117.7000" y="229.7000" rx="0.00" ry="0.00" width="12.60" height="12.60"/>
    <rect x="117.7000" y="243.7000" rx="0.00" ry="0.00" width="12.60" height="12.60"/>
    <rect x="131.7000" y="145.7000" rx="0.00" ry="0.00" width="12.60" height="12.60"/>
    <rect x="131.7000" y="159.7000" rx="0.00" ry="0.00" width="12.60" height="12.60"/>
    <rect x="131.7000" y="173.7000" rx="0.00" ry="0.00" width="12.60" height="12.60"/>
    <rect x="131.7000" y="187.7000" rx="0.00" ry="0.00" width="12.60" height="12.60"/>
    <rect x="131.7000" y="201.7000" rx="0.00" ry="0.00" width="12.60" height="12.60"/>
    <rect x="131.7000" y="215.7000" rx="0.00" ry="0.00" width="12.60" height="12.60"/>
    <rect x="131.7000" y="229.7000" rx="0.00" ry="0.00" width="12.60" height="12.60"/>
    <rect x="131.7000" y="243.7000" rx="0.00" ry="0.00" width="12.60" height="12.60"/>
    <rect x="145.7000" y="145.7000" rx="0.00" ry="0.00" width="12.60" height="12.60"/>
    <rect x="145.7000" y="159.7000" rx="0.00" ry="0.00" width="12.60" height="12.60"/>
    <rect x="145.7000" y="173.7000" rx="0.00" ry="0.00" width="12.60" height="12.60"/>
    <rect x="145.7000" y="187.7000" rx="0.00" ry="0.00" width="12.60" height="12.60"/>
    <rect x="145.7000" y="201.7000" rx="0.00" ry="0.00" width="12.60" height="12.60"/>
    <rect x="145.7000" y="215.7000" rx="0.00" ry="0.00" width="12.60" height="12.60"/>
    <rect x="145.7000" y="229.7000" rx="0.00" ry="0.00" width="12.60" height="12.60"/>
    <rect x="145.7000" y="243.7000" rx="0.00" ry="0.00" width="12.60" height="12.60"/>
    <rect x="159.7000" y="145.7000" rx="0.00" ry="0.00" width="12.60" height="12.60"/>
    <rect x="159.7000" y="159.7000" rx="0.00" ry="0.00" width="12.60" height="12.60"/>
    <rect x="159.7000" y="173.7000" rx="0.00" ry="0.00" width="12.60" height="12.60"/>
    <rect x="159.7000" y="187.7000" rx="0.00" ry="0.00" width="12.60" height="12.60"/>
    <rect x="159.7000" y="201.7000" rx="0.00" ry="0.00" width="12.60" height="12.60"/>
    <rect x="159.7000" y="215.7000" rx="0.00" ry="0.00" width="12.60" height="12.60"/>
    <rect x="159.7000" y="229.7000" rx="0.00" ry="0.00" width="12.60" height="12.60"/>
    <rect x="159.7000" y="243.7000" rx="0.00" ry="0.00" width="12.60" height="12.60"/>
    <rect x="173.7000" y="145.7000" rx="0.00" ry="0.00" width="12.60" height="12.60"/>
    <rect x="173.7000" y="159.7000" rx="0.00" ry="0.00" width="12.60" height="12.60"/>
    <rect x="173.7000" y="173.7000" rx="0.00" ry="0.00" width="12.60" height="12.60"/>
    <rect x="173.7000" y="187.7000" rx="0.00" ry="0.00" width="12.60" height="12.60"/>
    <rect x="173.7000" y="201.7000" rx="0.00" ry="0.00" width="12.60" height="12.60"/>
    <rect x="173.7000" y="215.7000" rx="0.00" ry="0.00" width="12.60" height="12.60"/>
    <rect x="173.7000" y="229.7000" rx="0.00" ry="0.00" width="12.60" height="12.60"/>
    <rect x="173.7000" y="243.7000" rx="0.00" ry="0.00" width="12.60" height="12.60"/>
    <rect x="187.7000" y="145.7000" rx="0.00" ry="0.00" width="12.60" height="12.60"/>
    <rect x="187.7000" y="159.7000" rx="0.00" ry="0.00" width="12.60" height="12.60"/>
    <rect x="187.7000" y="173.7000" rx="0.00" ry="0.00" width="12.60" height="12.60"/>
    <rect x="187.7000" y="187.7000" rx="0.00" ry="0.00" width="12.60" height="12.60"/>
    <rect x="187.7000" y="201.7000" rx="0.00" ry="0.00" width="12.60" height="12.60"/>
    <rect x="187.7000" y="215.7000" rx="0.00" ry="0.00" width="12.60" height="12.60"/>
    <rect x="187.7000" y="229.7000" rx="0.00" ry="0.00" width="12.60" height="12.60"/>
    <rect x="187.7000" y="243.7000" rx="0.00" ry="0.00" width="12.60" height="12.60"/>
    <rect x="201.7000" y="145.7000" rx="0.00" ry="0.00" width="12.60" height="12.60"/>
    <rect x="201.7000" y="159.7000" rx="0.00" ry="0.00" width="12.60" height="12.60"/>
    <rect x="201.7000" y="173.7000" rx="0.00" ry="0.00" width="12.60" height="12.60"/>
    <rect x="201.7000" y="187.7000" rx="0.00" ry="0.00" width="12.60" height="12.60"/>
    <rect x="201.7000" y="201.7000" rx="0.00" ry="0.00" width="12.60" height="12.60"/>
    <rect x="201.7000" y="215.7000" rx="0.00" ry="0.00" width="12.60" height="12.60"/>
    <rect x="201.7000" y="229.7000" rx="0.00" ry="0.00" width="12.60" height="12.60"/>
    <rect x="201.7000" y="243.7000" rx="0.00" ry="0.00" width="12.60" height="12.60"/>
    <rect x="215.7000" y="145.7000" rx="0.00" ry="0.00" width="12.60" height="12.60"/>
    <rect x="215.7000" y="159.7000" rx="0.00" ry="0.00" width="12.60" height="12.60"/>
    <rect x="215.7000" y="173.7000" rx="0.00" ry="0.00" width="12.60" height="12.60"/>
    <rect x="215.7000" y="187.7000" rx="0.00" ry="0.00" width="12.60" height="12.60"/>
    <rect x="215.7000" y="201.7000" rx="0.00" ry="0.00" width="12.60" height="12.60"/>
    <rect x="215.7000" y="215.7000" rx="0.00" ry="0.00" width="12.60" height="12.60"/>
    <rect x="215.7000" y="229.7000" rx="0.00" ry="0.00" width="12.60" height="12.60"/>
    <rect x="215.7000" y="243.7000" rx="0.00" ry="0.00" width="12.60" height="12.60"/>
    <rect x="229.7000" y="145.7000" rx="0.00" ry="0.00" width="12.60" height="12.60"/>
    <rect x="229.7000" y="159.7000" rx="0.00" ry="0.00" width="12.60" height="12.60"/>
    <rect x="229.7000" y="173.7000" rx="0.00" ry="0.00" width="12.60" height="12.60"/>
    <rect x="229.7000" y="187.7000" rx="0.00" ry="0.00" width="12.60" height="12.60"/>
    <rect x="229.7000" y="201.7000" rx="0.00" ry="0.00" width="12.60" height="12.60"/>
    <rect x="229.7000" y="215.7000" rx="0.00" ry="0.00" width="12.60" height="12.60"/>
    <rect x="229.7000" y="229.7000" rx="0.00" ry="0.00" width="12.60" height="12.60"/>
    <rect x="229.7000" y="243.7000" rx="0.00" ry="0.00" width="12.60" height="12.60"/>
    <rect x="243.7000" y="145.7000" rx="0.00" ry="0.00" width="12.60" height="12.60"/>
    <rect x="243.7000" y="159.7000" rx="0.00" ry="0.00" width="12.60" height="12.60"/>
    <rect x="243.7000" y="173.7000" rx="0.00" ry="0.00" width="12.60" height="12.60"/>
    <rect x="243.7000" y="187.7000" rx="0.00" ry="0.00" width="12.60" height="12.60"/>
    <rect x="243.7000" y="201.7000" rx="0.00" ry="0.00" width="12.60" height="12.60"/>
    <rect x="243.7000" y="215.7000" rx="0.00" ry="0.00" width="12.60" height="12.60"/>
    <rect x="243.7000" y="229.7000" rx="0.00" ry="0.00" width="12.60" height="12.60"/>
    <rect x="243.7000" y="243.7000" rx="0.00" ry="0.00" width="12.60" height="12.60"/>
    <rect x="257.7000" y="145.7000" rx="0.00" ry="0.00" width="12.60" height="12.60"/>
    <rect x="257.7000" y="159.7000" rx="0.00" ry="0.00" width="12.60" height="12.60"/>
    <rect x="257.7000" y="173.7000" rx="0.00" ry="0.00" width="12.60" height="12.60"/>
    <rect x="257.7000" y="187.7000" rx="0.00" ry="0.00" width="12.60" height="12.60"/>
    <rect x="257.7000" y="201.7000" rx="0.00" ry="0.00" width="12.60" height="12.60"/>
    <rect x="257.7000" y="215.7000" rx="0.00" ry="0.00" width="12.60" height="12.60"/>
    <rect x="257.7000" y="229.7000" rx="0.00" ry="0.00" width="12.60" height="12.60"/>
    <rect x="257.7000" y="243.7000" rx="0.00" ry="0.00" width="12.60" height="12.60"/>
    <rect x="271.7000" y="145.7000" rx="0.00" ry="0.00" width="12.60" height="12.60"/>
    <rect x="271.7000" y="159.7000" rx="0.00" ry="0.00" width="12.60" height="12.60"/>
    <rect x="271.7000" y="173.7000" rx="0.00" ry="0.00" width="12.60" height="12.60"/>
    <rect x="271.7000" y="187.7000" rx="0.00" ry="0.00" width="12.60" height="12.60"/>
    <rect x="271.7000" y="201.7000" rx="0.00" ry="0.00" width="12.60" height="12.60"/>
    <rect x="271.7000" y="215.7000" rx="0.00" ry="0.00" width="12.60" height="12.60"/>
    <rect x="271.7000" y="229.7000" rx="0.00" ry="0.00" width="12.60" height="12.60"/>
    <rect x="271.7000" y="243.7000" rx="0.00" ry="0.00" width="12.60" height="12.60"/>
    <rect x="285.7000" y="145.7000" rx="0.00" ry="0.00" width="12.60" height="12.60"/>
    <rect x="285.7000" y="159.7000" rx="0.00" ry="0.00" width="12.60" height="12.60"/>
    <rect x="285.7000" y="173.7000" rx="0.00" ry="0.00" width="12.60" height="12.60"/>
    <rect x="285.7000" y="187.7000" rx="0.00" ry="0.00" width="12.60" height="12.60"/>
    <rect x="285.7000" y="201.7000" rx="0.00" ry="0.00" width="12.60" height="12.60"/>
    <rect x="285.7000" y="215.7000" rx="0.00" ry="0.00" width="12.60" height="12.60"/>
    <rect x="285.7000" y="229.7000" rx="0.00" ry="0.00" width="12.60" height="12.60"/>
  </g>
  <g style="fill:#F4A460" id="NDP">
    <rect x="285.7000" y="243.7000" rx="0.00" ry="0.00" width="12.60" height="12.60"/>
    <rect x="299.7000" y="145.7000" rx="0.00" ry="0.00" width="12.60" height="12.60"/>
    <rect x="299.7000" y="159.7000" rx="0.00" ry="0.00" width="12.60" height="12.60"/>
    <rect x="299.7000" y="173.7000" rx="0.00" ry="0.00" width="12.60" height="12.60"/>
    <rect x="299.7000" y="187.7000" rx="0.00" ry="0.00" width="12.60" height="12.60"/>
    <rect x="299.7000" y="201.7000" rx="0.00" ry="0.00" width="12.60" height="12.60"/>
    <rect x="299.7000" y="215.7000" rx="0.00" ry="0.00" width="12.60" height="12.60"/>
    <rect x="299.7000" y="229.7000" rx="0.00" ry="0.00" width="12.60" height="12.60"/>
    <rect x="299.7000" y="243.7000" rx="0.00" ry="0.00" width="12.60" height="12.60"/>
    <rect x="313.7000" y="145.7000" rx="0.00" ry="0.00" width="12.60" height="12.60"/>
    <rect x="313.7000" y="159.7000" rx="0.00" ry="0.00" width="12.60" height="12.60"/>
    <rect x="313.7000" y="173.7000" rx="0.00" ry="0.00" width="12.60" height="12.60"/>
    <rect x="313.7000" y="187.7000" rx="0.00" ry="0.00" width="12.60" height="12.60"/>
    <rect x="313.7000" y="201.7000" rx="0.00" ry="0.00" width="12.60" height="12.60"/>
    <rect x="313.7000" y="215.7000" rx="0.00" ry="0.00" width="12.60" height="12.60"/>
    <rect x="313.7000" y="229.7000" rx="0.00" ry="0.00" width="12.60" height="12.60"/>
    <rect x="313.7000" y="243.7000" rx="0.00" ry="0.00" width="12.60" height="12.60"/>
    <rect x="327.7000" y="145.7000" rx="0.00" ry="0.00" width="12.60" height="12.60"/>
    <rect x="327.7000" y="159.7000" rx="0.00" ry="0.00" width="12.60" height="12.60"/>
    <rect x="327.7000" y="173.7000" rx="0.00" ry="0.00" width="12.60" height="12.60"/>
    <rect x="327.7000" y="187.7000" rx="0.00" ry="0.00" width="12.60" height="12.60"/>
    <rect x="327.7000" y="201.7000" rx="0.00" ry="0.00" width="12.60" height="12.60"/>
    <rect x="327.7000" y="215.7000" rx="0.00" ry="0.00" width="12.60" height="12.60"/>
    <rect x="327.7000" y="229.7000" rx="0.00" ry="0.00" width="12.60" height="12.60"/>
    <rect x="327.7000" y="243.7000" rx="0.00" ry="0.00" width="12.60" height="12.60"/>
  </g>
  <g style="fill:#99C955" id="GRE">
    <rect x="341.7000" y="145.7000" rx="0.00" ry="0.00" width="12.60" height="12.60"/>
    <rect x="341.7000" y="159.7000" rx="0.00" ry="0.00" width="12.60" height="12.60"/>
  </g>
  </g>
  <g id="centerbench">
  </g>
</g>
</svg>
