<?xml version="1.0" encoding="UTF-8" standalone="no"?>
<svg xmlns:svg="http://www.w3.org/2000/svg"
     xmlns="http://www.w3.org/2000/svg" version="1.1"
     width="360" height="185">
    <!-- Created with the Wikimedia parliament diagram creator (http://parliamentdiagram.toolforge.org/parliamentinputform.html) -->
    <g>
        <text x="175" y="175" 
              style="font-size:36px;font-weight:bold;text-align:center;text-anchor:middle;font-family:sans-serif">
            338
        </text>
        <g style="fill:#99C955; stroke-width:0.00; stroke:#000000" 
           id="0_GRE"> 
            <title>GRE</title>            <circle cx="10.05" cy="176.00" r="4.00"/> 
            <circle cx="20.05" cy="176.00" r="4.00"/> 
        </g>
        <g style="fill:#F4A460; stroke-width:0.00; stroke:#000000" 
           id="1_NDP"> 
            <title>NDP</title>            <circle cx="30.05" cy="176.00" r="4.00"/> 
            <circle cx="40.06" cy="176.00" r="4.00"/> 
            <circle cx="50.06" cy="176.00" r="4.00"/> 
            <circle cx="60.07" cy="176.00" r="4.00"/> 
            <circle cx="70.07" cy="176.00" r="4.00"/> 
            <circle cx="80.08" cy="176.00" r="4.00"/> 
            <circle cx="90.09" cy="176.00" r="4.00"/> 
            <circle cx="100.10" cy="176.00" r="4.00"/> 
            <circle cx="10.70" cy="164.59" r="4.00"/> 
            <circle cx="20.78" cy="164.25" r="4.00"/> 
            <circle cx="30.81" cy="164.45" r="4.00"/> 
            <circle cx="40.88" cy="164.36" r="4.00"/> 
            <circle cx="50.96" cy="164.26" r="4.00"/> 
            <circle cx="61.05" cy="164.14" r="4.00"/> 
            <circle cx="71.11" cy="164.41" r="4.00"/> 
            <circle cx="81.24" cy="164.29" r="4.00"/> 
            <circle cx="12.12" cy="153.24" r="4.00"/> 
            <circle cx="22.37" cy="152.58" r="4.00"/> 
            <circle cx="91.41" cy="164.14" r="4.00"/> 
            <circle cx="32.45" cy="152.99" r="4.00"/> 
            <circle cx="42.66" cy="152.83" r="4.00"/> 
            <circle cx="101.63" cy="163.94" r="4.00"/> 
            <circle cx="52.91" cy="152.65" r="4.00"/> 
            <circle cx="14.30" cy="142.01" r="4.00"/> 
            <circle cx="63.21" cy="152.44" r="4.00"/> 
        </g>
        <g style="fill:#EA6D6A; stroke-width:0.00; stroke:#000000" 
           id="2_LPC"> 
            <title>LPC</title>            <circle cx="24.81" cy="141.06" r="4.00"/> 
            <circle cx="73.37" cy="153.00" r="4.00"/> 
            <circle cx="34.98" cy="141.69" r="4.00"/> 
            <circle cx="83.77" cy="152.80" r="4.00"/> 
            <circle cx="45.40" cy="141.49" r="4.00"/> 
            <circle cx="17.23" cy="130.96" r="4.00"/> 
            <circle cx="55.90" cy="141.27" r="4.00"/> 
            <circle cx="94.29" cy="152.55" r="4.00"/> 
            <circle cx="28.09" cy="129.76" r="4.00"/> 
            <circle cx="66.51" cy="141.01" r="4.00"/> 
            <circle cx="38.36" cy="130.62" r="4.00"/> 
            <circle cx="76.81" cy="141.89" r="4.00"/> 
            <circle cx="104.96" cy="152.26" r="4.00"/> 
            <circle cx="20.89" cy="120.13" r="4.00"/> 
            <circle cx="49.07" cy="130.42" r="4.00"/> 
            <circle cx="32.20" cy="118.72" r="4.00"/> 
            <circle cx="59.92" cy="130.20" r="4.00"/> 
            <circle cx="87.63" cy="141.68" r="4.00"/> 
            <circle cx="42.59" cy="119.84" r="4.00"/> 
            <circle cx="25.28" cy="109.57" r="4.00"/> 
            <circle cx="70.93" cy="129.97" r="4.00"/> 
            <circle cx="98.67" cy="141.45" r="4.00"/> 
            <circle cx="53.66" cy="119.69" r="4.00"/> 
            <circle cx="81.42" cy="131.20" r="4.00"/> 
            <circle cx="37.11" cy="108.02" r="4.00"/> 
            <circle cx="64.91" cy="119.54" r="4.00"/> 
            <circle cx="47.64" cy="109.42" r="4.00"/> 
            <circle cx="30.36" cy="99.33" r="4.00"/> 
            <circle cx="110.03" cy="141.21" r="4.00"/> 
            <circle cx="92.77" cy="131.09" r="4.00"/> 
            <circle cx="59.12" cy="109.38" r="4.00"/> 
            <circle cx="76.42" cy="119.41" r="4.00"/> 
            <circle cx="42.79" cy="97.70" r="4.00"/> 
            <circle cx="36.12" cy="89.45" r="4.00"/> 
            <circle cx="87.12" cy="121.06" r="4.00"/> 
            <circle cx="53.48" cy="99.42" r="4.00"/> 
            <circle cx="70.86" cy="109.38" r="4.00"/> 
            <circle cx="104.49" cy="131.03" r="4.00"/> 
            <circle cx="65.42" cy="99.56" r="4.00"/> 
            <circle cx="49.21" cy="87.83" r="4.00"/> 
            <circle cx="82.93" cy="109.45" r="4.00"/> 
            <circle cx="99.12" cy="121.19" r="4.00"/> 
            <circle cx="42.53" cy="79.99" r="4.00"/> 
            <circle cx="60.07" cy="89.90" r="4.00"/> 
            <circle cx="116.72" cy="131.06" r="4.00"/> 
            <circle cx="77.69" cy="99.79" r="4.00"/> 
            <circle cx="93.87" cy="111.58" r="4.00"/> 
            <circle cx="56.34" cy="78.47" r="4.00"/> 
            <circle cx="72.52" cy="90.29" r="4.00"/> 
            <circle cx="49.57" cy="70.97" r="4.00"/> 
            <circle cx="111.63" cy="121.47" r="4.00"/> 
            <circle cx="67.38" cy="80.92" r="4.00"/> 
            <circle cx="90.39" cy="100.18" r="4.00"/> 
            <circle cx="106.59" cy="112.09" r="4.00"/> 
            <circle cx="85.37" cy="90.87" r="4.00"/> 
            <circle cx="64.15" cy="69.65" r="4.00"/> 
            <circle cx="57.19" cy="62.45" r="4.00"/> 
            <circle cx="101.58" cy="102.86" r="4.00"/> 
            <circle cx="80.36" cy="81.66" r="4.00"/> 
            <circle cx="75.36" cy="72.53" r="4.00"/> 
            <circle cx="124.86" cy="122.04" r="4.00"/> 
            <circle cx="98.74" cy="91.70" r="4.00"/> 
            <circle cx="65.37" cy="54.46" r="4.00"/> 
            <circle cx="72.58" cy="61.42" r="4.00"/> 
            <circle cx="119.98" cy="112.93" r="4.00"/> 
            <circle cx="93.82" cy="82.67" r="4.00"/> 
            <circle cx="88.89" cy="73.70" r="4.00"/> 
            <circle cx="115.08" cy="103.94" r="4.00"/> 
            <circle cx="83.96" cy="64.78" r="4.00"/> 
            <circle cx="110.16" cy="95.01" r="4.00"/> 
            <circle cx="74.07" cy="47.04" r="4.00"/> 
            <circle cx="81.59" cy="53.85" r="4.00"/> 
            <circle cx="107.88" cy="84.09" r="4.00"/> 
            <circle cx="102.98" cy="75.27" r="4.00"/> 
            <circle cx="98.06" cy="66.48" r="4.00"/> 
            <circle cx="93.13" cy="57.71" r="4.00"/> 
            <circle cx="134.28" cy="114.35" r="4.00"/> 
            <circle cx="83.25" cy="40.22" r="4.00"/> 
            <circle cx="129.38" cy="105.58" r="4.00"/> 
            <circle cx="91.13" cy="46.95" r="4.00"/> 
            <circle cx="124.47" cy="96.84" r="4.00"/> 
            <circle cx="119.53" cy="88.11" r="4.00"/> 
            <circle cx="117.73" cy="77.42" r="4.00"/> 
            <circle cx="112.77" cy="68.74" r="4.00"/> 
            <circle cx="107.80" cy="60.06" r="4.00"/> 
            <circle cx="102.82" cy="51.38" r="4.00"/> 
            <circle cx="92.86" cy="34.03" r="4.00"/> 
            <circle cx="101.16" cy="40.77" r="4.00"/> 
            <circle cx="129.57" cy="82.24" r="4.00"/> 
            <circle cx="134.62" cy="90.89" r="4.00"/> 
            <circle cx="102.87" cy="28.50" r="4.00"/> 
            <circle cx="139.68" cy="99.54" r="4.00"/> 
            <circle cx="112.97" cy="45.81" r="4.00"/> 
            <circle cx="118.04" cy="54.46" r="4.00"/> 
            <circle cx="144.75" cy="108.18" r="4.00"/> 
            <circle cx="123.11" cy="63.11" r="4.00"/> 
            <circle cx="128.20" cy="71.76" r="4.00"/> 
            <circle cx="111.61" cy="35.35" r="4.00"/> 
            <circle cx="113.23" cy="23.66" r="4.00"/> 
            <circle cx="123.52" cy="41.04" r="4.00"/> 
            <circle cx="128.70" cy="49.74" r="4.00"/> 
            <circle cx="140.18" cy="77.46" r="4.00"/> 
            <circle cx="122.43" cy="30.71" r="4.00"/> 
            <circle cx="133.92" cy="58.44" r="4.00"/> 
            <circle cx="145.40" cy="86.18" r="4.00"/> 
            <circle cx="139.17" cy="67.16" r="4.00"/> 
            <circle cx="123.89" cy="19.53" r="4.00"/> 
            <circle cx="150.68" cy="94.91" r="4.00"/> 
            <circle cx="134.41" cy="37.10" r="4.00"/> 
            <circle cx="156.04" cy="103.67" r="4.00"/> 
            <circle cx="133.57" cy="26.89" r="4.00"/> 
            <circle cx="139.73" cy="45.92" r="4.00"/> 
            <circle cx="145.10" cy="54.77" r="4.00"/> 
            <circle cx="134.80" cy="16.12" r="4.00"/> 
            <circle cx="151.24" cy="73.83" r="4.00"/> 
            <circle cx="150.55" cy="63.67" r="4.00"/> 
            <circle cx="156.67" cy="82.76" r="4.00"/> 
            <circle cx="145.57" cy="34.01" r="4.00"/> 
            <circle cx="144.95" cy="23.89" r="4.00"/> 
            <circle cx="151.03" cy="43.03" r="4.00"/> 
            <circle cx="145.92" cy="13.45" r="4.00"/> 
            <circle cx="162.20" cy="91.78" r="4.00"/> 
            <circle cx="156.58" cy="52.13" r="4.00"/> 
            <circle cx="162.61" cy="71.38" r="4.00"/> 
            <circle cx="156.93" cy="31.78" r="4.00"/> 
            <circle cx="167.88" cy="100.92" r="4.00"/> 
            <circle cx="162.21" cy="61.33" r="4.00"/> 
            <circle cx="156.53" cy="21.73" r="4.00"/> 
            <circle cx="157.20" cy="11.54" r="4.00"/> 
            <circle cx="162.54" cy="41.09" r="4.00"/> 
            <circle cx="168.25" cy="80.69" r="4.00"/> 
            <circle cx="168.24" cy="50.53" r="4.00"/> 
            <circle cx="168.43" cy="30.45" r="4.00"/> 
            <circle cx="168.23" cy="20.43" r="4.00"/> 
            <circle cx="168.57" cy="10.38" r="4.00"/> 
            <circle cx="174.03" cy="90.20" r="4.00"/> 
            <circle cx="174.18" cy="70.15" r="4.00"/> 
            <circle cx="174.05" cy="60.15" r="4.00"/> 
            <circle cx="174.17" cy="40.12" r="4.00"/> 
            <circle cx="180.00" cy="20.00" r="4.00"/> 
            <circle cx="180.00" cy="10.00" r="4.00"/> 
            <circle cx="180.00" cy="30.00" r="4.00"/> 
            <circle cx="180.00" cy="50.00" r="4.00"/> 
            <circle cx="180.00" cy="80.00" r="4.00"/> 
            <circle cx="180.00" cy="100.00" r="4.00"/> 
            <circle cx="185.83" cy="40.12" r="4.00"/> 
            <circle cx="185.95" cy="60.15" r="4.00"/> 
            <circle cx="185.82" cy="70.15" r="4.00"/> 
            <circle cx="185.97" cy="90.20" r="4.00"/> 
            <circle cx="191.43" cy="10.38" r="4.00"/> 
            <circle cx="191.77" cy="20.43" r="4.00"/> 
            <circle cx="191.57" cy="30.45" r="4.00"/> 
            <circle cx="191.76" cy="50.53" r="4.00"/> 
            <circle cx="191.75" cy="80.69" r="4.00"/> 
            <circle cx="197.46" cy="41.09" r="4.00"/> 
            <circle cx="202.80" cy="11.54" r="4.00"/> 
            <circle cx="203.47" cy="21.73" r="4.00"/> 
            <circle cx="197.79" cy="61.33" r="4.00"/> 
            <circle cx="192.12" cy="100.92" r="4.00"/> 
        </g>
        <g style="fill:#87CEFA; stroke-width:0.00; stroke:#000000" 
           id="3_BQ"> 
            <title>BQ</title>            <circle cx="203.07" cy="31.78" r="4.00"/> 
            <circle cx="197.39" cy="71.38" r="4.00"/> 
            <circle cx="203.42" cy="52.13" r="4.00"/> 
            <circle cx="197.80" cy="91.78" r="4.00"/> 
            <circle cx="214.08" cy="13.45" r="4.00"/> 
            <circle cx="208.97" cy="43.03" r="4.00"/> 
            <circle cx="215.05" cy="23.89" r="4.00"/> 
            <circle cx="214.43" cy="34.01" r="4.00"/> 
            <circle cx="203.33" cy="82.76" r="4.00"/> 
            <circle cx="209.45" cy="63.67" r="4.00"/> 
            <circle cx="208.76" cy="73.83" r="4.00"/> 
            <circle cx="225.20" cy="16.12" r="4.00"/> 
            <circle cx="214.90" cy="54.77" r="4.00"/> 
            <circle cx="220.27" cy="45.92" r="4.00"/> 
            <circle cx="226.43" cy="26.89" r="4.00"/> 
            <circle cx="203.96" cy="103.67" r="4.00"/> 
            <circle cx="225.59" cy="37.10" r="4.00"/> 
            <circle cx="209.32" cy="94.91" r="4.00"/> 
            <circle cx="236.11" cy="19.53" r="4.00"/> 
            <circle cx="220.83" cy="67.16" r="4.00"/> 
            <circle cx="214.60" cy="86.18" r="4.00"/> 
            <circle cx="226.08" cy="58.44" r="4.00"/> 
            <circle cx="237.57" cy="30.71" r="4.00"/> 
            <circle cx="219.82" cy="77.46" r="4.00"/> 
            <circle cx="231.30" cy="49.74" r="4.00"/> 
            <circle cx="236.48" cy="41.04" r="4.00"/> 
            <circle cx="246.77" cy="23.66" r="4.00"/> 
            <circle cx="248.39" cy="35.35" r="4.00"/> 
            <circle cx="231.80" cy="71.76" r="4.00"/> 
            <circle cx="236.89" cy="63.11" r="4.00"/> 
            <circle cx="215.25" cy="108.18" r="4.00"/> 
            <circle cx="241.96" cy="54.46" r="4.00"/> 
            <circle cx="247.03" cy="45.81" r="4.00"/> 
        </g>
        <g style="fill:#6495ED; stroke-width:0.00; stroke:#000000" 
           id="4_CPC"> 
            <title>CPC</title>            <circle cx="220.32" cy="99.54" r="4.00"/> 
            <circle cx="257.13" cy="28.50" r="4.00"/> 
            <circle cx="225.38" cy="90.89" r="4.00"/> 
            <circle cx="230.43" cy="82.24" r="4.00"/> 
            <circle cx="258.84" cy="40.77" r="4.00"/> 
            <circle cx="267.14" cy="34.03" r="4.00"/> 
            <circle cx="257.18" cy="51.38" r="4.00"/> 
            <circle cx="252.20" cy="60.06" r="4.00"/> 
            <circle cx="247.23" cy="68.74" r="4.00"/> 
            <circle cx="242.27" cy="77.42" r="4.00"/> 
            <circle cx="240.47" cy="88.11" r="4.00"/> 
            <circle cx="235.53" cy="96.84" r="4.00"/> 
            <circle cx="268.87" cy="46.95" r="4.00"/> 
            <circle cx="230.62" cy="105.58" r="4.00"/> 
            <circle cx="276.75" cy="40.22" r="4.00"/> 
            <circle cx="225.72" cy="114.35" r="4.00"/> 
            <circle cx="266.87" cy="57.71" r="4.00"/> 
            <circle cx="261.94" cy="66.48" r="4.00"/> 
            <circle cx="257.02" cy="75.27" r="4.00"/> 
            <circle cx="252.12" cy="84.09" r="4.00"/> 
            <circle cx="278.41" cy="53.85" r="4.00"/> 
            <circle cx="285.93" cy="47.04" r="4.00"/> 
            <circle cx="249.84" cy="95.01" r="4.00"/> 
            <circle cx="276.04" cy="64.78" r="4.00"/> 
            <circle cx="244.92" cy="103.94" r="4.00"/> 
            <circle cx="271.11" cy="73.70" r="4.00"/> 
            <circle cx="266.18" cy="82.67" r="4.00"/> 
            <circle cx="240.02" cy="112.93" r="4.00"/> 
            <circle cx="287.42" cy="61.42" r="4.00"/> 
            <circle cx="294.63" cy="54.46" r="4.00"/> 
            <circle cx="261.26" cy="91.70" r="4.00"/> 
            <circle cx="235.14" cy="122.04" r="4.00"/> 
            <circle cx="284.64" cy="72.53" r="4.00"/> 
            <circle cx="279.64" cy="81.66" r="4.00"/> 
            <circle cx="258.42" cy="102.86" r="4.00"/> 
            <circle cx="302.81" cy="62.45" r="4.00"/> 
            <circle cx="295.85" cy="69.65" r="4.00"/> 
            <circle cx="274.63" cy="90.87" r="4.00"/> 
            <circle cx="253.41" cy="112.09" r="4.00"/> 
            <circle cx="269.61" cy="100.18" r="4.00"/> 
            <circle cx="292.62" cy="80.92" r="4.00"/> 
            <circle cx="248.37" cy="121.47" r="4.00"/> 
            <circle cx="310.43" cy="70.97" r="4.00"/> 
            <circle cx="287.48" cy="90.29" r="4.00"/> 
            <circle cx="303.66" cy="78.47" r="4.00"/> 
            <circle cx="266.13" cy="111.58" r="4.00"/> 
            <circle cx="282.31" cy="99.79" r="4.00"/> 
            <circle cx="243.28" cy="131.06" r="4.00"/> 
            <circle cx="299.93" cy="89.90" r="4.00"/> 
            <circle cx="317.47" cy="79.99" r="4.00"/> 
            <circle cx="260.88" cy="121.19" r="4.00"/> 
            <circle cx="277.07" cy="109.45" r="4.00"/> 
            <circle cx="310.79" cy="87.83" r="4.00"/> 
            <circle cx="294.58" cy="99.56" r="4.00"/> 
            <circle cx="255.51" cy="131.03" r="4.00"/> 
            <circle cx="289.14" cy="109.38" r="4.00"/> 
            <circle cx="306.52" cy="99.42" r="4.00"/> 
            <circle cx="272.88" cy="121.06" r="4.00"/> 
            <circle cx="323.88" cy="89.45" r="4.00"/> 
            <circle cx="317.21" cy="97.70" r="4.00"/> 
            <circle cx="283.58" cy="119.41" r="4.00"/> 
            <circle cx="300.88" cy="109.38" r="4.00"/> 
            <circle cx="267.23" cy="131.09" r="4.00"/> 
            <circle cx="249.97" cy="141.21" r="4.00"/> 
            <circle cx="329.64" cy="99.33" r="4.00"/> 
            <circle cx="312.36" cy="109.42" r="4.00"/> 
            <circle cx="295.09" cy="119.54" r="4.00"/> 
            <circle cx="322.89" cy="108.02" r="4.00"/> 
            <circle cx="278.58" cy="131.20" r="4.00"/> 
            <circle cx="306.34" cy="119.69" r="4.00"/> 
            <circle cx="261.33" cy="141.45" r="4.00"/> 
            <circle cx="289.07" cy="129.97" r="4.00"/> 
            <circle cx="334.72" cy="109.57" r="4.00"/> 
            <circle cx="317.41" cy="119.84" r="4.00"/> 
            <circle cx="272.37" cy="141.68" r="4.00"/> 
            <circle cx="300.08" cy="130.20" r="4.00"/> 
            <circle cx="327.80" cy="118.72" r="4.00"/> 
            <circle cx="310.93" cy="130.42" r="4.00"/> 
            <circle cx="339.11" cy="120.13" r="4.00"/> 
            <circle cx="255.04" cy="152.26" r="4.00"/> 
            <circle cx="283.19" cy="141.89" r="4.00"/> 
            <circle cx="321.64" cy="130.62" r="4.00"/> 
            <circle cx="293.49" cy="141.01" r="4.00"/> 
            <circle cx="331.91" cy="129.76" r="4.00"/> 
            <circle cx="265.71" cy="152.55" r="4.00"/> 
            <circle cx="304.10" cy="141.27" r="4.00"/> 
            <circle cx="342.77" cy="130.96" r="4.00"/> 
            <circle cx="314.60" cy="141.49" r="4.00"/> 
            <circle cx="276.23" cy="152.80" r="4.00"/> 
            <circle cx="325.02" cy="141.69" r="4.00"/> 
            <circle cx="286.63" cy="153.00" r="4.00"/> 
            <circle cx="335.19" cy="141.06" r="4.00"/> 
            <circle cx="296.79" cy="152.44" r="4.00"/> 
            <circle cx="345.70" cy="142.01" r="4.00"/> 
            <circle cx="307.09" cy="152.65" r="4.00"/> 
            <circle cx="258.37" cy="163.94" r="4.00"/> 
            <circle cx="317.34" cy="152.83" r="4.00"/> 
            <circle cx="327.55" cy="152.99" r="4.00"/> 
            <circle cx="268.59" cy="164.14" r="4.00"/> 
            <circle cx="337.63" cy="152.58" r="4.00"/> 
            <circle cx="347.88" cy="153.24" r="4.00"/> 
            <circle cx="278.76" cy="164.29" r="4.00"/> 
            <circle cx="288.89" cy="164.41" r="4.00"/> 
            <circle cx="298.95" cy="164.14" r="4.00"/> 
            <circle cx="309.04" cy="164.26" r="4.00"/> 
            <circle cx="319.12" cy="164.36" r="4.00"/> 
            <circle cx="329.19" cy="164.45" r="4.00"/> 
            <circle cx="339.22" cy="164.25" r="4.00"/> 
            <circle cx="349.30" cy="164.59" r="4.00"/> 
            <circle cx="259.90" cy="176.00" r="4.00"/> 
            <circle cx="269.91" cy="176.00" r="4.00"/> 
            <circle cx="279.92" cy="176.00" r="4.00"/> 
            <circle cx="289.93" cy="176.00" r="4.00"/> 
            <circle cx="299.93" cy="176.00" r="4.00"/> 
            <circle cx="309.94" cy="176.00" r="4.00"/> 
            <circle cx="319.94" cy="176.00" r="4.00"/> 
            <circle cx="329.95" cy="176.00" r="4.00"/> 
            <circle cx="339.95" cy="176.00" r="4.00"/> 
            <circle cx="349.95" cy="176.00" r="4.00"/> 
        </g>
    </g>
</svg>
