<?xml version="1.0" encoding="UTF-8" standalone="no"?>
<svg xmlns:svg="http://www.w3.org/2000/svg"
     xmlns="http://www.w3.org/2000/svg" version="1.1"
     width="360" height="185">
    <!-- Created with the Wikimedia parliament diagram creator (http://parliamentdiagram.toolforge.org/parliamentinputform.html) -->
    <g>
        <text x="175" y="175" 
              style="font-size:36px;font-weight:bold;text-align:center;text-anchor:middle;font-family:sans-serif">
            563
        </text>
        <g style="fill:#99C955; stroke-width:0.00; stroke:#000000" 
           id="0_GRE"> 
            <title>GRE</title>            <circle cx="8.87" cy="176.92" r="3.08"/> 
            <circle cx="16.57" cy="176.92" r="3.08"/> 
            <circle cx="24.26" cy="176.92" r="3.08"/> 
            <circle cx="31.96" cy="176.92" r="3.08"/> 
            <circle cx="39.65" cy="176.92" r="3.08"/> 
            <circle cx="47.34" cy="176.92" r="3.08"/> 
            <circle cx="55.04" cy="176.92" r="3.08"/> 
            <circle cx="62.73" cy="176.92" r="3.08"/> 
            <circle cx="70.43" cy="176.92" r="3.08"/> 
            <circle cx="78.12" cy="176.92" r="3.08"/> 
            <circle cx="85.82" cy="176.92" r="3.08"/> 
            <circle cx="93.52" cy="176.92" r="3.08"/> 
            <circle cx="101.21" cy="176.92" r="3.08"/> 
            <circle cx="9.27" cy="167.92" r="3.08"/> 
        </g>
        <g style="fill:#F4A460; stroke-width:0.00; stroke:#000000" 
           id="1_NDP"> 
            <title>NDP</title>            <circle cx="16.99" cy="167.87" r="3.08"/> 
            <circle cx="24.71" cy="167.82" r="3.08"/> 
            <circle cx="32.43" cy="167.76" r="3.08"/> 
            <circle cx="40.14" cy="167.88" r="3.08"/> 
            <circle cx="47.87" cy="167.81" r="3.08"/> 
            <circle cx="55.60" cy="167.74" r="3.08"/> 
            <circle cx="63.32" cy="167.89" r="3.08"/> 
            <circle cx="71.06" cy="167.81" r="3.08"/> 
            <circle cx="78.82" cy="167.72" r="3.08"/> 
            <circle cx="10.14" cy="158.96" r="3.08"/> 
            <circle cx="17.91" cy="158.86" r="3.08"/> 
            <circle cx="86.59" cy="167.61" r="3.08"/> 
            <circle cx="25.69" cy="158.76" r="3.08"/> 
            <circle cx="94.33" cy="167.80" r="3.08"/> 
            <circle cx="33.47" cy="158.64" r="3.08"/> 
            <circle cx="41.21" cy="158.88" r="3.08"/> 
            <circle cx="102.12" cy="167.68" r="3.08"/> 
            <circle cx="49.02" cy="158.76" r="3.08"/> 
            <circle cx="56.84" cy="158.62" r="3.08"/> 
            <circle cx="11.49" cy="150.05" r="3.08"/> 
            <circle cx="64.60" cy="158.92" r="3.08"/> 
            <circle cx="19.33" cy="149.91" r="3.08"/> 
            <circle cx="72.46" cy="158.78" r="3.08"/> 
            <circle cx="27.19" cy="149.76" r="3.08"/> 
            <circle cx="35.08" cy="149.60" r="3.08"/> 
            <circle cx="80.35" cy="158.61" r="3.08"/> 
            <circle cx="42.86" cy="149.98" r="3.08"/> 
            <circle cx="13.30" cy="141.23" r="3.08"/> 
            <circle cx="50.79" cy="149.81" r="3.08"/> 
            <circle cx="88.27" cy="158.41" r="3.08"/> 
            <circle cx="21.24" cy="141.06" r="3.08"/> 
            <circle cx="58.75" cy="149.62" r="3.08"/> 
            <circle cx="96.09" cy="158.82" r="3.08"/> 
            <circle cx="29.22" cy="140.88" r="3.08"/> 
            <circle cx="66.57" cy="150.08" r="3.08"/> 
            <circle cx="37.24" cy="140.68" r="3.08"/> 
            <circle cx="104.11" cy="158.61" r="3.08"/> 
            <circle cx="74.60" cy="149.89" r="3.08"/> 
            <circle cx="45.09" cy="141.20" r="3.08"/> 
            <circle cx="15.57" cy="132.51" r="3.08"/> 
            <circle cx="23.65" cy="132.32" r="3.08"/> 
            <circle cx="53.17" cy="141.00" r="3.08"/> 
            <circle cx="82.69" cy="149.68" r="3.08"/> 
            <circle cx="31.77" cy="132.13" r="3.08"/> 
            <circle cx="61.31" cy="140.78" r="3.08"/> 
            <circle cx="90.86" cy="149.43" r="3.08"/> 
            <circle cx="39.95" cy="131.91" r="3.08"/> 
            <circle cx="18.29" cy="123.92" r="3.08"/> 
            <circle cx="69.22" cy="141.42" r="3.08"/> 
            <circle cx="47.87" cy="132.58" r="3.08"/> 
            <circle cx="26.53" cy="123.74" r="3.08"/> 
            <circle cx="98.80" cy="150.07" r="3.08"/> 
            <circle cx="77.47" cy="141.22" r="3.08"/> 
            <circle cx="56.15" cy="132.38" r="3.08"/> 
            <circle cx="34.82" cy="123.54" r="3.08"/> 
            <circle cx="21.47" cy="115.49" r="3.08"/> 
            <circle cx="107.15" cy="149.84" r="3.08"/> 
            <circle cx="85.83" cy="141.00" r="3.08"/> 
            <circle cx="64.52" cy="132.16" r="3.08"/> 
            <circle cx="43.20" cy="123.32" r="3.08"/> 
            <circle cx="29.88" cy="115.32" r="3.08"/> 
            <circle cx="51.20" cy="124.15" r="3.08"/> 
            <circle cx="72.53" cy="132.99" r="3.08"/> 
            <circle cx="38.38" cy="115.14" r="3.08"/> 
            <circle cx="94.33" cy="140.75" r="3.08"/> 
            <circle cx="59.71" cy="123.98" r="3.08"/> 
            <circle cx="25.08" cy="107.24" r="3.08"/> 
            <circle cx="81.06" cy="132.81" r="3.08"/> 
            <circle cx="46.97" cy="114.95" r="3.08"/> 
            <circle cx="102.42" cy="141.65" r="3.08"/> 
            <circle cx="33.69" cy="107.10" r="3.08"/> 
            <circle cx="68.35" cy="123.79" r="3.08"/> 
            <circle cx="55.07" cy="115.96" r="3.08"/> 
            <circle cx="89.75" cy="132.64" r="3.08"/> 
            <circle cx="42.41" cy="106.97" r="3.08"/> 
            <circle cx="76.47" cy="124.83" r="3.08"/> 
            <circle cx="29.12" cy="99.19" r="3.08"/> 
            <circle cx="63.85" cy="115.84" r="3.08"/> 
            <circle cx="111.20" cy="141.49" r="3.08"/> 
            <circle cx="51.26" cy="106.84" r="3.08"/> 
            <circle cx="37.96" cy="99.11" r="3.08"/> 
            <circle cx="85.34" cy="124.74" r="3.08"/> 
            <circle cx="98.64" cy="132.46" r="3.08"/> 
            <circle cx="59.46" cy="108.04" r="3.08"/> 
            <circle cx="72.79" cy="115.73" r="3.08"/> 
            <circle cx="33.58" cy="91.37" r="3.08"/> 
            <circle cx="46.92" cy="99.04" r="3.08"/> 
            <circle cx="106.91" cy="133.67" r="3.08"/> 
            <circle cx="81.04" cy="117.01" r="3.08"/> 
            <circle cx="42.66" cy="91.36" r="3.08"/> 
            <circle cx="68.53" cy="108.01" r="3.08"/> 
            <circle cx="94.41" cy="124.66" r="3.08"/> 
            <circle cx="56.04" cy="99.00" r="3.08"/> 
            <circle cx="38.45" cy="83.78" r="3.08"/> 
            <circle cx="64.35" cy="100.42" r="3.08"/> 
            <circle cx="51.88" cy="91.40" r="3.08"/> 
            <circle cx="90.27" cy="117.04" r="3.08"/> 
            <circle cx="77.80" cy="108.02" r="3.08"/> 
            <circle cx="103.75" cy="124.63" r="3.08"/> 
            <circle cx="116.20" cy="133.67" r="3.08"/> 
            <circle cx="47.78" cy="83.89" r="3.08"/> 
            <circle cx="61.30" cy="91.48" r="3.08"/> 
            <circle cx="73.75" cy="100.52" r="3.08"/> 
            <circle cx="86.19" cy="109.56" r="3.08"/> 
            <circle cx="43.71" cy="76.47" r="3.08"/> 
            <circle cx="57.29" cy="84.06" r="3.08"/> 
        </g>
        <g style="fill:#EA6D6A; stroke-width:0.00; stroke:#000000" 
           id="2_LPC"> 
            <title>LPC</title>            <circle cx="99.77" cy="117.14" r="3.08"/> 
            <circle cx="69.73" cy="93.12" r="3.08"/> 
            <circle cx="112.21" cy="126.21" r="3.08"/> 
            <circle cx="53.30" cy="76.71" r="3.08"/> 
            <circle cx="83.38" cy="100.70" r="3.08"/> 
            <circle cx="95.82" cy="109.79" r="3.08"/> 
            <circle cx="49.34" cy="69.44" r="3.08"/> 
            <circle cx="67.01" cy="84.29" r="3.08"/> 
            <circle cx="79.46" cy="93.40" r="3.08"/> 
            <circle cx="91.91" cy="102.54" r="3.08"/> 
            <circle cx="63.11" cy="77.04" r="3.08"/> 
            <circle cx="109.61" cy="117.35" r="3.08"/> 
            <circle cx="75.56" cy="86.19" r="3.08"/> 
            <circle cx="59.22" cy="69.85" r="3.08"/> 
            <circle cx="122.09" cy="126.49" r="3.08"/> 
            <circle cx="55.34" cy="62.72" r="3.08"/> 
            <circle cx="105.78" cy="110.14" r="3.08"/> 
            <circle cx="89.47" cy="93.80" r="3.08"/> 
            <circle cx="73.16" cy="77.47" r="3.08"/> 
            <circle cx="118.28" cy="119.34" r="3.08"/> 
            <circle cx="101.96" cy="103.02" r="3.08"/> 
            <circle cx="85.65" cy="86.70" r="3.08"/> 
            <circle cx="69.33" cy="70.38" r="3.08"/> 
            <circle cx="65.51" cy="63.33" r="3.08"/> 
            <circle cx="81.83" cy="79.65" r="3.08"/> 
            <circle cx="98.15" cy="95.97" r="3.08"/> 
            <circle cx="61.69" cy="56.33" r="3.08"/> 
            <circle cx="116.17" cy="110.69" r="3.08"/> 
            <circle cx="79.72" cy="71.05" r="3.08"/> 
            <circle cx="96.06" cy="87.38" r="3.08"/> 
            <circle cx="75.93" cy="64.09" r="3.08"/> 
            <circle cx="112.41" cy="103.71" r="3.08"/> 
            <circle cx="92.28" cy="80.44" r="3.08"/> 
            <circle cx="72.15" cy="57.17" r="3.08"/> 
            <circle cx="68.36" cy="50.27" r="3.08"/> 
            <circle cx="88.50" cy="73.53" r="3.08"/> 
            <circle cx="108.65" cy="96.79" r="3.08"/> 
            <circle cx="128.79" cy="120.05" r="3.08"/> 
            <circle cx="104.87" cy="89.91" r="3.08"/> 
            <circle cx="125.03" cy="113.16" r="3.08"/> 
            <circle cx="86.66" cy="65.05" r="3.08"/> 
            <circle cx="82.89" cy="58.20" r="3.08"/> 
            <circle cx="79.12" cy="51.38" r="3.08"/> 
            <circle cx="103.10" cy="81.45" r="3.08"/> 
            <circle cx="75.34" cy="44.58" r="3.08"/> 
            <circle cx="99.33" cy="74.64" r="3.08"/> 
            <circle cx="95.56" cy="67.85" r="3.08"/> 
            <circle cx="123.35" cy="104.70" r="3.08"/> 
            <circle cx="119.59" cy="97.91" r="3.08"/> 
            <circle cx="115.83" cy="91.13" r="3.08"/> 
            <circle cx="93.96" cy="59.48" r="3.08"/> 
            <circle cx="112.05" cy="84.38" r="3.08"/> 
            <circle cx="90.18" cy="52.73" r="3.08"/> 
            <circle cx="86.40" cy="45.99" r="3.08"/> 
            <circle cx="82.61" cy="39.26" r="3.08"/> 
            <circle cx="136.19" cy="114.45" r="3.08"/> 
            <circle cx="110.56" cy="76.06" r="3.08"/> 
            <circle cx="106.77" cy="69.35" r="3.08"/> 
            <circle cx="132.41" cy="107.72" r="3.08"/> 
            <circle cx="102.97" cy="62.64" r="3.08"/> 
            <circle cx="101.59" cy="54.38" r="3.08"/> 
            <circle cx="97.78" cy="47.70" r="3.08"/> 
            <circle cx="93.97" cy="41.01" r="3.08"/> 
            <circle cx="90.15" cy="34.33" r="3.08"/> 
            <circle cx="131.09" cy="99.46" r="3.08"/> 
            <circle cx="127.27" cy="92.78" r="3.08"/> 
            <circle cx="123.45" cy="86.10" r="3.08"/> 
            <circle cx="119.63" cy="79.42" r="3.08"/> 
            <circle cx="110.70" cy="57.91" r="3.08"/> 
            <circle cx="114.54" cy="64.58" r="3.08"/> 
            <circle cx="118.39" cy="71.24" r="3.08"/> 
            <circle cx="97.94" cy="29.80" r="3.08"/> 
            <circle cx="101.80" cy="36.46" r="3.08"/> 
            <circle cx="105.66" cy="43.11" r="3.08"/> 
            <circle cx="109.53" cy="49.77" r="3.08"/> 
            <circle cx="140.31" cy="103.10" r="3.08"/> 
            <circle cx="144.20" cy="109.75" r="3.08"/> 
            <circle cx="127.57" cy="75.06" r="3.08"/> 
            <circle cx="131.47" cy="81.71" r="3.08"/> 
            <circle cx="135.38" cy="88.36" r="3.08"/> 
            <circle cx="118.72" cy="53.70" r="3.08"/> 
            <circle cx="105.95" cy="25.69" r="3.08"/> 
            <circle cx="122.63" cy="60.35" r="3.08"/> 
            <circle cx="139.31" cy="95.01" r="3.08"/> 
            <circle cx="109.87" cy="32.35" r="3.08"/> 
            <circle cx="126.56" cy="67.00" r="3.08"/> 
            <circle cx="113.80" cy="39.00" r="3.08"/> 
            <circle cx="117.73" cy="45.65" r="3.08"/> 
            <circle cx="114.17" cy="22.01" r="3.08"/> 
            <circle cx="118.16" cy="28.69" r="3.08"/> 
            <circle cx="126.99" cy="50.01" r="3.08"/> 
            <circle cx="135.82" cy="71.33" r="3.08"/> 
            <circle cx="122.16" cy="35.37" r="3.08"/> 
            <circle cx="130.99" cy="56.69" r="3.08"/> 
            <circle cx="139.82" cy="78.01" r="3.08"/> 
            <circle cx="126.18" cy="42.05" r="3.08"/> 
            <circle cx="148.66" cy="99.34" r="3.08"/> 
            <circle cx="135.02" cy="63.38" r="3.08"/> 
            <circle cx="143.86" cy="84.70" r="3.08"/> 
            <circle cx="152.71" cy="106.03" r="3.08"/> 
            <circle cx="147.93" cy="91.40" r="3.08"/> 
            <circle cx="122.58" cy="18.77" r="3.08"/> 
            <circle cx="126.63" cy="25.49" r="3.08"/> 
            <circle cx="135.48" cy="46.86" r="3.08"/> 
            <circle cx="130.72" cy="32.23" r="3.08"/> 
            <circle cx="134.83" cy="38.98" r="3.08"/> 
            <circle cx="139.58" cy="53.61" r="3.08"/> 
            <circle cx="144.34" cy="68.25" r="3.08"/> 
            <circle cx="143.72" cy="60.38" r="3.08"/> 
            <circle cx="148.46" cy="75.02" r="3.08"/> 
            <circle cx="131.14" cy="15.97" r="3.08"/> 
            <circle cx="135.28" cy="22.78" r="3.08"/> 
            <circle cx="152.63" cy="81.82" r="3.08"/> 
            <circle cx="157.36" cy="96.48" r="3.08"/> 
            <circle cx="139.45" cy="29.60" r="3.08"/> 
            <circle cx="144.16" cy="44.27" r="3.08"/> 
            <circle cx="156.86" cy="88.65" r="3.08"/> 
            <circle cx="143.65" cy="36.45" r="3.08"/> 
            <circle cx="148.36" cy="51.13" r="3.08"/> 
            <circle cx="139.84" cy="13.63" r="3.08"/> 
            <circle cx="161.59" cy="103.33" r="3.08"/> 
            <circle cx="153.06" cy="65.83" r="3.08"/> 
            <circle cx="144.06" cy="20.54" r="3.08"/> 
            <circle cx="152.61" cy="58.04" r="3.08"/> 
            <circle cx="157.31" cy="72.76" r="3.08"/> 
            <circle cx="148.31" cy="27.49" r="3.08"/> 
            <circle cx="152.99" cy="42.24" r="3.08"/> 
            <circle cx="152.62" cy="34.48" r="3.08"/> 
            <circle cx="148.65" cy="11.74" r="3.08"/> 
            <circle cx="161.63" cy="79.75" r="3.08"/> 
            <circle cx="157.29" cy="49.26" r="3.08"/> 
            <circle cx="152.94" cy="18.79" r="3.08"/> 
            <circle cx="166.31" cy="94.55" r="3.08"/> 
            <circle cx="161.95" cy="64.09" r="3.08"/> 
            <circle cx="166.03" cy="86.81" r="3.08"/> 
            <circle cx="161.66" cy="56.35" r="3.08"/> 
            <circle cx="157.29" cy="25.90" r="3.08"/> 
            <circle cx="157.54" cy="10.33" r="3.08"/> 
            <circle cx="161.93" cy="40.78" r="3.08"/> 
            <circle cx="166.32" cy="71.24" r="3.08"/> 
            <circle cx="161.69" cy="33.06" r="3.08"/> 
            <circle cx="170.73" cy="101.70" r="3.08"/> 
            <circle cx="161.92" cy="17.54" r="3.08"/> 
            <circle cx="166.33" cy="48.01" r="3.08"/> 
            <circle cx="170.78" cy="78.50" r="3.08"/> 
            <circle cx="166.34" cy="24.83" r="3.08"/> 
            <circle cx="166.50" cy="9.38" r="3.08"/> 
            <circle cx="170.95" cy="63.04" r="3.08"/> 
            <circle cx="170.80" cy="55.34" r="3.08"/> 
            <circle cx="170.95" cy="39.91" r="3.08"/> 
            <circle cx="170.83" cy="32.21" r="3.08"/> 
            <circle cx="170.94" cy="16.79" r="3.08"/> 
            <circle cx="175.42" cy="93.58" r="3.08"/> 
            <circle cx="175.33" cy="85.89" r="3.08"/> 
            <circle cx="175.43" cy="70.48" r="3.08"/> 
            <circle cx="175.44" cy="47.39" r="3.08"/> 
            <circle cx="175.44" cy="24.30" r="3.08"/> 
            <circle cx="175.50" cy="8.91" r="3.08"/> 
            <circle cx="180.00" cy="16.54" r="3.08"/> 
            <circle cx="180.00" cy="31.92" r="3.08"/> 
            <circle cx="180.00" cy="39.62" r="3.08"/> 
            <circle cx="180.00" cy="55.00" r="3.08"/> 
            <circle cx="180.00" cy="62.69" r="3.08"/> 
            <circle cx="180.00" cy="78.08" r="3.08"/> 
            <circle cx="180.00" cy="101.15" r="3.08"/> 
            <circle cx="184.50" cy="8.91" r="3.08"/> 
            <circle cx="184.56" cy="24.30" r="3.08"/> 
            <circle cx="184.56" cy="47.39" r="3.08"/> 
            <circle cx="184.57" cy="70.48" r="3.08"/> 
            <circle cx="184.67" cy="85.89" r="3.08"/> 
            <circle cx="184.58" cy="93.58" r="3.08"/> 
            <circle cx="189.06" cy="16.79" r="3.08"/> 
            <circle cx="189.17" cy="32.21" r="3.08"/> 
            <circle cx="189.05" cy="39.91" r="3.08"/> 
            <circle cx="189.20" cy="55.34" r="3.08"/> 
            <circle cx="189.05" cy="63.04" r="3.08"/> 
            <circle cx="193.50" cy="9.38" r="3.08"/> 
            <circle cx="193.66" cy="24.83" r="3.08"/> 
            <circle cx="189.22" cy="78.50" r="3.08"/> 
            <circle cx="193.67" cy="48.01" r="3.08"/> 
            <circle cx="198.08" cy="17.54" r="3.08"/> 
            <circle cx="189.27" cy="101.70" r="3.08"/> 
            <circle cx="198.31" cy="33.06" r="3.08"/> 
            <circle cx="193.68" cy="71.24" r="3.08"/> 
            <circle cx="198.07" cy="40.78" r="3.08"/> 
            <circle cx="202.46" cy="10.33" r="3.08"/> 
            <circle cx="202.71" cy="25.90" r="3.08"/> 
            <circle cx="198.34" cy="56.35" r="3.08"/> 
            <circle cx="193.97" cy="86.81" r="3.08"/> 
            <circle cx="198.05" cy="64.09" r="3.08"/> 
            <circle cx="193.69" cy="94.55" r="3.08"/> 
            <circle cx="207.06" cy="18.79" r="3.08"/> 
            <circle cx="202.71" cy="49.26" r="3.08"/> 
            <circle cx="198.37" cy="79.75" r="3.08"/> 
            <circle cx="211.35" cy="11.74" r="3.08"/> 
        </g>
        <g style="fill:#87CEFA; stroke-width:0.00; stroke:#000000" 
           id="3_BQ"> 
            <title>BQ</title>            <circle cx="207.38" cy="34.48" r="3.08"/> 
            <circle cx="207.01" cy="42.24" r="3.08"/> 
            <circle cx="211.69" cy="27.49" r="3.08"/> 
            <circle cx="202.69" cy="72.76" r="3.08"/> 
            <circle cx="207.39" cy="58.04" r="3.08"/> 
            <circle cx="215.94" cy="20.54" r="3.08"/> 
            <circle cx="206.94" cy="65.83" r="3.08"/> 
            <circle cx="198.41" cy="103.33" r="3.08"/> 
            <circle cx="220.16" cy="13.63" r="3.08"/> 
            <circle cx="211.64" cy="51.13" r="3.08"/> 
            <circle cx="216.35" cy="36.45" r="3.08"/> 
            <circle cx="203.14" cy="88.65" r="3.08"/> 
            <circle cx="215.84" cy="44.27" r="3.08"/> 
            <circle cx="220.55" cy="29.60" r="3.08"/> 
            <circle cx="202.64" cy="96.48" r="3.08"/> 
            <circle cx="207.37" cy="81.82" r="3.08"/> 
            <circle cx="224.72" cy="22.78" r="3.08"/> 
            <circle cx="228.86" cy="15.97" r="3.08"/> 
            <circle cx="211.54" cy="75.02" r="3.08"/> 
            <circle cx="216.28" cy="60.38" r="3.08"/> 
            <circle cx="215.66" cy="68.25" r="3.08"/> 
            <circle cx="220.42" cy="53.61" r="3.08"/> 
            <circle cx="225.17" cy="38.98" r="3.08"/> 
            <circle cx="229.28" cy="32.23" r="3.08"/> 
            <circle cx="224.52" cy="46.86" r="3.08"/> 
            <circle cx="233.37" cy="25.49" r="3.08"/> 
            <circle cx="237.42" cy="18.77" r="3.08"/> 
            <circle cx="212.07" cy="91.40" r="3.08"/> 
            <circle cx="207.29" cy="106.03" r="3.08"/> 
            <circle cx="216.14" cy="84.70" r="3.08"/> 
            <circle cx="224.98" cy="63.38" r="3.08"/> 
            <circle cx="211.34" cy="99.34" r="3.08"/> 
            <circle cx="233.82" cy="42.05" r="3.08"/> 
            <circle cx="220.18" cy="78.01" r="3.08"/> 
            <circle cx="229.01" cy="56.69" r="3.08"/> 
            <circle cx="237.84" cy="35.37" r="3.08"/> 
            <circle cx="224.18" cy="71.33" r="3.08"/> 
            <circle cx="233.01" cy="50.01" r="3.08"/> 
            <circle cx="241.84" cy="28.69" r="3.08"/> 
            <circle cx="245.83" cy="22.01" r="3.08"/> 
            <circle cx="242.27" cy="45.65" r="3.08"/> 
            <circle cx="246.20" cy="39.00" r="3.08"/> 
            <circle cx="233.44" cy="67.00" r="3.08"/> 
            <circle cx="250.13" cy="32.35" r="3.08"/> 
            <circle cx="220.69" cy="95.01" r="3.08"/> 
            <circle cx="237.37" cy="60.35" r="3.08"/> 
        </g>
        <g style="fill:#6495ED; stroke-width:0.00; stroke:#000000" 
           id="4_CPC"> 
            <title>CPC</title>            <circle cx="254.05" cy="25.69" r="3.08"/> 
            <circle cx="241.28" cy="53.70" r="3.08"/> 
            <circle cx="224.62" cy="88.36" r="3.08"/> 
            <circle cx="228.53" cy="81.71" r="3.08"/> 
            <circle cx="232.43" cy="75.06" r="3.08"/> 
            <circle cx="215.80" cy="109.75" r="3.08"/> 
            <circle cx="219.69" cy="103.10" r="3.08"/> 
            <circle cx="250.47" cy="49.77" r="3.08"/> 
            <circle cx="254.34" cy="43.11" r="3.08"/> 
            <circle cx="258.20" cy="36.46" r="3.08"/> 
            <circle cx="262.06" cy="29.80" r="3.08"/> 
            <circle cx="241.61" cy="71.24" r="3.08"/> 
            <circle cx="245.46" cy="64.58" r="3.08"/> 
            <circle cx="249.30" cy="57.91" r="3.08"/> 
            <circle cx="240.37" cy="79.42" r="3.08"/> 
            <circle cx="236.55" cy="86.10" r="3.08"/> 
            <circle cx="232.73" cy="92.78" r="3.08"/> 
            <circle cx="228.91" cy="99.46" r="3.08"/> 
            <circle cx="269.85" cy="34.33" r="3.08"/> 
            <circle cx="266.03" cy="41.01" r="3.08"/> 
            <circle cx="262.22" cy="47.70" r="3.08"/> 
            <circle cx="258.41" cy="54.38" r="3.08"/> 
            <circle cx="257.03" cy="62.64" r="3.08"/> 
            <circle cx="227.59" cy="107.72" r="3.08"/> 
            <circle cx="253.23" cy="69.35" r="3.08"/> 
            <circle cx="249.44" cy="76.06" r="3.08"/> 
            <circle cx="223.81" cy="114.45" r="3.08"/> 
            <circle cx="277.39" cy="39.26" r="3.08"/> 
            <circle cx="273.60" cy="45.99" r="3.08"/> 
            <circle cx="269.82" cy="52.73" r="3.08"/> 
            <circle cx="247.95" cy="84.38" r="3.08"/> 
            <circle cx="266.04" cy="59.48" r="3.08"/> 
            <circle cx="244.17" cy="91.13" r="3.08"/> 
            <circle cx="240.41" cy="97.91" r="3.08"/> 
            <circle cx="236.65" cy="104.70" r="3.08"/> 
            <circle cx="264.44" cy="67.85" r="3.08"/> 
            <circle cx="260.67" cy="74.64" r="3.08"/> 
            <circle cx="284.66" cy="44.58" r="3.08"/> 
            <circle cx="256.90" cy="81.45" r="3.08"/> 
            <circle cx="280.88" cy="51.38" r="3.08"/> 
            <circle cx="277.11" cy="58.20" r="3.08"/> 
            <circle cx="273.34" cy="65.05" r="3.08"/> 
            <circle cx="234.97" cy="113.16" r="3.08"/> 
            <circle cx="255.13" cy="89.91" r="3.08"/> 
            <circle cx="231.21" cy="120.05" r="3.08"/> 
            <circle cx="251.35" cy="96.79" r="3.08"/> 
            <circle cx="271.50" cy="73.53" r="3.08"/> 
            <circle cx="291.64" cy="50.27" r="3.08"/> 
            <circle cx="287.85" cy="57.17" r="3.08"/> 
            <circle cx="267.72" cy="80.44" r="3.08"/> 
            <circle cx="247.59" cy="103.71" r="3.08"/> 
            <circle cx="284.07" cy="64.09" r="3.08"/> 
            <circle cx="263.94" cy="87.38" r="3.08"/> 
            <circle cx="280.28" cy="71.05" r="3.08"/> 
            <circle cx="243.83" cy="110.69" r="3.08"/> 
            <circle cx="298.31" cy="56.33" r="3.08"/> 
            <circle cx="261.85" cy="95.97" r="3.08"/> 
            <circle cx="278.17" cy="79.65" r="3.08"/> 
            <circle cx="294.49" cy="63.33" r="3.08"/> 
            <circle cx="290.67" cy="70.38" r="3.08"/> 
            <circle cx="274.35" cy="86.70" r="3.08"/> 
            <circle cx="258.04" cy="103.02" r="3.08"/> 
            <circle cx="241.72" cy="119.34" r="3.08"/> 
            <circle cx="286.84" cy="77.47" r="3.08"/> 
            <circle cx="270.53" cy="93.80" r="3.08"/> 
            <circle cx="254.22" cy="110.14" r="3.08"/> 
            <circle cx="304.66" cy="62.72" r="3.08"/> 
            <circle cx="237.91" cy="126.49" r="3.08"/> 
            <circle cx="300.78" cy="69.85" r="3.08"/> 
            <circle cx="284.44" cy="86.19" r="3.08"/> 
            <circle cx="250.39" cy="117.35" r="3.08"/> 
            <circle cx="296.89" cy="77.04" r="3.08"/> 
            <circle cx="268.09" cy="102.54" r="3.08"/> 
            <circle cx="280.54" cy="93.40" r="3.08"/> 
            <circle cx="292.99" cy="84.29" r="3.08"/> 
            <circle cx="310.66" cy="69.44" r="3.08"/> 
            <circle cx="264.18" cy="109.79" r="3.08"/> 
            <circle cx="276.62" cy="100.70" r="3.08"/> 
            <circle cx="306.70" cy="76.71" r="3.08"/> 
            <circle cx="247.79" cy="126.21" r="3.08"/> 
            <circle cx="290.27" cy="93.12" r="3.08"/> 
            <circle cx="260.23" cy="117.14" r="3.08"/> 
            <circle cx="302.71" cy="84.06" r="3.08"/> 
            <circle cx="316.29" cy="76.47" r="3.08"/> 
            <circle cx="273.81" cy="109.56" r="3.08"/> 
            <circle cx="286.25" cy="100.52" r="3.08"/> 
            <circle cx="298.70" cy="91.48" r="3.08"/> 
            <circle cx="312.22" cy="83.89" r="3.08"/> 
            <circle cx="243.80" cy="133.67" r="3.08"/> 
            <circle cx="256.25" cy="124.63" r="3.08"/> 
            <circle cx="282.20" cy="108.02" r="3.08"/> 
            <circle cx="269.73" cy="117.04" r="3.08"/> 
            <circle cx="308.12" cy="91.40" r="3.08"/> 
            <circle cx="295.65" cy="100.42" r="3.08"/> 
            <circle cx="321.55" cy="83.78" r="3.08"/> 
            <circle cx="303.96" cy="99.00" r="3.08"/> 
            <circle cx="265.59" cy="124.66" r="3.08"/> 
            <circle cx="291.47" cy="108.01" r="3.08"/> 
            <circle cx="317.34" cy="91.36" r="3.08"/> 
            <circle cx="278.96" cy="117.01" r="3.08"/> 
            <circle cx="253.09" cy="133.67" r="3.08"/> 
            <circle cx="313.08" cy="99.04" r="3.08"/> 
            <circle cx="326.42" cy="91.37" r="3.08"/> 
            <circle cx="287.21" cy="115.73" r="3.08"/> 
            <circle cx="300.54" cy="108.04" r="3.08"/> 
            <circle cx="261.36" cy="132.46" r="3.08"/> 
            <circle cx="274.66" cy="124.74" r="3.08"/> 
            <circle cx="322.04" cy="99.11" r="3.08"/> 
            <circle cx="308.74" cy="106.84" r="3.08"/> 
            <circle cx="248.80" cy="141.49" r="3.08"/> 
            <circle cx="296.15" cy="115.84" r="3.08"/> 
            <circle cx="330.88" cy="99.19" r="3.08"/> 
            <circle cx="283.53" cy="124.83" r="3.08"/> 
            <circle cx="317.59" cy="106.97" r="3.08"/> 
            <circle cx="270.25" cy="132.64" r="3.08"/> 
            <circle cx="304.93" cy="115.96" r="3.08"/> 
            <circle cx="291.65" cy="123.79" r="3.08"/> 
            <circle cx="326.31" cy="107.10" r="3.08"/> 
            <circle cx="257.58" cy="141.65" r="3.08"/> 
            <circle cx="313.03" cy="114.95" r="3.08"/> 
            <circle cx="278.94" cy="132.81" r="3.08"/> 
            <circle cx="334.92" cy="107.24" r="3.08"/> 
            <circle cx="300.29" cy="123.98" r="3.08"/> 
            <circle cx="265.67" cy="140.75" r="3.08"/> 
            <circle cx="321.62" cy="115.14" r="3.08"/> 
            <circle cx="287.47" cy="132.99" r="3.08"/> 
            <circle cx="308.80" cy="124.15" r="3.08"/> 
            <circle cx="330.12" cy="115.32" r="3.08"/> 
            <circle cx="316.80" cy="123.32" r="3.08"/> 
            <circle cx="295.48" cy="132.16" r="3.08"/> 
            <circle cx="274.17" cy="141.00" r="3.08"/> 
            <circle cx="252.85" cy="149.84" r="3.08"/> 
            <circle cx="338.53" cy="115.49" r="3.08"/> 
            <circle cx="325.18" cy="123.54" r="3.08"/> 
            <circle cx="303.85" cy="132.38" r="3.08"/> 
            <circle cx="282.53" cy="141.22" r="3.08"/> 
            <circle cx="261.20" cy="150.07" r="3.08"/> 
            <circle cx="333.47" cy="123.74" r="3.08"/> 
            <circle cx="312.13" cy="132.58" r="3.08"/> 
            <circle cx="290.78" cy="141.42" r="3.08"/> 
            <circle cx="341.71" cy="123.92" r="3.08"/> 
            <circle cx="320.05" cy="131.91" r="3.08"/> 
            <circle cx="269.14" cy="149.43" r="3.08"/> 
            <circle cx="298.69" cy="140.78" r="3.08"/> 
            <circle cx="328.23" cy="132.13" r="3.08"/> 
            <circle cx="277.31" cy="149.68" r="3.08"/> 
            <circle cx="306.83" cy="141.00" r="3.08"/> 
            <circle cx="336.35" cy="132.32" r="3.08"/> 
            <circle cx="344.43" cy="132.51" r="3.08"/> 
            <circle cx="314.91" cy="141.20" r="3.08"/> 
            <circle cx="285.40" cy="149.89" r="3.08"/> 
            <circle cx="255.89" cy="158.61" r="3.08"/> 
            <circle cx="322.76" cy="140.68" r="3.08"/> 
            <circle cx="293.43" cy="150.08" r="3.08"/> 
            <circle cx="330.78" cy="140.88" r="3.08"/> 
            <circle cx="263.91" cy="158.82" r="3.08"/> 
            <circle cx="301.25" cy="149.62" r="3.08"/> 
            <circle cx="338.76" cy="141.06" r="3.08"/> 
            <circle cx="271.73" cy="158.41" r="3.08"/> 
            <circle cx="309.21" cy="149.81" r="3.08"/> 
            <circle cx="346.70" cy="141.23" r="3.08"/> 
            <circle cx="317.14" cy="149.98" r="3.08"/> 
            <circle cx="279.65" cy="158.61" r="3.08"/> 
            <circle cx="324.92" cy="149.60" r="3.08"/> 
            <circle cx="332.81" cy="149.76" r="3.08"/> 
            <circle cx="287.54" cy="158.78" r="3.08"/> 
            <circle cx="340.67" cy="149.91" r="3.08"/> 
            <circle cx="295.40" cy="158.92" r="3.08"/> 
            <circle cx="348.51" cy="150.05" r="3.08"/> 
            <circle cx="303.16" cy="158.62" r="3.08"/> 
            <circle cx="310.98" cy="158.76" r="3.08"/> 
            <circle cx="257.88" cy="167.68" r="3.08"/> 
            <circle cx="318.79" cy="158.88" r="3.08"/> 
            <circle cx="326.53" cy="158.64" r="3.08"/> 
            <circle cx="265.67" cy="167.80" r="3.08"/> 
            <circle cx="334.31" cy="158.76" r="3.08"/> 
            <circle cx="273.41" cy="167.61" r="3.08"/> 
            <circle cx="342.09" cy="158.86" r="3.08"/> 
            <circle cx="349.86" cy="158.96" r="3.08"/> 
            <circle cx="281.18" cy="167.72" r="3.08"/> 
            <circle cx="288.94" cy="167.81" r="3.08"/> 
            <circle cx="296.68" cy="167.89" r="3.08"/> 
            <circle cx="304.40" cy="167.74" r="3.08"/> 
            <circle cx="312.13" cy="167.81" r="3.08"/> 
            <circle cx="319.86" cy="167.88" r="3.08"/> 
            <circle cx="327.57" cy="167.76" r="3.08"/> 
            <circle cx="335.29" cy="167.82" r="3.08"/> 
            <circle cx="343.01" cy="167.87" r="3.08"/> 
            <circle cx="350.73" cy="167.92" r="3.08"/> 
            <circle cx="258.79" cy="176.92" r="3.08"/> 
            <circle cx="266.48" cy="176.92" r="3.08"/> 
            <circle cx="274.18" cy="176.92" r="3.08"/> 
            <circle cx="281.88" cy="176.92" r="3.08"/> 
            <circle cx="289.57" cy="176.92" r="3.08"/> 
            <circle cx="297.27" cy="176.92" r="3.08"/> 
            <circle cx="304.96" cy="176.92" r="3.08"/> 
            <circle cx="312.66" cy="176.92" r="3.08"/> 
            <circle cx="320.35" cy="176.92" r="3.08"/> 
            <circle cx="328.04" cy="176.92" r="3.08"/> 
            <circle cx="335.74" cy="176.92" r="3.08"/> 
            <circle cx="343.43" cy="176.92" r="3.08"/> 
            <circle cx="351.13" cy="176.92" r="3.08"/> 
        </g>
    </g>
</svg>
