<?xml version="1.0" encoding="UTF-8" standalone="no"?>
<svg xmlns:svg="http://www.w3.org/2000/svg"
xmlns="http://www.w3.org/2000/svg" version="1.1"
width="360.0" height="163.7">
<!-- Created with the Wikimedia westminster parliament diagram creator (http://parliamentdiagram.toolforge.org/westminsterinputform.html) -->
<g id="diagram">
  <g id="headbench">
  <g style="fill:#6495ED" id="CPC">
    <rect x="5.4268" y="77.9878" rx="0.00" ry="0.00" width="7.68" height="7.68"/>
  </g>
  </g>
  <g id="leftbench">
  <g style="fill:#6495ED" id="CPC">
    <rect x="13.9634" y="65.1829" rx="0.00" ry="0.00" width="7.68" height="7.68"/>
    <rect x="13.9634" y="56.6463" rx="0.00" ry="0.00" width="7.68" height="7.68"/>
    <rect x="13.9634" y="48.1098" rx="0.00" ry="0.00" width="7.68" height="7.68"/>
    <rect x="13.9634" y="39.5732" rx="0.00" ry="0.00" width="7.68" height="7.68"/>
    <rect x="13.9634" y="31.0366" rx="0.00" ry="0.00" width="7.68" height="7.68"/>
    <rect x="13.9634" y="22.5000" rx="0.00" ry="0.00" width="7.68" height="7.68"/>
    <rect x="13.9634" y="13.9634" rx="0.00" ry="0.00" width="7.68" height="7.68"/>
    <rect x="13.9634" y="5.4268" rx="0.00" ry="0.00" width="7.68" height="7.68"/>
    <rect x="22.5000" y="65.1829" rx="0.00" ry="0.00" width="7.68" height="7.68"/>
    <rect x="22.5000" y="56.6463" rx="0.00" ry="0.00" width="7.68" height="7.68"/>
    <rect x="22.5000" y="48.1098" rx="0.00" ry="0.00" width="7.68" height="7.68"/>
    <rect x="22.5000" y="39.5732" rx="0.00" ry="0.00" width="7.68" height="7.68"/>
    <rect x="22.5000" y="31.0366" rx="0.00" ry="0.00" width="7.68" height="7.68"/>
    <rect x="22.5000" y="22.5000" rx="0.00" ry="0.00" width="7.68" height="7.68"/>
    <rect x="22.5000" y="13.9634" rx="0.00" ry="0.00" width="7.68" height="7.68"/>
    <rect x="22.5000" y="5.4268" rx="0.00" ry="0.00" width="7.68" height="7.68"/>
    <rect x="31.0366" y="65.1829" rx="0.00" ry="0.00" width="7.68" height="7.68"/>
    <rect x="31.0366" y="56.6463" rx="0.00" ry="0.00" width="7.68" height="7.68"/>
    <rect x="31.0366" y="48.1098" rx="0.00" ry="0.00" width="7.68" height="7.68"/>
    <rect x="31.0366" y="39.5732" rx="0.00" ry="0.00" width="7.68" height="7.68"/>
    <rect x="31.0366" y="31.0366" rx="0.00" ry="0.00" width="7.68" height="7.68"/>
    <rect x="31.0366" y="22.5000" rx="0.00" ry="0.00" width="7.68" height="7.68"/>
    <rect x="31.0366" y="13.9634" rx="0.00" ry="0.00" width="7.68" height="7.68"/>
    <rect x="31.0366" y="5.4268" rx="0.00" ry="0.00" width="7.68" height="7.68"/>
    <rect x="39.5732" y="65.1829" rx="0.00" ry="0.00" width="7.68" height="7.68"/>
    <rect x="39.5732" y="56.6463" rx="0.00" ry="0.00" width="7.68" height="7.68"/>
    <rect x="39.5732" y="48.1098" rx="0.00" ry="0.00" width="7.68" height="7.68"/>
    <rect x="39.5732" y="39.5732" rx="0.00" ry="0.00" width="7.68" height="7.68"/>
    <rect x="39.5732" y="31.0366" rx="0.00" ry="0.00" width="7.68" height="7.68"/>
    <rect x="39.5732" y="22.5000" rx="0.00" ry="0.00" width="7.68" height="7.68"/>
    <rect x="39.5732" y="13.9634" rx="0.00" ry="0.00" width="7.68" height="7.68"/>
    <rect x="39.5732" y="5.4268" rx="0.00" ry="0.00" width="7.68" height="7.68"/>
    <rect x="48.1098" y="65.1829" rx="0.00" ry="0.00" width="7.68" height="7.68"/>
    <rect x="48.1098" y="56.6463" rx="0.00" ry="0.00" width="7.68" height="7.68"/>
    <rect x="48.1098" y="48.1098" rx="0.00" ry="0.00" width="7.68" height="7.68"/>
    <rect x="48.1098" y="39.5732" rx="0.00" ry="0.00" width="7.68" height="7.68"/>
    <rect x="48.1098" y="31.0366" rx="0.00" ry="0.00" width="7.68" height="7.68"/>
    <rect x="48.1098" y="22.5000" rx="0.00" ry="0.00" width="7.68" height="7.68"/>
    <rect x="48.1098" y="13.9634" rx="0.00" ry="0.00" width="7.68" height="7.68"/>
    <rect x="48.1098" y="5.4268" rx="0.00" ry="0.00" width="7.68" height="7.68"/>
    <rect x="56.6463" y="65.1829" rx="0.00" ry="0.00" width="7.68" height="7.68"/>
    <rect x="56.6463" y="56.6463" rx="0.00" ry="0.00" width="7.68" height="7.68"/>
    <rect x="56.6463" y="48.1098" rx="0.00" ry="0.00" width="7.68" height="7.68"/>
    <rect x="56.6463" y="39.5732" rx="0.00" ry="0.00" width="7.68" height="7.68"/>
    <rect x="56.6463" y="31.0366" rx="0.00" ry="0.00" width="7.68" height="7.68"/>
    <rect x="56.6463" y="22.5000" rx="0.00" ry="0.00" width="7.68" height="7.68"/>
    <rect x="56.6463" y="13.9634" rx="0.00" ry="0.00" width="7.68" height="7.68"/>
    <rect x="56.6463" y="5.4268" rx="0.00" ry="0.00" width="7.68" height="7.68"/>
    <rect x="65.1829" y="65.1829" rx="0.00" ry="0.00" width="7.68" height="7.68"/>
    <rect x="65.1829" y="56.6463" rx="0.00" ry="0.00" width="7.68" height="7.68"/>
    <rect x="65.1829" y="48.1098" rx="0.00" ry="0.00" width="7.68" height="7.68"/>
    <rect x="65.1829" y="39.5732" rx="0.00" ry="0.00" width="7.68" height="7.68"/>
    <rect x="65.1829" y="31.0366" rx="0.00" ry="0.00" width="7.68" height="7.68"/>
    <rect x="65.1829" y="22.5000" rx="0.00" ry="0.00" width="7.68" height="7.68"/>
    <rect x="65.1829" y="13.9634" rx="0.00" ry="0.00" width="7.68" height="7.68"/>
    <rect x="65.1829" y="5.4268" rx="0.00" ry="0.00" width="7.68" height="7.68"/>
    <rect x="73.7195" y="65.1829" rx="0.00" ry="0.00" width="7.68" height="7.68"/>
    <rect x="73.7195" y="56.6463" rx="0.00" ry="0.00" width="7.68" height="7.68"/>
    <rect x="73.7195" y="48.1098" rx="0.00" ry="0.00" width="7.68" height="7.68"/>
    <rect x="73.7195" y="39.5732" rx="0.00" ry="0.00" width="7.68" height="7.68"/>
    <rect x="73.7195" y="31.0366" rx="0.00" ry="0.00" width="7.68" height="7.68"/>
    <rect x="73.7195" y="22.5000" rx="0.00" ry="0.00" width="7.68" height="7.68"/>
    <rect x="73.7195" y="13.9634" rx="0.00" ry="0.00" width="7.68" height="7.68"/>
    <rect x="73.7195" y="5.4268" rx="0.00" ry="0.00" width="7.68" height="7.68"/>
    <rect x="82.2561" y="65.1829" rx="0.00" ry="0.00" width="7.68" height="7.68"/>
    <rect x="82.2561" y="56.6463" rx="0.00" ry="0.00" width="7.68" height="7.68"/>
    <rect x="82.2561" y="48.1098" rx="0.00" ry="0.00" width="7.68" height="7.68"/>
    <rect x="82.2561" y="39.5732" rx="0.00" ry="0.00" width="7.68" height="7.68"/>
    <rect x="82.2561" y="31.0366" rx="0.00" ry="0.00" width="7.68" height="7.68"/>
    <rect x="82.2561" y="22.5000" rx="0.00" ry="0.00" width="7.68" height="7.68"/>
    <rect x="82.2561" y="13.9634" rx="0.00" ry="0.00" width="7.68" height="7.68"/>
    <rect x="82.2561" y="5.4268" rx="0.00" ry="0.00" width="7.68" height="7.68"/>
    <rect x="90.7927" y="65.1829" rx="0.00" ry="0.00" width="7.68" height="7.68"/>
    <rect x="90.7927" y="56.6463" rx="0.00" ry="0.00" width="7.68" height="7.68"/>
    <rect x="90.7927" y="48.1098" rx="0.00" ry="0.00" width="7.68" height="7.68"/>
    <rect x="90.7927" y="39.5732" rx="0.00" ry="0.00" width="7.68" height="7.68"/>
    <rect x="90.7927" y="31.0366" rx="0.00" ry="0.00" width="7.68" height="7.68"/>
    <rect x="90.7927" y="22.5000" rx="0.00" ry="0.00" width="7.68" height="7.68"/>
    <rect x="90.7927" y="13.9634" rx="0.00" ry="0.00" width="7.68" height="7.68"/>
    <rect x="90.7927" y="5.4268" rx="0.00" ry="0.00" width="7.68" height="7.68"/>
    <rect x="99.3293" y="65.1829" rx="0.00" ry="0.00" width="7.68" height="7.68"/>
    <rect x="99.3293" y="56.6463" rx="0.00" ry="0.00" width="7.68" height="7.68"/>
    <rect x="99.3293" y="48.1098" rx="0.00" ry="0.00" width="7.68" height="7.68"/>
    <rect x="99.3293" y="39.5732" rx="0.00" ry="0.00" width="7.68" height="7.68"/>
    <rect x="99.3293" y="31.0366" rx="0.00" ry="0.00" width="7.68" height="7.68"/>
    <rect x="99.3293" y="22.5000" rx="0.00" ry="0.00" width="7.68" height="7.68"/>
    <rect x="99.3293" y="13.9634" rx="0.00" ry="0.00" width="7.68" height="7.68"/>
    <rect x="99.3293" y="5.4268" rx="0.00" ry="0.00" width="7.68" height="7.68"/>
    <rect x="107.8659" y="65.1829" rx="0.00" ry="0.00" width="7.68" height="7.68"/>
    <rect x="107.8659" y="56.6463" rx="0.00" ry="0.00" width="7.68" height="7.68"/>
    <rect x="107.8659" y="48.1098" rx="0.00" ry="0.00" width="7.68" height="7.68"/>
    <rect x="107.8659" y="39.5732" rx="0.00" ry="0.00" width="7.68" height="7.68"/>
    <rect x="107.8659" y="31.0366" rx="0.00" ry="0.00" width="7.68" height="7.68"/>
    <rect x="107.8659" y="22.5000" rx="0.00" ry="0.00" width="7.68" height="7.68"/>
    <rect x="107.8659" y="13.9634" rx="0.00" ry="0.00" width="7.68" height="7.68"/>
    <rect x="107.8659" y="5.4268" rx="0.00" ry="0.00" width="7.68" height="7.68"/>
    <rect x="116.4024" y="65.1829" rx="0.00" ry="0.00" width="7.68" height="7.68"/>
    <rect x="116.4024" y="56.6463" rx="0.00" ry="0.00" width="7.68" height="7.68"/>
    <rect x="116.4024" y="48.1098" rx="0.00" ry="0.00" width="7.68" height="7.68"/>
    <rect x="116.4024" y="39.5732" rx="0.00" ry="0.00" width="7.68" height="7.68"/>
    <rect x="116.4024" y="31.0366" rx="0.00" ry="0.00" width="7.68" height="7.68"/>
    <rect x="116.4024" y="22.5000" rx="0.00" ry="0.00" width="7.68" height="7.68"/>
    <rect x="116.4024" y="13.9634" rx="0.00" ry="0.00" width="7.68" height="7.68"/>
    <rect x="116.4024" y="5.4268" rx="0.00" ry="0.00" width="7.68" height="7.68"/>
    <rect x="124.9390" y="65.1829" rx="0.00" ry="0.00" width="7.68" height="7.68"/>
    <rect x="124.9390" y="56.6463" rx="0.00" ry="0.00" width="7.68" height="7.68"/>
    <rect x="124.9390" y="48.1098" rx="0.00" ry="0.00" width="7.68" height="7.68"/>
    <rect x="124.9390" y="39.5732" rx="0.00" ry="0.00" width="7.68" height="7.68"/>
    <rect x="124.9390" y="31.0366" rx="0.00" ry="0.00" width="7.68" height="7.68"/>
    <rect x="124.9390" y="22.5000" rx="0.00" ry="0.00" width="7.68" height="7.68"/>
    <rect x="124.9390" y="13.9634" rx="0.00" ry="0.00" width="7.68" height="7.68"/>
    <rect x="124.9390" y="5.4268" rx="0.00" ry="0.00" width="7.68" height="7.68"/>
    <rect x="133.4756" y="65.1829" rx="0.00" ry="0.00" width="7.68" height="7.68"/>
    <rect x="133.4756" y="56.6463" rx="0.00" ry="0.00" width="7.68" height="7.68"/>
    <rect x="133.4756" y="48.1098" rx="0.00" ry="0.00" width="7.68" height="7.68"/>
    <rect x="133.4756" y="39.5732" rx="0.00" ry="0.00" width="7.68" height="7.68"/>
    <rect x="133.4756" y="31.0366" rx="0.00" ry="0.00" width="7.68" height="7.68"/>
    <rect x="133.4756" y="22.5000" rx="0.00" ry="0.00" width="7.68" height="7.68"/>
    <rect x="133.4756" y="13.9634" rx="0.00" ry="0.00" width="7.68" height="7.68"/>
    <rect x="133.4756" y="5.4268" rx="0.00" ry="0.00" width="7.68" height="7.68"/>
    <rect x="142.0122" y="65.1829" rx="0.00" ry="0.00" width="7.68" height="7.68"/>
    <rect x="142.0122" y="56.6463" rx="0.00" ry="0.00" width="7.68" height="7.68"/>
    <rect x="142.0122" y="48.1098" rx="0.00" ry="0.00" width="7.68" height="7.68"/>
    <rect x="142.0122" y="39.5732" rx="0.00" ry="0.00" width="7.68" height="7.68"/>
    <rect x="142.0122" y="31.0366" rx="0.00" ry="0.00" width="7.68" height="7.68"/>
    <rect x="142.0122" y="22.5000" rx="0.00" ry="0.00" width="7.68" height="7.68"/>
    <rect x="142.0122" y="13.9634" rx="0.00" ry="0.00" width="7.68" height="7.68"/>
    <rect x="142.0122" y="5.4268" rx="0.00" ry="0.00" width="7.68" height="7.68"/>
    <rect x="150.5488" y="65.1829" rx="0.00" ry="0.00" width="7.68" height="7.68"/>
    <rect x="150.5488" y="56.6463" rx="0.00" ry="0.00" width="7.68" height="7.68"/>
    <rect x="150.5488" y="48.1098" rx="0.00" ry="0.00" width="7.68" height="7.68"/>
    <rect x="150.5488" y="39.5732" rx="0.00" ry="0.00" width="7.68" height="7.68"/>
    <rect x="150.5488" y="31.0366" rx="0.00" ry="0.00" width="7.68" height="7.68"/>
    <rect x="150.5488" y="22.5000" rx="0.00" ry="0.00" width="7.68" height="7.68"/>
    <rect x="150.5488" y="13.9634" rx="0.00" ry="0.00" width="7.68" height="7.68"/>
    <rect x="150.5488" y="5.4268" rx="0.00" ry="0.00" width="7.68" height="7.68"/>
    <rect x="159.0854" y="65.1829" rx="0.00" ry="0.00" width="7.68" height="7.68"/>
    <rect x="159.0854" y="56.6463" rx="0.00" ry="0.00" width="7.68" height="7.68"/>
    <rect x="159.0854" y="48.1098" rx="0.00" ry="0.00" width="7.68" height="7.68"/>
    <rect x="159.0854" y="39.5732" rx="0.00" ry="0.00" width="7.68" height="7.68"/>
    <rect x="159.0854" y="31.0366" rx="0.00" ry="0.00" width="7.68" height="7.68"/>
    <rect x="159.0854" y="22.5000" rx="0.00" ry="0.00" width="7.68" height="7.68"/>
    <rect x="159.0854" y="13.9634" rx="0.00" ry="0.00" width="7.68" height="7.68"/>
    <rect x="159.0854" y="5.4268" rx="0.00" ry="0.00" width="7.68" height="7.68"/>
    <rect x="167.6220" y="65.1829" rx="0.00" ry="0.00" width="7.68" height="7.68"/>
    <rect x="167.6220" y="56.6463" rx="0.00" ry="0.00" width="7.68" height="7.68"/>
    <rect x="167.6220" y="48.1098" rx="0.00" ry="0.00" width="7.68" height="7.68"/>
    <rect x="167.6220" y="39.5732" rx="0.00" ry="0.00" width="7.68" height="7.68"/>
    <rect x="167.6220" y="31.0366" rx="0.00" ry="0.00" width="7.68" height="7.68"/>
    <rect x="167.6220" y="22.5000" rx="0.00" ry="0.00" width="7.68" height="7.68"/>
    <rect x="167.6220" y="13.9634" rx="0.00" ry="0.00" width="7.68" height="7.68"/>
    <rect x="167.6220" y="5.4268" rx="0.00" ry="0.00" width="7.68" height="7.68"/>
    <rect x="176.1585" y="65.1829" rx="0.00" ry="0.00" width="7.68" height="7.68"/>
    <rect x="176.1585" y="56.6463" rx="0.00" ry="0.00" width="7.68" height="7.68"/>
    <rect x="176.1585" y="48.1098" rx="0.00" ry="0.00" width="7.68" height="7.68"/>
    <rect x="176.1585" y="39.5732" rx="0.00" ry="0.00" width="7.68" height="7.68"/>
    <rect x="176.1585" y="31.0366" rx="0.00" ry="0.00" width="7.68" height="7.68"/>
    <rect x="176.1585" y="22.5000" rx="0.00" ry="0.00" width="7.68" height="7.68"/>
    <rect x="176.1585" y="13.9634" rx="0.00" ry="0.00" width="7.68" height="7.68"/>
    <rect x="176.1585" y="5.4268" rx="0.00" ry="0.00" width="7.68" height="7.68"/>
    <rect x="184.6951" y="65.1829" rx="0.00" ry="0.00" width="7.68" height="7.68"/>
    <rect x="184.6951" y="56.6463" rx="0.00" ry="0.00" width="7.68" height="7.68"/>
    <rect x="184.6951" y="48.1098" rx="0.00" ry="0.00" width="7.68" height="7.68"/>
    <rect x="184.6951" y="39.5732" rx="0.00" ry="0.00" width="7.68" height="7.68"/>
    <rect x="184.6951" y="31.0366" rx="0.00" ry="0.00" width="7.68" height="7.68"/>
    <rect x="184.6951" y="22.5000" rx="0.00" ry="0.00" width="7.68" height="7.68"/>
    <rect x="184.6951" y="13.9634" rx="0.00" ry="0.00" width="7.68" height="7.68"/>
    <rect x="184.6951" y="5.4268" rx="0.00" ry="0.00" width="7.68" height="7.68"/>
    <rect x="193.2317" y="65.1829" rx="0.00" ry="0.00" width="7.68" height="7.68"/>
    <rect x="193.2317" y="56.6463" rx="0.00" ry="0.00" width="7.68" height="7.68"/>
    <rect x="193.2317" y="48.1098" rx="0.00" ry="0.00" width="7.68" height="7.68"/>
    <rect x="193.2317" y="39.5732" rx="0.00" ry="0.00" width="7.68" height="7.68"/>
    <rect x="193.2317" y="31.0366" rx="0.00" ry="0.00" width="7.68" height="7.68"/>
    <rect x="193.2317" y="22.5000" rx="0.00" ry="0.00" width="7.68" height="7.68"/>
    <rect x="193.2317" y="13.9634" rx="0.00" ry="0.00" width="7.68" height="7.68"/>
    <rect x="193.2317" y="5.4268" rx="0.00" ry="0.00" width="7.68" height="7.68"/>
    <rect x="201.7683" y="65.1829" rx="0.00" ry="0.00" width="7.68" height="7.68"/>
    <rect x="201.7683" y="56.6463" rx="0.00" ry="0.00" width="7.68" height="7.68"/>
    <rect x="201.7683" y="48.1098" rx="0.00" ry="0.00" width="7.68" height="7.68"/>
    <rect x="201.7683" y="39.5732" rx="0.00" ry="0.00" width="7.68" height="7.68"/>
    <rect x="201.7683" y="31.0366" rx="0.00" ry="0.00" width="7.68" height="7.68"/>
    <rect x="201.7683" y="22.5000" rx="0.00" ry="0.00" width="7.68" height="7.68"/>
    <rect x="201.7683" y="13.9634" rx="0.00" ry="0.00" width="7.68" height="7.68"/>
    <rect x="201.7683" y="5.4268" rx="0.00" ry="0.00" width="7.68" height="7.68"/>
    <rect x="210.3049" y="65.1829" rx="0.00" ry="0.00" width="7.68" height="7.68"/>
    <rect x="210.3049" y="56.6463" rx="0.00" ry="0.00" width="7.68" height="7.68"/>
    <rect x="210.3049" y="48.1098" rx="0.00" ry="0.00" width="7.68" height="7.68"/>
    <rect x="210.3049" y="39.5732" rx="0.00" ry="0.00" width="7.68" height="7.68"/>
    <rect x="210.3049" y="31.0366" rx="0.00" ry="0.00" width="7.68" height="7.68"/>
    <rect x="210.3049" y="22.5000" rx="0.00" ry="0.00" width="7.68" height="7.68"/>
    <rect x="210.3049" y="13.9634" rx="0.00" ry="0.00" width="7.68" height="7.68"/>
    <rect x="210.3049" y="5.4268" rx="0.00" ry="0.00" width="7.68" height="7.68"/>
    <rect x="218.8415" y="65.1829" rx="0.00" ry="0.00" width="7.68" height="7.68"/>
    <rect x="218.8415" y="56.6463" rx="0.00" ry="0.00" width="7.68" height="7.68"/>
    <rect x="218.8415" y="48.1098" rx="0.00" ry="0.00" width="7.68" height="7.68"/>
    <rect x="218.8415" y="39.5732" rx="0.00" ry="0.00" width="7.68" height="7.68"/>
    <rect x="218.8415" y="31.0366" rx="0.00" ry="0.00" width="7.68" height="7.68"/>
    <rect x="218.8415" y="22.5000" rx="0.00" ry="0.00" width="7.68" height="7.68"/>
    <rect x="218.8415" y="13.9634" rx="0.00" ry="0.00" width="7.68" height="7.68"/>
    <rect x="218.8415" y="5.4268" rx="0.00" ry="0.00" width="7.68" height="7.68"/>
    <rect x="227.3780" y="65.1829" rx="0.00" ry="0.00" width="7.68" height="7.68"/>
    <rect x="227.3780" y="56.6463" rx="0.00" ry="0.00" width="7.68" height="7.68"/>
  </g>
  <g style="fill:#87CEFA" id="BQ">
    <rect x="227.3780" y="48.1098" rx="0.00" ry="0.00" width="7.68" height="7.68"/>
    <rect x="227.3780" y="39.5732" rx="0.00" ry="0.00" width="7.68" height="7.68"/>
    <rect x="227.3780" y="31.0366" rx="0.00" ry="0.00" width="7.68" height="7.68"/>
    <rect x="227.3780" y="22.5000" rx="0.00" ry="0.00" width="7.68" height="7.68"/>
    <rect x="227.3780" y="13.9634" rx="0.00" ry="0.00" width="7.68" height="7.68"/>
    <rect x="227.3780" y="5.4268" rx="0.00" ry="0.00" width="7.68" height="7.68"/>
    <rect x="235.9146" y="65.1829" rx="0.00" ry="0.00" width="7.68" height="7.68"/>
    <rect x="235.9146" y="56.6463" rx="0.00" ry="0.00" width="7.68" height="7.68"/>
    <rect x="235.9146" y="48.1098" rx="0.00" ry="0.00" width="7.68" height="7.68"/>
    <rect x="235.9146" y="39.5732" rx="0.00" ry="0.00" width="7.68" height="7.68"/>
    <rect x="235.9146" y="31.0366" rx="0.00" ry="0.00" width="7.68" height="7.68"/>
    <rect x="235.9146" y="22.5000" rx="0.00" ry="0.00" width="7.68" height="7.68"/>
    <rect x="235.9146" y="13.9634" rx="0.00" ry="0.00" width="7.68" height="7.68"/>
    <rect x="235.9146" y="5.4268" rx="0.00" ry="0.00" width="7.68" height="7.68"/>
    <rect x="244.4512" y="65.1829" rx="0.00" ry="0.00" width="7.68" height="7.68"/>
    <rect x="244.4512" y="56.6463" rx="0.00" ry="0.00" width="7.68" height="7.68"/>
    <rect x="244.4512" y="48.1098" rx="0.00" ry="0.00" width="7.68" height="7.68"/>
    <rect x="244.4512" y="39.5732" rx="0.00" ry="0.00" width="7.68" height="7.68"/>
    <rect x="244.4512" y="31.0366" rx="0.00" ry="0.00" width="7.68" height="7.68"/>
    <rect x="244.4512" y="22.5000" rx="0.00" ry="0.00" width="7.68" height="7.68"/>
    <rect x="244.4512" y="13.9634" rx="0.00" ry="0.00" width="7.68" height="7.68"/>
    <rect x="244.4512" y="5.4268" rx="0.00" ry="0.00" width="7.68" height="7.68"/>
    <rect x="252.9878" y="65.1829" rx="0.00" ry="0.00" width="7.68" height="7.68"/>
    <rect x="252.9878" y="56.6463" rx="0.00" ry="0.00" width="7.68" height="7.68"/>
    <rect x="252.9878" y="48.1098" rx="0.00" ry="0.00" width="7.68" height="7.68"/>
    <rect x="252.9878" y="39.5732" rx="0.00" ry="0.00" width="7.68" height="7.68"/>
    <rect x="252.9878" y="31.0366" rx="0.00" ry="0.00" width="7.68" height="7.68"/>
    <rect x="252.9878" y="22.5000" rx="0.00" ry="0.00" width="7.68" height="7.68"/>
    <rect x="252.9878" y="13.9634" rx="0.00" ry="0.00" width="7.68" height="7.68"/>
    <rect x="252.9878" y="5.4268" rx="0.00" ry="0.00" width="7.68" height="7.68"/>
    <rect x="261.5244" y="65.1829" rx="0.00" ry="0.00" width="7.68" height="7.68"/>
    <rect x="261.5244" y="56.6463" rx="0.00" ry="0.00" width="7.68" height="7.68"/>
    <rect x="261.5244" y="48.1098" rx="0.00" ry="0.00" width="7.68" height="7.68"/>
    <rect x="261.5244" y="39.5732" rx="0.00" ry="0.00" width="7.68" height="7.68"/>
    <rect x="261.5244" y="31.0366" rx="0.00" ry="0.00" width="7.68" height="7.68"/>
    <rect x="261.5244" y="22.5000" rx="0.00" ry="0.00" width="7.68" height="7.68"/>
    <rect x="261.5244" y="13.9634" rx="0.00" ry="0.00" width="7.68" height="7.68"/>
    <rect x="261.5244" y="5.4268" rx="0.00" ry="0.00" width="7.68" height="7.68"/>
    <rect x="270.0610" y="65.1829" rx="0.00" ry="0.00" width="7.68" height="7.68"/>
    <rect x="270.0610" y="56.6463" rx="0.00" ry="0.00" width="7.68" height="7.68"/>
    <rect x="270.0610" y="48.1098" rx="0.00" ry="0.00" width="7.68" height="7.68"/>
    <rect x="270.0610" y="39.5732" rx="0.00" ry="0.00" width="7.68" height="7.68"/>
    <rect x="270.0610" y="31.0366" rx="0.00" ry="0.00" width="7.68" height="7.68"/>
    <rect x="270.0610" y="22.5000" rx="0.00" ry="0.00" width="7.68" height="7.68"/>
    <rect x="270.0610" y="13.9634" rx="0.00" ry="0.00" width="7.68" height="7.68"/>
    <rect x="270.0610" y="5.4268" rx="0.00" ry="0.00" width="7.68" height="7.68"/>
  </g>
  </g>
  <g id="rightbench">
  <g style="fill:#EA6D6A" id="LPC">
    <rect x="13.9634" y="90.7927" rx="0.00" ry="0.00" width="7.68" height="7.68"/>
    <rect x="13.9634" y="99.3293" rx="0.00" ry="0.00" width="7.68" height="7.68"/>
    <rect x="13.9634" y="107.8659" rx="0.00" ry="0.00" width="7.68" height="7.68"/>
    <rect x="13.9634" y="116.4024" rx="0.00" ry="0.00" width="7.68" height="7.68"/>
    <rect x="13.9634" y="124.9390" rx="0.00" ry="0.00" width="7.68" height="7.68"/>
    <rect x="13.9634" y="133.4756" rx="0.00" ry="0.00" width="7.68" height="7.68"/>
    <rect x="13.9634" y="142.0122" rx="0.00" ry="0.00" width="7.68" height="7.68"/>
    <rect x="13.9634" y="150.5488" rx="0.00" ry="0.00" width="7.68" height="7.68"/>
    <rect x="22.5000" y="90.7927" rx="0.00" ry="0.00" width="7.68" height="7.68"/>
    <rect x="22.5000" y="99.3293" rx="0.00" ry="0.00" width="7.68" height="7.68"/>
    <rect x="22.5000" y="107.8659" rx="0.00" ry="0.00" width="7.68" height="7.68"/>
    <rect x="22.5000" y="116.4024" rx="0.00" ry="0.00" width="7.68" height="7.68"/>
    <rect x="22.5000" y="124.9390" rx="0.00" ry="0.00" width="7.68" height="7.68"/>
    <rect x="22.5000" y="133.4756" rx="0.00" ry="0.00" width="7.68" height="7.68"/>
    <rect x="22.5000" y="142.0122" rx="0.00" ry="0.00" width="7.68" height="7.68"/>
    <rect x="22.5000" y="150.5488" rx="0.00" ry="0.00" width="7.68" height="7.68"/>
    <rect x="31.0366" y="90.7927" rx="0.00" ry="0.00" width="7.68" height="7.68"/>
    <rect x="31.0366" y="99.3293" rx="0.00" ry="0.00" width="7.68" height="7.68"/>
    <rect x="31.0366" y="107.8659" rx="0.00" ry="0.00" width="7.68" height="7.68"/>
    <rect x="31.0366" y="116.4024" rx="0.00" ry="0.00" width="7.68" height="7.68"/>
    <rect x="31.0366" y="124.9390" rx="0.00" ry="0.00" width="7.68" height="7.68"/>
    <rect x="31.0366" y="133.4756" rx="0.00" ry="0.00" width="7.68" height="7.68"/>
    <rect x="31.0366" y="142.0122" rx="0.00" ry="0.00" width="7.68" height="7.68"/>
    <rect x="31.0366" y="150.5488" rx="0.00" ry="0.00" width="7.68" height="7.68"/>
    <rect x="39.5732" y="90.7927" rx="0.00" ry="0.00" width="7.68" height="7.68"/>
    <rect x="39.5732" y="99.3293" rx="0.00" ry="0.00" width="7.68" height="7.68"/>
    <rect x="39.5732" y="107.8659" rx="0.00" ry="0.00" width="7.68" height="7.68"/>
    <rect x="39.5732" y="116.4024" rx="0.00" ry="0.00" width="7.68" height="7.68"/>
    <rect x="39.5732" y="124.9390" rx="0.00" ry="0.00" width="7.68" height="7.68"/>
    <rect x="39.5732" y="133.4756" rx="0.00" ry="0.00" width="7.68" height="7.68"/>
    <rect x="39.5732" y="142.0122" rx="0.00" ry="0.00" width="7.68" height="7.68"/>
    <rect x="39.5732" y="150.5488" rx="0.00" ry="0.00" width="7.68" height="7.68"/>
    <rect x="48.1098" y="90.7927" rx="0.00" ry="0.00" width="7.68" height="7.68"/>
    <rect x="48.1098" y="99.3293" rx="0.00" ry="0.00" width="7.68" height="7.68"/>
    <rect x="48.1098" y="107.8659" rx="0.00" ry="0.00" width="7.68" height="7.68"/>
    <rect x="48.1098" y="116.4024" rx="0.00" ry="0.00" width="7.68" height="7.68"/>
    <rect x="48.1098" y="124.9390" rx="0.00" ry="0.00" width="7.68" height="7.68"/>
    <rect x="48.1098" y="133.4756" rx="0.00" ry="0.00" width="7.68" height="7.68"/>
    <rect x="48.1098" y="142.0122" rx="0.00" ry="0.00" width="7.68" height="7.68"/>
    <rect x="48.1098" y="150.5488" rx="0.00" ry="0.00" width="7.68" height="7.68"/>
    <rect x="56.6463" y="90.7927" rx="0.00" ry="0.00" width="7.68" height="7.68"/>
    <rect x="56.6463" y="99.3293" rx="0.00" ry="0.00" width="7.68" height="7.68"/>
    <rect x="56.6463" y="107.8659" rx="0.00" ry="0.00" width="7.68" height="7.68"/>
    <rect x="56.6463" y="116.4024" rx="0.00" ry="0.00" width="7.68" height="7.68"/>
    <rect x="56.6463" y="124.9390" rx="0.00" ry="0.00" width="7.68" height="7.68"/>
    <rect x="56.6463" y="133.4756" rx="0.00" ry="0.00" width="7.68" height="7.68"/>
    <rect x="56.6463" y="142.0122" rx="0.00" ry="0.00" width="7.68" height="7.68"/>
    <rect x="56.6463" y="150.5488" rx="0.00" ry="0.00" width="7.68" height="7.68"/>
    <rect x="65.1829" y="90.7927" rx="0.00" ry="0.00" width="7.68" height="7.68"/>
    <rect x="65.1829" y="99.3293" rx="0.00" ry="0.00" width="7.68" height="7.68"/>
    <rect x="65.1829" y="107.8659" rx="0.00" ry="0.00" width="7.68" height="7.68"/>
    <rect x="65.1829" y="116.4024" rx="0.00" ry="0.00" width="7.68" height="7.68"/>
    <rect x="65.1829" y="124.9390" rx="0.00" ry="0.00" width="7.68" height="7.68"/>
    <rect x="65.1829" y="133.4756" rx="0.00" ry="0.00" width="7.68" height="7.68"/>
    <rect x="65.1829" y="142.0122" rx="0.00" ry="0.00" width="7.68" height="7.68"/>
    <rect x="65.1829" y="150.5488" rx="0.00" ry="0.00" width="7.68" height="7.68"/>
    <rect x="73.7195" y="90.7927" rx="0.00" ry="0.00" width="7.68" height="7.68"/>
    <rect x="73.7195" y="99.3293" rx="0.00" ry="0.00" width="7.68" height="7.68"/>
    <rect x="73.7195" y="107.8659" rx="0.00" ry="0.00" width="7.68" height="7.68"/>
    <rect x="73.7195" y="116.4024" rx="0.00" ry="0.00" width="7.68" height="7.68"/>
    <rect x="73.7195" y="124.9390" rx="0.00" ry="0.00" width="7.68" height="7.68"/>
    <rect x="73.7195" y="133.4756" rx="0.00" ry="0.00" width="7.68" height="7.68"/>
    <rect x="73.7195" y="142.0122" rx="0.00" ry="0.00" width="7.68" height="7.68"/>
    <rect x="73.7195" y="150.5488" rx="0.00" ry="0.00" width="7.68" height="7.68"/>
    <rect x="82.2561" y="90.7927" rx="0.00" ry="0.00" width="7.68" height="7.68"/>
    <rect x="82.2561" y="99.3293" rx="0.00" ry="0.00" width="7.68" height="7.68"/>
    <rect x="82.2561" y="107.8659" rx="0.00" ry="0.00" width="7.68" height="7.68"/>
    <rect x="82.2561" y="116.4024" rx="0.00" ry="0.00" width="7.68" height="7.68"/>
    <rect x="82.2561" y="124.9390" rx="0.00" ry="0.00" width="7.68" height="7.68"/>
    <rect x="82.2561" y="133.4756" rx="0.00" ry="0.00" width="7.68" height="7.68"/>
    <rect x="82.2561" y="142.0122" rx="0.00" ry="0.00" width="7.68" height="7.68"/>
    <rect x="82.2561" y="150.5488" rx="0.00" ry="0.00" width="7.68" height="7.68"/>
    <rect x="90.7927" y="90.7927" rx="0.00" ry="0.00" width="7.68" height="7.68"/>
    <rect x="90.7927" y="99.3293" rx="0.00" ry="0.00" width="7.68" height="7.68"/>
    <rect x="90.7927" y="107.8659" rx="0.00" ry="0.00" width="7.68" height="7.68"/>
    <rect x="90.7927" y="116.4024" rx="0.00" ry="0.00" width="7.68" height="7.68"/>
    <rect x="90.7927" y="124.9390" rx="0.00" ry="0.00" width="7.68" height="7.68"/>
    <rect x="90.7927" y="133.4756" rx="0.00" ry="0.00" width="7.68" height="7.68"/>
    <rect x="90.7927" y="142.0122" rx="0.00" ry="0.00" width="7.68" height="7.68"/>
    <rect x="90.7927" y="150.5488" rx="0.00" ry="0.00" width="7.68" height="7.68"/>
    <rect x="99.3293" y="90.7927" rx="0.00" ry="0.00" width="7.68" height="7.68"/>
    <rect x="99.3293" y="99.3293" rx="0.00" ry="0.00" width="7.68" height="7.68"/>
    <rect x="99.3293" y="107.8659" rx="0.00" ry="0.00" width="7.68" height="7.68"/>
    <rect x="99.3293" y="116.4024" rx="0.00" ry="0.00" width="7.68" height="7.68"/>
    <rect x="99.3293" y="124.9390" rx="0.00" ry="0.00" width="7.68" height="7.68"/>
    <rect x="99.3293" y="133.4756" rx="0.00" ry="0.00" width="7.68" height="7.68"/>
    <rect x="99.3293" y="142.0122" rx="0.00" ry="0.00" width="7.68" height="7.68"/>
    <rect x="99.3293" y="150.5488" rx="0.00" ry="0.00" width="7.68" height="7.68"/>
    <rect x="107.8659" y="90.7927" rx="0.00" ry="0.00" width="7.68" height="7.68"/>
    <rect x="107.8659" y="99.3293" rx="0.00" ry="0.00" width="7.68" height="7.68"/>
    <rect x="107.8659" y="107.8659" rx="0.00" ry="0.00" width="7.68" height="7.68"/>
    <rect x="107.8659" y="116.4024" rx="0.00" ry="0.00" width="7.68" height="7.68"/>
    <rect x="107.8659" y="124.9390" rx="0.00" ry="0.00" width="7.68" height="7.68"/>
    <rect x="107.8659" y="133.4756" rx="0.00" ry="0.00" width="7.68" height="7.68"/>
    <rect x="107.8659" y="142.0122" rx="0.00" ry="0.00" width="7.68" height="7.68"/>
    <rect x="107.8659" y="150.5488" rx="0.00" ry="0.00" width="7.68" height="7.68"/>
    <rect x="116.4024" y="90.7927" rx="0.00" ry="0.00" width="7.68" height="7.68"/>
    <rect x="116.4024" y="99.3293" rx="0.00" ry="0.00" width="7.68" height="7.68"/>
    <rect x="116.4024" y="107.8659" rx="0.00" ry="0.00" width="7.68" height="7.68"/>
    <rect x="116.4024" y="116.4024" rx="0.00" ry="0.00" width="7.68" height="7.68"/>
    <rect x="116.4024" y="124.9390" rx="0.00" ry="0.00" width="7.68" height="7.68"/>
    <rect x="116.4024" y="133.4756" rx="0.00" ry="0.00" width="7.68" height="7.68"/>
    <rect x="116.4024" y="142.0122" rx="0.00" ry="0.00" width="7.68" height="7.68"/>
    <rect x="116.4024" y="150.5488" rx="0.00" ry="0.00" width="7.68" height="7.68"/>
    <rect x="124.9390" y="90.7927" rx="0.00" ry="0.00" width="7.68" height="7.68"/>
    <rect x="124.9390" y="99.3293" rx="0.00" ry="0.00" width="7.68" height="7.68"/>
    <rect x="124.9390" y="107.8659" rx="0.00" ry="0.00" width="7.68" height="7.68"/>
    <rect x="124.9390" y="116.4024" rx="0.00" ry="0.00" width="7.68" height="7.68"/>
    <rect x="124.9390" y="124.9390" rx="0.00" ry="0.00" width="7.68" height="7.68"/>
    <rect x="124.9390" y="133.4756" rx="0.00" ry="0.00" width="7.68" height="7.68"/>
    <rect x="124.9390" y="142.0122" rx="0.00" ry="0.00" width="7.68" height="7.68"/>
    <rect x="124.9390" y="150.5488" rx="0.00" ry="0.00" width="7.68" height="7.68"/>
    <rect x="133.4756" y="90.7927" rx="0.00" ry="0.00" width="7.68" height="7.68"/>
    <rect x="133.4756" y="99.3293" rx="0.00" ry="0.00" width="7.68" height="7.68"/>
    <rect x="133.4756" y="107.8659" rx="0.00" ry="0.00" width="7.68" height="7.68"/>
    <rect x="133.4756" y="116.4024" rx="0.00" ry="0.00" width="7.68" height="7.68"/>
    <rect x="133.4756" y="124.9390" rx="0.00" ry="0.00" width="7.68" height="7.68"/>
    <rect x="133.4756" y="133.4756" rx="0.00" ry="0.00" width="7.68" height="7.68"/>
    <rect x="133.4756" y="142.0122" rx="0.00" ry="0.00" width="7.68" height="7.68"/>
    <rect x="133.4756" y="150.5488" rx="0.00" ry="0.00" width="7.68" height="7.68"/>
    <rect x="142.0122" y="90.7927" rx="0.00" ry="0.00" width="7.68" height="7.68"/>
    <rect x="142.0122" y="99.3293" rx="0.00" ry="0.00" width="7.68" height="7.68"/>
    <rect x="142.0122" y="107.8659" rx="0.00" ry="0.00" width="7.68" height="7.68"/>
    <rect x="142.0122" y="116.4024" rx="0.00" ry="0.00" width="7.68" height="7.68"/>
    <rect x="142.0122" y="124.9390" rx="0.00" ry="0.00" width="7.68" height="7.68"/>
    <rect x="142.0122" y="133.4756" rx="0.00" ry="0.00" width="7.68" height="7.68"/>
    <rect x="142.0122" y="142.0122" rx="0.00" ry="0.00" width="7.68" height="7.68"/>
    <rect x="142.0122" y="150.5488" rx="0.00" ry="0.00" width="7.68" height="7.68"/>
    <rect x="150.5488" y="90.7927" rx="0.00" ry="0.00" width="7.68" height="7.68"/>
    <rect x="150.5488" y="99.3293" rx="0.00" ry="0.00" width="7.68" height="7.68"/>
    <rect x="150.5488" y="107.8659" rx="0.00" ry="0.00" width="7.68" height="7.68"/>
    <rect x="150.5488" y="116.4024" rx="0.00" ry="0.00" width="7.68" height="7.68"/>
    <rect x="150.5488" y="124.9390" rx="0.00" ry="0.00" width="7.68" height="7.68"/>
    <rect x="150.5488" y="133.4756" rx="0.00" ry="0.00" width="7.68" height="7.68"/>
    <rect x="150.5488" y="142.0122" rx="0.00" ry="0.00" width="7.68" height="7.68"/>
    <rect x="150.5488" y="150.5488" rx="0.00" ry="0.00" width="7.68" height="7.68"/>
    <rect x="159.0854" y="90.7927" rx="0.00" ry="0.00" width="7.68" height="7.68"/>
    <rect x="159.0854" y="99.3293" rx="0.00" ry="0.00" width="7.68" height="7.68"/>
    <rect x="159.0854" y="107.8659" rx="0.00" ry="0.00" width="7.68" height="7.68"/>
    <rect x="159.0854" y="116.4024" rx="0.00" ry="0.00" width="7.68" height="7.68"/>
    <rect x="159.0854" y="124.9390" rx="0.00" ry="0.00" width="7.68" height="7.68"/>
    <rect x="159.0854" y="133.4756" rx="0.00" ry="0.00" width="7.68" height="7.68"/>
    <rect x="159.0854" y="142.0122" rx="0.00" ry="0.00" width="7.68" height="7.68"/>
    <rect x="159.0854" y="150.5488" rx="0.00" ry="0.00" width="7.68" height="7.68"/>
    <rect x="167.6220" y="90.7927" rx="0.00" ry="0.00" width="7.68" height="7.68"/>
    <rect x="167.6220" y="99.3293" rx="0.00" ry="0.00" width="7.68" height="7.68"/>
    <rect x="167.6220" y="107.8659" rx="0.00" ry="0.00" width="7.68" height="7.68"/>
    <rect x="167.6220" y="116.4024" rx="0.00" ry="0.00" width="7.68" height="7.68"/>
    <rect x="167.6220" y="124.9390" rx="0.00" ry="0.00" width="7.68" height="7.68"/>
    <rect x="167.6220" y="133.4756" rx="0.00" ry="0.00" width="7.68" height="7.68"/>
    <rect x="167.6220" y="142.0122" rx="0.00" ry="0.00" width="7.68" height="7.68"/>
    <rect x="167.6220" y="150.5488" rx="0.00" ry="0.00" width="7.68" height="7.68"/>
    <rect x="176.1585" y="90.7927" rx="0.00" ry="0.00" width="7.68" height="7.68"/>
    <rect x="176.1585" y="99.3293" rx="0.00" ry="0.00" width="7.68" height="7.68"/>
    <rect x="176.1585" y="107.8659" rx="0.00" ry="0.00" width="7.68" height="7.68"/>
    <rect x="176.1585" y="116.4024" rx="0.00" ry="0.00" width="7.68" height="7.68"/>
    <rect x="176.1585" y="124.9390" rx="0.00" ry="0.00" width="7.68" height="7.68"/>
    <rect x="176.1585" y="133.4756" rx="0.00" ry="0.00" width="7.68" height="7.68"/>
    <rect x="176.1585" y="142.0122" rx="0.00" ry="0.00" width="7.68" height="7.68"/>
    <rect x="176.1585" y="150.5488" rx="0.00" ry="0.00" width="7.68" height="7.68"/>
    <rect x="184.6951" y="90.7927" rx="0.00" ry="0.00" width="7.68" height="7.68"/>
    <rect x="184.6951" y="99.3293" rx="0.00" ry="0.00" width="7.68" height="7.68"/>
    <rect x="184.6951" y="107.8659" rx="0.00" ry="0.00" width="7.68" height="7.68"/>
    <rect x="184.6951" y="116.4024" rx="0.00" ry="0.00" width="7.68" height="7.68"/>
    <rect x="184.6951" y="124.9390" rx="0.00" ry="0.00" width="7.68" height="7.68"/>
    <rect x="184.6951" y="133.4756" rx="0.00" ry="0.00" width="7.68" height="7.68"/>
    <rect x="184.6951" y="142.0122" rx="0.00" ry="0.00" width="7.68" height="7.68"/>
    <rect x="184.6951" y="150.5488" rx="0.00" ry="0.00" width="7.68" height="7.68"/>
    <rect x="193.2317" y="90.7927" rx="0.00" ry="0.00" width="7.68" height="7.68"/>
    <rect x="193.2317" y="99.3293" rx="0.00" ry="0.00" width="7.68" height="7.68"/>
    <rect x="193.2317" y="107.8659" rx="0.00" ry="0.00" width="7.68" height="7.68"/>
    <rect x="193.2317" y="116.4024" rx="0.00" ry="0.00" width="7.68" height="7.68"/>
    <rect x="193.2317" y="124.9390" rx="0.00" ry="0.00" width="7.68" height="7.68"/>
    <rect x="193.2317" y="133.4756" rx="0.00" ry="0.00" width="7.68" height="7.68"/>
    <rect x="193.2317" y="142.0122" rx="0.00" ry="0.00" width="7.68" height="7.68"/>
    <rect x="193.2317" y="150.5488" rx="0.00" ry="0.00" width="7.68" height="7.68"/>
    <rect x="201.7683" y="90.7927" rx="0.00" ry="0.00" width="7.68" height="7.68"/>
    <rect x="201.7683" y="99.3293" rx="0.00" ry="0.00" width="7.68" height="7.68"/>
    <rect x="201.7683" y="107.8659" rx="0.00" ry="0.00" width="7.68" height="7.68"/>
    <rect x="201.7683" y="116.4024" rx="0.00" ry="0.00" width="7.68" height="7.68"/>
    <rect x="201.7683" y="124.9390" rx="0.00" ry="0.00" width="7.68" height="7.68"/>
    <rect x="201.7683" y="133.4756" rx="0.00" ry="0.00" width="7.68" height="7.68"/>
    <rect x="201.7683" y="142.0122" rx="0.00" ry="0.00" width="7.68" height="7.68"/>
    <rect x="201.7683" y="150.5488" rx="0.00" ry="0.00" width="7.68" height="7.68"/>
    <rect x="210.3049" y="90.7927" rx="0.00" ry="0.00" width="7.68" height="7.68"/>
    <rect x="210.3049" y="99.3293" rx="0.00" ry="0.00" width="7.68" height="7.68"/>
    <rect x="210.3049" y="107.8659" rx="0.00" ry="0.00" width="7.68" height="7.68"/>
    <rect x="210.3049" y="116.4024" rx="0.00" ry="0.00" width="7.68" height="7.68"/>
    <rect x="210.3049" y="124.9390" rx="0.00" ry="0.00" width="7.68" height="7.68"/>
    <rect x="210.3049" y="133.4756" rx="0.00" ry="0.00" width="7.68" height="7.68"/>
    <rect x="210.3049" y="142.0122" rx="0.00" ry="0.00" width="7.68" height="7.68"/>
    <rect x="210.3049" y="150.5488" rx="0.00" ry="0.00" width="7.68" height="7.68"/>
    <rect x="218.8415" y="90.7927" rx="0.00" ry="0.00" width="7.68" height="7.68"/>
    <rect x="218.8415" y="99.3293" rx="0.00" ry="0.00" width="7.68" height="7.68"/>
    <rect x="218.8415" y="107.8659" rx="0.00" ry="0.00" width="7.68" height="7.68"/>
  </g>
  <g style="fill:#F4A460" id="NDP">
    <rect x="218.8415" y="116.4024" rx="0.00" ry="0.00" width="7.68" height="7.68"/>
    <rect x="218.8415" y="124.9390" rx="0.00" ry="0.00" width="7.68" height="7.68"/>
    <rect x="218.8415" y="133.4756" rx="0.00" ry="0.00" width="7.68" height="7.68"/>
    <rect x="218.8415" y="142.0122" rx="0.00" ry="0.00" width="7.68" height="7.68"/>
    <rect x="218.8415" y="150.5488" rx="0.00" ry="0.00" width="7.68" height="7.68"/>
    <rect x="227.3780" y="90.7927" rx="0.00" ry="0.00" width="7.68" height="7.68"/>
    <rect x="227.3780" y="99.3293" rx="0.00" ry="0.00" width="7.68" height="7.68"/>
    <rect x="227.3780" y="107.8659" rx="0.00" ry="0.00" width="7.68" height="7.68"/>
    <rect x="227.3780" y="116.4024" rx="0.00" ry="0.00" width="7.68" height="7.68"/>
    <rect x="227.3780" y="124.9390" rx="0.00" ry="0.00" width="7.68" height="7.68"/>
    <rect x="227.3780" y="133.4756" rx="0.00" ry="0.00" width="7.68" height="7.68"/>
    <rect x="227.3780" y="142.0122" rx="0.00" ry="0.00" width="7.68" height="7.68"/>
    <rect x="227.3780" y="150.5488" rx="0.00" ry="0.00" width="7.68" height="7.68"/>
    <rect x="235.9146" y="90.7927" rx="0.00" ry="0.00" width="7.68" height="7.68"/>
    <rect x="235.9146" y="99.3293" rx="0.00" ry="0.00" width="7.68" height="7.68"/>
    <rect x="235.9146" y="107.8659" rx="0.00" ry="0.00" width="7.68" height="7.68"/>
    <rect x="235.9146" y="116.4024" rx="0.00" ry="0.00" width="7.68" height="7.68"/>
    <rect x="235.9146" y="124.9390" rx="0.00" ry="0.00" width="7.68" height="7.68"/>
    <rect x="235.9146" y="133.4756" rx="0.00" ry="0.00" width="7.68" height="7.68"/>
    <rect x="235.9146" y="142.0122" rx="0.00" ry="0.00" width="7.68" height="7.68"/>
    <rect x="235.9146" y="150.5488" rx="0.00" ry="0.00" width="7.68" height="7.68"/>
    <rect x="244.4512" y="90.7927" rx="0.00" ry="0.00" width="7.68" height="7.68"/>
    <rect x="244.4512" y="99.3293" rx="0.00" ry="0.00" width="7.68" height="7.68"/>
    <rect x="244.4512" y="107.8659" rx="0.00" ry="0.00" width="7.68" height="7.68"/>
    <rect x="244.4512" y="116.4024" rx="0.00" ry="0.00" width="7.68" height="7.68"/>
    <rect x="244.4512" y="124.9390" rx="0.00" ry="0.00" width="7.68" height="7.68"/>
    <rect x="244.4512" y="133.4756" rx="0.00" ry="0.00" width="7.68" height="7.68"/>
    <rect x="244.4512" y="142.0122" rx="0.00" ry="0.00" width="7.68" height="7.68"/>
    <rect x="244.4512" y="150.5488" rx="0.00" ry="0.00" width="7.68" height="7.68"/>
    <rect x="252.9878" y="90.7927" rx="0.00" ry="0.00" width="7.68" height="7.68"/>
    <rect x="252.9878" y="99.3293" rx="0.00" ry="0.00" width="7.68" height="7.68"/>
    <rect x="252.9878" y="107.8659" rx="0.00" ry="0.00" width="7.68" height="7.68"/>
    <rect x="252.9878" y="116.4024" rx="0.00" ry="0.00" width="7.68" height="7.68"/>
    <rect x="252.9878" y="124.9390" rx="0.00" ry="0.00" width="7.68" height="7.68"/>
    <rect x="252.9878" y="133.4756" rx="0.00" ry="0.00" width="7.68" height="7.68"/>
    <rect x="252.9878" y="142.0122" rx="0.00" ry="0.00" width="7.68" height="7.68"/>
    <rect x="252.9878" y="150.5488" rx="0.00" ry="0.00" width="7.68" height="7.68"/>
    <rect x="261.5244" y="90.7927" rx="0.00" ry="0.00" width="7.68" height="7.68"/>
    <rect x="261.5244" y="99.3293" rx="0.00" ry="0.00" width="7.68" height="7.68"/>
    <rect x="261.5244" y="107.8659" rx="0.00" ry="0.00" width="7.68" height="7.68"/>
    <rect x="261.5244" y="116.4024" rx="0.00" ry="0.00" width="7.68" height="7.68"/>
    <rect x="261.5244" y="124.9390" rx="0.00" ry="0.00" width="7.68" height="7.68"/>
    <rect x="261.5244" y="133.4756" rx="0.00" ry="0.00" width="7.68" height="7.68"/>
    <rect x="261.5244" y="142.0122" rx="0.00" ry="0.00" width="7.68" height="7.68"/>
    <rect x="261.5244" y="150.5488" rx="0.00" ry="0.00" width="7.68" height="7.68"/>
    <rect x="270.0610" y="90.7927" rx="0.00" ry="0.00" width="7.68" height="7.68"/>
    <rect x="270.0610" y="99.3293" rx="0.00" ry="0.00" width="7.68" height="7.68"/>
    <rect x="270.0610" y="107.8659" rx="0.00" ry="0.00" width="7.68" height="7.68"/>
    <rect x="270.0610" y="116.4024" rx="0.00" ry="0.00" width="7.68" height="7.68"/>
    <rect x="270.0610" y="124.9390" rx="0.00" ry="0.00" width="7.68" height="7.68"/>
    <rect x="270.0610" y="133.4756" rx="0.00" ry="0.00" width="7.68" height="7.68"/>
    <rect x="270.0610" y="142.0122" rx="0.00" ry="0.00" width="7.68" height="7.68"/>
    <rect x="270.0610" y="150.5488" rx="0.00" ry="0.00" width="7.68" height="7.68"/>
    <rect x="278.5976" y="90.7927" rx="0.00" ry="0.00" width="7.68" height="7.68"/>
    <rect x="278.5976" y="99.3293" rx="0.00" ry="0.00" width="7.68" height="7.68"/>
    <rect x="278.5976" y="107.8659" rx="0.00" ry="0.00" width="7.68" height="7.68"/>
    <rect x="278.5976" y="116.4024" rx="0.00" ry="0.00" width="7.68" height="7.68"/>
    <rect x="278.5976" y="124.9390" rx="0.00" ry="0.00" width="7.68" height="7.68"/>
    <rect x="278.5976" y="133.4756" rx="0.00" ry="0.00" width="7.68" height="7.68"/>
    <rect x="278.5976" y="142.0122" rx="0.00" ry="0.00" width="7.68" height="7.68"/>
    <rect x="278.5976" y="150.5488" rx="0.00" ry="0.00" width="7.68" height="7.68"/>
    <rect x="287.1341" y="90.7927" rx="0.00" ry="0.00" width="7.68" height="7.68"/>
    <rect x="287.1341" y="99.3293" rx="0.00" ry="0.00" width="7.68" height="7.68"/>
    <rect x="287.1341" y="107.8659" rx="0.00" ry="0.00" width="7.68" height="7.68"/>
    <rect x="287.1341" y="116.4024" rx="0.00" ry="0.00" width="7.68" height="7.68"/>
    <rect x="287.1341" y="124.9390" rx="0.00" ry="0.00" width="7.68" height="7.68"/>
    <rect x="287.1341" y="133.4756" rx="0.00" ry="0.00" width="7.68" height="7.68"/>
    <rect x="287.1341" y="142.0122" rx="0.00" ry="0.00" width="7.68" height="7.68"/>
    <rect x="287.1341" y="150.5488" rx="0.00" ry="0.00" width="7.68" height="7.68"/>
    <rect x="295.6707" y="90.7927" rx="0.00" ry="0.00" width="7.68" height="7.68"/>
    <rect x="295.6707" y="99.3293" rx="0.00" ry="0.00" width="7.68" height="7.68"/>
    <rect x="295.6707" y="107.8659" rx="0.00" ry="0.00" width="7.68" height="7.68"/>
    <rect x="295.6707" y="116.4024" rx="0.00" ry="0.00" width="7.68" height="7.68"/>
    <rect x="295.6707" y="124.9390" rx="0.00" ry="0.00" width="7.68" height="7.68"/>
    <rect x="295.6707" y="133.4756" rx="0.00" ry="0.00" width="7.68" height="7.68"/>
    <rect x="295.6707" y="142.0122" rx="0.00" ry="0.00" width="7.68" height="7.68"/>
    <rect x="295.6707" y="150.5488" rx="0.00" ry="0.00" width="7.68" height="7.68"/>
    <rect x="304.2073" y="90.7927" rx="0.00" ry="0.00" width="7.68" height="7.68"/>
    <rect x="304.2073" y="99.3293" rx="0.00" ry="0.00" width="7.68" height="7.68"/>
    <rect x="304.2073" y="107.8659" rx="0.00" ry="0.00" width="7.68" height="7.68"/>
    <rect x="304.2073" y="116.4024" rx="0.00" ry="0.00" width="7.68" height="7.68"/>
    <rect x="304.2073" y="124.9390" rx="0.00" ry="0.00" width="7.68" height="7.68"/>
    <rect x="304.2073" y="133.4756" rx="0.00" ry="0.00" width="7.68" height="7.68"/>
    <rect x="304.2073" y="142.0122" rx="0.00" ry="0.00" width="7.68" height="7.68"/>
    <rect x="304.2073" y="150.5488" rx="0.00" ry="0.00" width="7.68" height="7.68"/>
    <rect x="312.7439" y="90.7927" rx="0.00" ry="0.00" width="7.68" height="7.68"/>
    <rect x="312.7439" y="99.3293" rx="0.00" ry="0.00" width="7.68" height="7.68"/>
    <rect x="312.7439" y="107.8659" rx="0.00" ry="0.00" width="7.68" height="7.68"/>
    <rect x="312.7439" y="116.4024" rx="0.00" ry="0.00" width="7.68" height="7.68"/>
    <rect x="312.7439" y="124.9390" rx="0.00" ry="0.00" width="7.68" height="7.68"/>
    <rect x="312.7439" y="133.4756" rx="0.00" ry="0.00" width="7.68" height="7.68"/>
    <rect x="312.7439" y="142.0122" rx="0.00" ry="0.00" width="7.68" height="7.68"/>
    <rect x="312.7439" y="150.5488" rx="0.00" ry="0.00" width="7.68" height="7.68"/>
    <rect x="321.2805" y="90.7927" rx="0.00" ry="0.00" width="7.68" height="7.68"/>
    <rect x="321.2805" y="99.3293" rx="0.00" ry="0.00" width="7.68" height="7.68"/>
    <rect x="321.2805" y="107.8659" rx="0.00" ry="0.00" width="7.68" height="7.68"/>
    <rect x="321.2805" y="116.4024" rx="0.00" ry="0.00" width="7.68" height="7.68"/>
    <rect x="321.2805" y="124.9390" rx="0.00" ry="0.00" width="7.68" height="7.68"/>
    <rect x="321.2805" y="133.4756" rx="0.00" ry="0.00" width="7.68" height="7.68"/>
    <rect x="321.2805" y="142.0122" rx="0.00" ry="0.00" width="7.68" height="7.68"/>
    <rect x="321.2805" y="150.5488" rx="0.00" ry="0.00" width="7.68" height="7.68"/>
    <rect x="329.8171" y="90.7927" rx="0.00" ry="0.00" width="7.68" height="7.68"/>
    <rect x="329.8171" y="99.3293" rx="0.00" ry="0.00" width="7.68" height="7.68"/>
    <rect x="329.8171" y="107.8659" rx="0.00" ry="0.00" width="7.68" height="7.68"/>
    <rect x="329.8171" y="116.4024" rx="0.00" ry="0.00" width="7.68" height="7.68"/>
    <rect x="329.8171" y="124.9390" rx="0.00" ry="0.00" width="7.68" height="7.68"/>
  </g>
  <g style="fill:#99C955" id="GRE">
    <rect x="329.8171" y="133.4756" rx="0.00" ry="0.00" width="7.68" height="7.68"/>
    <rect x="329.8171" y="142.0122" rx="0.00" ry="0.00" width="7.68" height="7.68"/>
    <rect x="329.8171" y="150.5488" rx="0.00" ry="0.00" width="7.68" height="7.68"/>
    <rect x="338.3537" y="90.7927" rx="0.00" ry="0.00" width="7.68" height="7.68"/>
    <rect x="338.3537" y="99.3293" rx="0.00" ry="0.00" width="7.68" height="7.68"/>
    <rect x="338.3537" y="107.8659" rx="0.00" ry="0.00" width="7.68" height="7.68"/>
    <rect x="338.3537" y="116.4024" rx="0.00" ry="0.00" width="7.68" height="7.68"/>
    <rect x="338.3537" y="124.9390" rx="0.00" ry="0.00" width="7.68" height="7.68"/>
    <rect x="338.3537" y="133.4756" rx="0.00" ry="0.00" width="7.68" height="7.68"/>
    <rect x="338.3537" y="142.0122" rx="0.00" ry="0.00" width="7.68" height="7.68"/>
    <rect x="338.3537" y="150.5488" rx="0.00" ry="0.00" width="7.68" height="7.68"/>
    <rect x="346.8902" y="90.7927" rx="0.00" ry="0.00" width="7.68" height="7.68"/>
    <rect x="346.8902" y="99.3293" rx="0.00" ry="0.00" width="7.68" height="7.68"/>
    <rect x="346.8902" y="107.8659" rx="0.00" ry="0.00" width="7.68" height="7.68"/>
  </g>
  </g>
  <g id="centerbench">
  </g>
</g>
</svg>
